SplineFontDB: 3.2
FontName: DuctusMonoGeometric
FullName: Ductus Mono Geometric
FamilyName: Ductus Mono
Weight: Geometric
Copyright: Free license
Version: 1.0
ItalicAngle: 0
UnderlinePosition: -50
UnderlineWidth: 50
Ascent: 800
Descent: 200
InvalidEm: 0
UFOAscent: 800
UFODescent: -200
LayerCount: 2
Layer: 0 0 "Arri+AOgA-re" 1
Layer: 1 1 "public.default" 0 "glyphs"
StyleMap: 0x0040
FSType: 0
OS2Version: 0
OS2_WeightWidthSlopeOnly: 0
OS2_UseTypoMetrics: 0
CreationTime: 1654266489
ModificationTime: 1658225700
PfmFamily: 16
TTFWeight: 400
TTFWidth: 5
LineGap: 90
VLineGap: 0
Panose: 2 0 5 9 0 0 0 0 0 0
OS2TypoAscent: 800
OS2TypoAOffset: 0
OS2TypoDescent: -200
OS2TypoDOffset: 0
OS2TypoLinegap: 90
OS2WinAscent: 1202
OS2WinAOffset: 0
OS2WinDescent: 279
OS2WinDOffset: 0
HheadAscent: 1202
HheadAOffset: 0
HheadDescent: -279
HheadDOffset: 0
OS2SubXSize: 650
OS2SubYSize: 700
OS2SubXOff: 0
OS2SubYOff: 140
OS2SupXSize: 650
OS2SupYSize: 700
OS2SupXOff: 0
OS2SupYOff: 480
OS2StrikeYSize: 49
OS2StrikeYPos: 258
OS2Vendor: 'PfEd'
OS2CodePages: 00000001.00000000
OS2UnicodeRanges: 00000003.00000000.00000000.00000000
Lookup: 1 0 0 "'case' Case-Sensitive Forms in Latin lookup 0" { "'case' Case-Sensitive Forms in Latin lookup 0 subtable"  } ['case' ('latn' <'dflt' > 'DFLT' <'dflt' > ) ]
Lookup: 4 0 1 "point" { "point subtable"  } ['liga' ('latn' <'dflt' > 'DFLT' <'dflt' > ) ]
Lookup: 6 0 0 "pointcap" { "pointcap contextual 0"  "pointcap contextual 1"  } ['liga' ('latn' <'dflt' > 'DFLT' <'dflt' > ) ]
Lookup: 1 0 0 "Single Substitution lookup 3" { "Single Substitution lookup 3 subtable"  } []
Lookup: 1 0 0 "Single Substitution lookup 4" { "Single Substitution lookup 4 subtable"  } []

StartChar: .notdef
Encoding: 0 -1 0
GlifName: _notdef
Width: 700
VWidth: 0
Flags: W
LayerCount: 2
Fore
SplineSet
260.5 44 m 257,0,-1
 439.5 44 l 257,1,-1
 439.5 624 l 257,2,-1
 260.5 624 l 257,3,-1
 260.5 44 l 257,0,-1
217.5 0 m 257,4,-1
 217.5 666 l 257,5,-1
 482.5 666 l 257,6,-1
 482.5 0 l 257,7,-1
 217.5 0 l 257,4,-1
EndSplineSet
EndChar

StartChar: exclam
Encoding: 34 33 34
GlifName: exclam
Width: 700
VWidth: 0
Flags: W
LayerCount: 2
Fore
SplineSet
313 239 m 1280
350 843 m 1280
387 806 m 1280
350 202 m 1280
313 32 m 1280
350 95 m 1280
387 59 m 1280
350 -4 m 1280
350 202 m 258,8,9
 349 202 349 202 349 203 c 258,10,-1
 313 238 l 257,11,-1
 313 239 l 257,12,-1
 313 806 l 258,13,14
 313 807 313 807 314 807 c 258,15,-1
 349 843 l 257,16,-1
 350 843 l 258,17,18
 351 843 351 843 351 842 c 258,19,-1
 387 807 l 257,20,-1
 387 806 l 257,21,-1
 387 239 l 258,22,23
 387 238 387 238 386 238 c 258,24,-1
 351 202 l 257,25,-1
 350 202 l 258,8,9
350 -4 m 258,26,27
 349 -4 349 -4 349 -3 c 258,28,-1
 313 32 l 257,29,-1
 313 33 l 257,30,-1
 313 59 l 257,31,-1
 314 60 l 257,32,-1
 349 95 l 257,33,-1
 350 95 l 257,34,-1
 351 95 l 257,35,-1
 387 59 l 257,36,-1
 387 33 l 258,37,38
 387 32 387 32 386 32 c 258,39,-1
 351 -4 l 257,40,-1
 350 -4 l 258,26,27
EndSplineSet
EndChar

StartChar: quotedbl
Encoding: 35 34 35
GlifName: quotedbl
Width: 700
VWidth: 0
Flags: W
LayerCount: 2
Fore
SplineSet
223 672 m 1280
259 838 m 1280
297 802 m 1280
260 636 m 1280
403 672 m 1280
440 838 m 1280
477 802 m 1280
441 636 m 1280
260 636 m 257,8,-1
 259 636 l 257,9,-1
 223 672 l 257,10,-1
 223 801 l 258,11,12
 223 802 223 802 224 803 c 258,13,-1
 259 838 l 257,14,-1
 260 838 l 257,15,-1
 261 837 l 257,16,-1
 296 802 l 257,17,-1
 297 802 l 257,18,-1
 297 801 l 257,19,-1
 297 672 l 257,20,-1
 296 671 l 257,21,-1
 260 636 l 257,8,-1
440 636 m 257,22,-1
 439 636 l 257,23,-1
 404 672 l 257,24,-1
 403 672 l 257,25,-1
 403 801 l 258,26,27
 403 802 403 802 404 803 c 258,28,-1
 440 838 l 258,29,30
 441 838 441 838 441 837 c 258,31,-1
 477 802 l 257,32,-1
 477 801 l 257,33,-1
 477 672 l 257,34,-1
 476 671 l 257,35,-1
 441 636 l 257,36,-1
 440 636 l 257,22,-1
EndSplineSet
EndChar

StartChar: numbersign
Encoding: 36 35 36
GlifName: numbersign
Width: 700
VWidth: 0
Flags: W
LayerCount: 2
Fore
SplineSet
169 495 m 1280
619 458 m 1280
582 421 m 1280
133 458 m 1280
118 263 m 1280
567 226 m 1280
531 189 m 1280
81 226 m 1280
479 701 m 257,8,-1
 480 701 l 257,9,-1
 515 665 l 257,10,-1
 516 664 l 257,11,-1
 488.97 495 l 257,12,-1
 582 495 l 258,13,14
 583 495 583 495 583 494 c 258,15,-1
 619 459 l 257,16,-1
 619 458 l 258,17,18
 619 457 619 457 618 457 c 258,19,-1
 583 421 l 257,20,-1
 582 421 l 257,21,-1
 477.135 421 l 257,22,-1
 451.865 263 l 257,23,-1
 530 263 l 258,24,25
 531 263 531 263 532 262 c 258,26,-1
 567 227 l 257,27,-1
 567 226 l 258,28,29
 567 225 567 225 566 225 c 258,30,-1
 531 189 l 257,31,-1
 530 189 l 257,32,-1
 440.03 189 l 257,33,-1
 413 20 l 258,34,35
 413 19 413 19 412 19 c 258,36,-1
 377 -16 l 258,37,38
 377 -17 377 -17 376 -17 c 258,39,-1
 375 -17 l 257,40,-1
 340 19 l 258,41,42
 339 19 339 19 339 20 c 258,43,-1
 366.03 189 l 257,44,-1
 285.03 189 l 257,45,-1
 258 20 l 257,46,-1
 258 19 l 257,47,-1
 222 -16 l 258,48,49
 222 -17 222 -17 221.5 -17 c 258,50,-1
 221 -17 l 257,51,-1
 220 -17 l 257,52,-1
 185 19 l 257,53,-1
 184 20 l 257,54,-1
 211.03 189 l 257,55,-1
 118 189 l 258,56,57
 117 189 117 189 117 190 c 258,58,-1
 81 225 l 257,59,-1
 81 226 l 258,60,61
 81 227 81 227 82 227 c 258,62,-1
 117 263 l 257,63,-1
 118 263 l 257,64,-1
 222.865 263 l 257,65,-1
 248.135 421 l 257,66,-1
 170 421 l 258,67,68
 169 421 169 421 168 422 c 258,69,-1
 133 457 l 257,70,-1
 133 458 l 258,71,72
 133 459 133 459 134 459 c 258,73,-1
 169 495 l 257,74,-1
 170 495 l 257,75,-1
 259.97 495 l 257,76,-1
 287 664 l 258,77,78
 287 665 287 665 288 665 c 258,79,-1
 323 700 l 258,80,81
 323 701 323 701 324 701 c 258,82,-1
 325 701 l 257,83,-1
 360 665 l 258,84,85
 361 665 361 665 361 664 c 258,86,-1
 333.97 495 l 257,87,-1
 414.97 495 l 257,88,-1
 442 664 l 257,89,-1
 442 665 l 257,90,-1
 478 700 l 258,91,92
 478 701 478 701 478.5 701 c 258,93,-1
 479 701 l 257,8,-1
322.135 421 m 257,94,-1
 296.865 263 l 257,95,-1
 377.865 263 l 257,96,-1
 403.135 421 l 257,97,-1
 322.135 421 l 257,94,-1
EndSplineSet
EndChar

StartChar: percent
Encoding: 38 37 38
GlifName: percent
Width: 700
VWidth: 0
Flags: W
LayerCount: 2
Fore
SplineSet
155 690 m 256,0,1
 155 662 155 662 169 638 c 257,2,3
 194 624 194 624 221.5 624 c 128,-1,4
 249 624 249 624 273 638 c 257,5,6
 287 662 287 662 287 690 c 256,7,8
 287 717 287 717 273 742 c 257,9,10
 249 756 249 756 221 756 c 128,-1,11
 193 756 193 756 169 742 c 257,12,13
 155 717 155 717 155 690 c 256,0,1
114 761 m 258,14,-1
 149 797 l 258,15,16
 179 827 179 827 221 827 c 256,17,18
 262 827 262 827 292 798 c 258,19,-1
 293 797 l 257,20,-1
 329 761 l 258,21,22
 358 732 358 732 358 690 c 256,23,24
 358 649 358 649 329 619 c 258,25,-1
 328 618 l 257,26,-1
 293 582 l 258,27,28
 263 553 263 553 221 553 c 128,-1,29
 179 553 179 553 150 582 c 258,30,-1
 114 618 l 258,31,32
 84 648 84 648 84 690 c 128,-1,33
 84 732 84 732 114 761 c 258,14,-1
  PathStart: -1
117 -17 m 257,34,-1
 82 19 l 257,35,-1
 81 20 l 257,36,-1
 81 21 l 257,37,-1
 545 794 l 257,38,-1
 581 829 l 257,39,-1
 582 830 l 257,40,-1
 583 830 l 257,41,-1
 618 794 l 257,42,-1
 619 793 l 257,43,-1
 619 792 l 257,44,-1
 155 19 l 257,45,-1
 119 -16 l 257,46,-1
 118 -17 l 257,47,-1
 117 -17 l 257,34,-1
339 123 m 256,48,49
 339 166 339 166 370 197 c 258,50,-1
 405 232 l 258,51,52
 436 263 436 263 479 263 c 128,-1,53
 522 263 522 263 553 232 c 258,54,-1
 588 197 l 258,55,56
 619 166 619 166 619 123 c 128,-1,57
 619 80 619 80 588 49 c 258,58,-1
 553 14 l 257,59,-1
 552 13 l 258,60,61
 521 -17 521 -17 479 -17 c 256,62,63
 436 -17 436 -17 405 14 c 258,64,-1
 370 49 l 257,65,-1
 369 50 l 258,66,67
 339 81 339 81 339 123 c 256,48,49
425 69 m 257,68,69
 449 54 449 54 479 54 c 256,70,71
 508 54 508 54 533 69 c 257,72,73
 548 93 548 93 548 122.5 c 128,-1,74
 548 152 548 152 533 177 c 257,75,76
 508 192 508 192 479 192 c 256,77,78
 449 192 449 192 425 177 c 257,79,80
 410 152 410 152 410 123 c 128,-1,81
 410 94 410 94 425 69 c 257,68,69
  PathStart: -1
EndSplineSet
EndChar

StartChar: ampersand
Encoding: 39 38 39
GlifName: ampersand
Width: 700
VWidth: 0
Flags: W
LayerCount: 2
Fore
SplineSet
567 415 m 1280
530 452 m 1280
181 583 m 1280
619 312 m 1280
582 275 m 1280
143 619 m 1280
181 672 m 1280
143 636 m 1280
530 452 m 258,8,9
 531 452 531 452 532 451 c 258,10,-1
 567 416 l 257,11,-1
 567 415 l 258,12,13
 567 380.619 567 380.619 565.013 349.196 c 257,14,15
 573.47 349 573.47 349 582 349 c 256,16,17
 583 349 583 349 583 348 c 258,18,-1
 619 313 l 257,19,-1
 619 312 l 258,20,21
 619 311 619 311 618 311 c 258,22,-1
 583 275 l 257,23,-1
 582 275 l 258,24,25
 569.406 275 569.406 275 556.969 275.428 c 257,26,27
 535.968 144.968 535.968 144.968 471 80 c 258,28,-1
 435 44 l 258,29,30
 390 -1 390 -1 324 -8 c 256,31,32
 312 -10 312 -10 301 -9 c 256,33,34
 229 -7 229 -7 177 45 c 258,35,-1
 142 80 l 257,36,-1
 141 81 l 258,37,38
 79 144 79 144 81 235 c 256,39,40
 84 321 84 321 145 382 c 258,41,-1
 180 417 l 258,42,43
 185.76 422.76 185.76 422.76 191.797 428.009 c 257,44,-1
 185 435 l 257,45,-1
 184 436 l 258,46,47
 122 498 122 498 107 582 c 256,48,49
 107 583 107 583 108 584 c 258,50,-1
 143 619 l 257,51,-1
 144 619 l 257,52,53
 144 620 144 620 145 619 c 258,54,-1
 180 583 l 257,55,-1
 181 583 l 257,56,57
 192.64 513.16 192.64 513.16 237.211 458.375 c 257,58,59
 265.369 472.325 265.369 472.325 298 478 c 256,60,61
 298.079 478 298.079 478 298.158 477.994 c 256,62,63
 323.076 477.022 323.076 477.022 347 484 c 256,64,65
 382 493 382 493 411 515 c 257,66,67
 465 586 465 586 442 672 c 256,68,69
 434 704 434 704 414 731 c 257,70,71
 363 769 363 769 299 765 c 256,72,73
 249 761 249 761 209 732 c 257,74,75
 189 705 189 705 181 672 c 257,76,-1
 180 672 l 257,77,-1
 145 636 l 257,78,-1
 144 636 l 257,79,-1
 143 636 l 257,80,-1
 108 672 l 257,81,-1
 107 673 l 257,82,83
 119 719 119 719 152 753 c 258,84,-1
 188 788 l 257,85,-1
 189 789 l 258,86,87
 235 834 235 834 298 838 c 256,88,89
 378 844 378 844 435 787 c 258,90,-1
 470 752 l 258,91,92
 504 719 504 719 516 673 c 256,93,94
 529 623 529 623 515.5 575.5 c 128,-1,95
 502 528 502 528 467 494 c 258,96,-1
 432 458 l 258,97,98
 396 423 396 423 348 410 c 256,99,100
 333.203 406.301 333.203 406.301 317.645 404.882 c 257,101,102
 352.066 387.98 352.066 387.98 392 376 c 256,103,104
 440.68 361.396 440.68 361.396 492.287 354.691 c 257,105,106
 494 383.631 494 383.631 494 415 c 258,107,-1
 494 416 l 257,108,-1
 530 452 l 258,8,9
236.368 383.719 m 257,109,110
 217.771 374.261 217.771 374.261 201 361 c 257,111,112
 157 305 157 305 155 235 c 256,113,114
 153 159 153 159 198 101 c 257,115,116
 244 66 244 66 301 64 c 256,117,118
 312 64 312 64 324 65 c 256,119,120
 376 71 376 71 415 101 c 257,121,122
 466.827 167.26 466.827 167.26 484.654 281.725 c 257,123,124
 429.413 289.554 429.413 289.554 377.5 306.5 c 256,125,126
 293.477 333.927 293.477 333.927 236.368 383.719 c 257,109,110
EndSplineSet
EndChar

StartChar: quotesingle
Encoding: 40 39 40
GlifName: quotesingle
Width: 700
VWidth: 0
Flags: W
LayerCount: 2
Fore
SplineSet
375 787 m 1280
413 750 m 1280
323 585 m 257,2,-1
 288 620 l 257,3,-1
 287 621 l 257,4,-1
 288 622 l 258,5,6
 339 676 339 676 339 750 c 256,7,8
 339 751 339 751 340 751 c 258,9,-1
 375 787 l 257,10,-1
 376 787 l 257,11,-1
 377 786 l 257,12,-1
 412 751 l 257,13,-1
 413 750 l 257,14,15
 413 675 413 675 361 620 c 258,16,-1
 325 585 l 257,17,-1
 324 584 l 257,18,-1
 323 585 l 257,2,-1
EndSplineSet
EndChar

StartChar: parenleft
Encoding: 41 40 41
GlifName: parenleft
Width: 700
VWidth: 0
Flags: W
LayerCount: 2
Fore
SplineSet
544 763 m 1280
580 27 m 1280
544 -10 m 1280
580 800 m 1280
580 800 m 258,4,5
 580 799 580 799 579 799 c 258,6,-1
 544 763 l 257,7,-1
 543 763 l 258,8,9
 398 763 398 763 289 667 c 257,10,11
 194 559 194 559 194 413.5 c 128,-1,12
 194 268 194 268 289 159 c 257,13,14
 398 64 398 64 543 64 c 256,15,16
 544 64 544 64 545 63 c 258,17,-1
 580 28 l 257,18,-1
 580 27 l 258,19,20
 580 26 580 26 579 26 c 258,21,-1
 544 -10 l 257,22,-1
 543 -10 l 258,23,24
 464 -10 464 -10 393.5 20 c 128,-1,25
 323 50 323 50 269 104 c 258,26,-1
 234 139 l 258,27,28
 180 193 180 193 150 264 c 128,-1,29
 120 335 120 335 120 413.5 c 128,-1,30
 120 492 120 492 150 563 c 128,-1,31
 180 634 180 634 234 688 c 258,32,-1
 269 723 l 258,33,34
 323 777 323 777 393.5 807 c 128,-1,35
 464 837 464 837 543 837 c 256,36,37
 544 837 544 837 545 836 c 258,38,-1
 580 801 l 257,39,-1
 580 800 l 258,4,5
EndSplineSet
EndChar

StartChar: parenright
Encoding: 42 41 42
GlifName: parenright
Width: 700
VWidth: 0
Flags: W
LayerCount: 2
Fore
SplineSet
156 833 m 1280
120 23 m 1280
156 60 m 1280
120 796 m 1280
120 797 m 257,4,-1
 121 798 l 257,5,-1
 156 833 l 257,6,-1
 157 833 l 258,7,8
 236 833 236 833 306.5 803 c 128,-1,9
 377 773 377 773 431 720 c 258,10,-1
 466 684 l 257,11,-1
 467 683 l 258,12,13
 521 629 521 629 550.5 559 c 128,-1,14
 580 489 580 489 580 410 c 128,-1,15
 580 331 580 331 550 260 c 128,-1,16
 520 189 520 189 466 136 c 258,17,-1
 431 100 l 258,18,19
 377 47 377 47 306.5 17 c 128,-1,20
 236 -13 236 -13 157 -13 c 256,21,22
 156 -13 156 -13 155 -13 c 258,23,-1
 120 23 l 258,24,25
 120 24 120 24 121 25 c 258,26,-1
 156 60 l 257,27,-1
 157 60 l 258,28,29
 302 60 302 60 411 156 c 257,30,31
 506 265 506 265 506 410 c 128,-1,32
 506 555 506 555 411 664 c 257,33,34
 302 760 302 760 157 760 c 256,35,36
 156 760 156 760 155 761 c 258,37,-1
 120 796 l 257,38,-1
 120 797 l 257,4,-1
EndSplineSet
EndChar

StartChar: plus
Encoding: 44 43 44
GlifName: plus
Width: 700
VWidth: 0
Flags: W
LayerCount: 2
Fore
SplineSet
313 135 m 1280
350 533 m 1280
387 497 m 1280
350 99 m 1280
169 353 m 1280
567 316 m 1280
531 279 m 1280
133 316 m 1280
350 99 m 258,8,9
 349 99 349 99 349 100 c 258,10,-1
 313 135 l 257,11,-1
 313 136 l 257,12,-1
 313 279 l 257,13,-1
 170 279 l 258,14,15
 169 279 169 279 168 280 c 258,16,-1
 133 315 l 257,17,-1
 133 316 l 258,18,19
 133 317 133 317 134 317 c 258,20,-1
 169 353 l 257,21,-1
 170 353 l 257,22,-1
 313 353 l 257,23,-1
 313 496 l 258,24,25
 313 497 313 497 314 498 c 258,26,-1
 349 533 l 257,27,-1
 350 533 l 258,28,29
 351 533 351 533 351 532 c 258,30,-1
 387 497 l 257,31,-1
 387 496 l 257,32,-1
 387 353 l 257,33,-1
 530 353 l 258,34,35
 531 353 531 353 532 352 c 258,36,-1
 567 317 l 257,37,-1
 567 316 l 258,38,39
 567 315 567 315 566 315 c 258,40,-1
 531 279 l 257,41,-1
 530 279 l 257,42,-1
 387 279 l 257,43,-1
 387 136 l 258,44,45
 387 135 387 135 386 134 c 258,46,-1
 351 99 l 257,47,-1
 350 99 l 258,8,9
EndSplineSet
EndChar

StartChar: comma
Encoding: 45 44 45
GlifName: comma
Width: 700
VWidth: 0
Flags: W
LayerCount: 2
Fore
SplineSet
287 56 m 1280
324 93 m 1280
323 -135 m 257,2,-1
 288 -100 l 257,3,-1
 287 -99 l 257,4,-1
 288 -98 l 257,5,6
 326 -47 326 -47 336 17 c 257,7,-1
 336 19 l 257,8,-1
 324 19 l 257,9,-1
 323 20 l 257,10,-1
 288 55 l 257,11,-1
 287 56 l 258,12,13
 287 57 287 57 288 57 c 258,14,-1
 324 93 l 257,15,-1
 375 93 l 257,16,-1
 377 92 l 257,17,-1
 413 56 l 257,18,19
 413 -30 413 -30 361 -100 c 257,20,-1
 325 -135 l 257,21,-1
 324 -135 l 257,22,-1
 323 -135 l 257,2,-1
EndSplineSet
EndChar

StartChar: hyphen
Encoding: 46 45 46
GlifName: hyphen
Width: 700
VWidth: 0
Flags: W
LayerCount: 2
Fore
SplineSet
143 439 m 1280
593 402 m 1280
557 365 m 1280
107 402 m 1280
107 402 m 258,4,5
 107 403 107 403 108 403 c 258,6,-1
 143 439 l 257,7,-1
 144 439 l 257,8,-1
 556 439 l 258,9,10
 557 439 557 439 557 438 c 258,11,-1
 593 403 l 257,12,-1
 593 402 l 258,13,14
 593 401 593 401 592 401 c 258,15,-1
 557 365 l 257,16,-1
 556 365 l 257,17,-1
 144 365 l 258,18,19
 143 365 143 365 143 366 c 258,20,-1
 107 401 l 257,21,-1
 107 402 l 258,4,5
EndSplineSet
EndChar

StartChar: period
Encoding: 47 46 47
GlifName: period
Width: 700
VWidth: 0
Flags: W
LayerCount: 2
Fore
SplineSet
313 28 m 1280
350 91 m 1280
387 54 m 1280
350 -9 m 1280
350 -9 m 258,4,5
 349 -9 349 -9 349 -8 c 258,6,-1
 313 27 l 257,7,-1
 313 28 l 257,8,-1
 313 54 l 257,9,-1
 314 55 l 257,10,-1
 349 90 l 257,11,-1
 350 91 l 258,12,13
 351 91 351 91 351 90 c 258,14,-1
 387 54 l 257,15,-1
 387 28 l 258,16,17
 387 27 387 27 386 27 c 258,18,-1
 351 -9 l 257,19,-1
 350 -9 l 258,4,5
EndSplineSet
EndChar

StartChar: slash
Encoding: 48 47 48
GlifName: slash
Width: 700
VWidth: 0
Flags: W
LayerCount: 2
Fore
SplineSet
117 -3 m 257,0,-1
 82 33 l 257,1,-1
 81 34 l 257,2,-1
 81 35 l 257,3,-1
 545 808 l 257,4,-1
 581 843 l 257,5,-1
 582 844 l 257,6,-1
 583 844 l 257,7,-1
 618 808 l 257,8,-1
 619 807 l 257,9,-1
 619 806 l 257,10,-1
 155 33 l 257,11,-1
 119 -2 l 257,12,-1
 118 -3 l 257,13,-1
 117 -3 l 257,0,-1
EndSplineSet
EndChar

StartChar: zero
Encoding: 49 48 49
GlifName: zero
Width: 700
VWidth: 0
Flags: W
LayerCount: 2
Fore
SplineSet
350 251 m 1280
313 287 m 1280
350 582 m 1280
387 546 m 1280
387 287 m 1280
81 571 m 1280
582 328 m 1280
545 364 m 1280
118 534 m 1280
118 505 m 1280
155 468 m 1280
582 299 m 1280
619 262 m 1280
81 468 m 1280
351 251 m 257,14,-1
 350 251 l 258,15,16
 349 251 349 251 349 252 c 258,17,-1
 313 287 l 257,18,-1
 313 288 l 257,19,-1
 313 545 l 258,20,21
 313 546 313 546 314 546 c 258,22,-1
 349 582 l 257,23,-1
 350 582 l 258,24,25
 351 582 351 582 351 581 c 258,26,-1
 387 546 l 257,27,-1
 387 545 l 257,28,-1
 387 288 l 257,29,-1
 387 287 l 257,30,-1
 351 251 l 257,14,-1
118 534 m 258,31,32
 117 534 117 534 117 535 c 258,33,-1
 81 570 l 257,34,-1
 81 571 l 258,35,36
 81 667 81 667 149 736 c 258,37,-1
 185 771 l 257,38,-1
 186 772 l 258,39,40
 254 840 254 840 350 840 c 256,41,42
 447 840 447 840 515 771 c 258,43,-1
 551 736 l 258,44,45
 619 667 619 667 619 571 c 258,46,-1
 619 365 l 258,47,48
 619 364 619 364 618 364 c 258,49,-1
 583 328 l 257,50,-1
 582 328 l 258,51,52
 581 328 581 328 581 329 c 258,53,-1
 545 364 l 257,54,-1
 545 365 l 257,55,-1
 545 571 l 258,56,57
 545 597 545 597 525.5 640 c 128,-1,58
 506 683 506 683 475 719 c 257,59,60
 414 770 414 770 348 766 c 256,61,62
 266 761 266 761 204 711 c 257,63,64
 155 650 155 650 155 571 c 256,65,66
 155 570 155 570 154 570 c 258,67,-1
 119 534 l 257,68,-1
 118 534 l 258,31,32
117 505 m 257,69,-1
 118 505 l 258,70,71
 119 505 119 505 119 504 c 258,72,-1
 155 469 l 257,73,-1
 155 468 l 257,74,-1
 155 262 l 258,75,76
 155 180 155 180 206 117 c 257,77,78
 269 67 269 67 350 67 c 128,-1,79
 431 67 431 67 494 117 c 257,80,81
 545 181 545 181 545 262 c 257,82,-1
 546 263 l 257,83,-1
 581 298 l 257,84,-1
 582 299 l 258,85,86
 583 299 583 299 583 298 c 258,87,-1
 619 262 l 257,88,89
 619 165 619 165 551 97 c 258,90,-1
 515 62 l 257,91,-1
 514 61 l 258,92,93
 446 -7 446 -7 350 -7 c 128,-1,94
 254 -7 254 -7 185 61 c 258,95,-1
 150 96 l 257,96,-1
 149 97 l 258,97,98
 81 166 81 166 81 262 c 258,99,-1
 81 468 l 257,100,-1
 81 469 l 257,101,-1
 117 505 l 257,69,-1
EndSplineSet
EndChar

StartChar: one
Encoding: 50 49 50
GlifName: one
Width: 700
VWidth: 0
Flags: W
LayerCount: 2
Fore
SplineSet
118 65 m 1280
619 28 m 1280
582 -9 m 1280
81 28 m 1280
350 735 m 1280
387 698 m 1280
350 94 m 1280
313 131 m 1280
313 698 m 1280
81 28 m 258,9,10
 81 29 81 29 82 29 c 258,11,-1
 117 65 l 257,12,-1
 118 65 l 257,13,-1
 582 65 l 258,14,15
 583 65 583 65 583 64 c 258,16,-1
 619 29 l 257,17,-1
 619 28 l 258,18,19
 619 27 619 27 618 27 c 258,20,-1
 583 -9 l 257,21,-1
 582 -9 l 257,22,-1
 118 -9 l 258,23,24
 117 -9 117 -9 117 -8 c 258,25,-1
 81 27 l 257,26,-1
 81 28 l 258,9,10
117 507 m 257,27,-1
 82 542 l 257,28,-1
 81 543 l 258,29,30
 81 544 81 544 82 544 c 258,31,-1
 314 802 l 257,32,-1
 349 837 l 257,33,-1
 350 838 l 257,34,-1
 351 838 l 257,35,-1
 386 802 l 257,36,-1
 387 801 l 258,37,38
 387 800 387 800 386 800 c 258,39,-1
 155 542 l 257,40,-1
 119 507 l 257,41,-1
 118 507 l 257,42,-1
 117 507 l 257,27,-1
349 735 m 257,43,-1
 350 735 l 258,44,45
 351 735 351 735 351 734 c 258,46,-1
 387 699 l 257,47,-1
 387 698 l 257,48,-1
 387 131 l 258,49,50
 387 130 387 130 386 130 c 258,51,-1
 351 94 l 257,52,-1
 350 94 l 258,53,54
 349 94 349 94 349 95 c 258,55,-1
 313 130 l 257,56,-1
 313 131 l 257,57,-1
 313 698 l 257,58,-1
 313 699 l 257,59,-1
 349 735 l 257,43,-1
EndSplineSet
EndChar

StartChar: two
Encoding: 51 50 51
GlifName: two
Width: 700
VWidth: 0
Flags: W
LayerCount: 2
Fore
SplineSet
133 596 m 1280
582 559 m 1280
545 596 m 1280
170 559 m 1280
582 -8 m 1280
619 29 m 1280
170 559 m 258,6,7
 169 559 169 559 168 560 c 258,8,-1
 133 595 l 257,9,-1
 133 596 l 258,10,11
 133 682 133 682 193 742 c 258,12,-1
 229 778 l 257,13,-1
 230 779 l 258,14,15
 290 839 290 839 376 839 c 128,-1,16
 462 839 462 839 523 778 c 258,17,-1
 558 742 l 258,18,19
 619 682 619 682 619 596 c 256,20,21
 619 595 619 595 618 595 c 258,22,-1
 583 559 l 257,23,-1
 582 559 l 258,24,25
 581 559 581 559 581 560 c 258,26,-1
 545 595 l 257,27,-1
 545 596 l 258,28,29
 545 666 545 666 502 722 c 257,30,31
 446 765 446 765 375.5 765 c 128,-1,32
 305 765 305 765 250 722 c 257,33,34
 206 666 206 666 206 596 c 258,35,-1
 206 595 l 257,36,-1
 170 559 l 258,6,7
619 29 m 258,37,38
 619 28 619 28 618 28 c 258,39,-1
 583 -8 l 257,40,-1
 582 -8 l 257,41,-1
 118 -8 l 257,42,-1
 83 27 l 258,43,44
 82 28 82 28 81.5 28.5 c 258,45,-1
 81 29 l 257,46,47
 82 127 82 127 155 201 c 258,48,-1
 191 236 l 258,49,50
 234 280 234 280 346 346 c 128,-1,51
 458 412 458 412 501 450 c 256,52,53
 519 471 519 471 532 494 c 257,54,-1
 568 529 l 257,55,-1
 569 529 l 258,56,57
 570 530 570 530 570 529 c 258,58,-1
 605 494 l 257,59,-1
 606 493 l 257,60,-1
 606 492 l 257,61,62
 586 458 586 458 556 428 c 258,63,-1
 521 393 l 257,64,-1
 520 392 l 258,65,66
 472 345 472 345 361 279 c 128,-1,67
 250 213 250 213 211 180 c 257,68,69
 168 130 168 130 158 68 c 256,70,71
 158 67 158 67 158 66 c 257,72,-1
 582 66 l 258,73,74
 583 66 583 66 583 65 c 258,75,-1
 619 30 l 257,76,-1
 619 29 l 258,37,38
EndSplineSet
EndChar

StartChar: three
Encoding: 52 51 52
GlifName: three
Width: 700
VWidth: 0
Flags: W
LayerCount: 2
Fore
SplineSet
246 452 m 1280
117 246 m 1280
154 210 m 1280
209 415 m 1280
143 584 m 1280
180 620 m 1280
210 415 m 257,6,-1
 210 416 l 257,7,-1
 246 452 l 257,8,-1
 373 452 l 258,9,10
 375 452 375 452 376 452 c 256,11,12
 396 454 396 454 415 452 c 256,13,14
 481 445 481 445 529 397 c 258,15,-1
 564 362 l 258,16,17
 628 298 628 298 618 209 c 256,18,19
 611 142 611 142 563 93 c 258,20,-1
 527 58 l 257,21,-1
 526 57 l 258,22,23
 493 24 493 24 446.5 6.5 c 128,-1,24
 400 -11 400 -11 349 -8 c 256,25,26
 250 -4 250 -4 180 66 c 258,27,-1
 145 102 l 257,28,-1
 144 103 l 258,29,30
 99 148 99 148 81 208 c 256,31,32
 81 209 81 209 81 210 c 258,33,-1
 117 245 l 257,34,-1
 117 246 l 257,35,36
 118 246 118 246 119 245 c 258,37,-1
 154 210 l 257,38,-1
 154 209 l 257,39,40
 169 161 169 161 201 123 c 257,41,42
 266 69 266 69 350 65 c 256,43,44
 439 61 439 61 506 114 c 257,45,46
 539 156 539 156 545 209 c 256,47,48
 552 283 552 283 508 341 c 257,49,50
 466 373 466 373 414 378 c 256,51,52
 395 380 395 380 375 378 c 258,53,-1
 246 378 l 257,54,-1
 245 379 l 257,55,-1
 210 414 l 257,56,-1
 209 415 l 257,57,-1
 210 415 l 257,6,-1
180 620 m 257,58,-1
 144 585 l 258,59,60
 144 584 144 584 143 584 c 258,61,-1
 142 585 l 257,62,-1
 107 620 l 257,63,-1
 106 621 l 257,64,65
 122 688 122 688 170 735 c 258,66,-1
 205 771 l 258,67,68
 265 831 265 831 349 838 c 256,69,70
 400 843 400 843 447 826.5 c 128,-1,71
 494 810 494 810 527 776 c 258,72,-1
 563 741 l 257,73,-1
 564 740 l 258,74,75
 613 690 613 690 618 621 c 256,76,77
 624 543 624 543 569 488 c 258,78,-1
 534 453 l 258,79,80
 520 440 520 440 505 430 c 256,81,82
 504 429 504 429 503 430 c 258,83,-1
 467 466 l 258,84,85
 467 467 467 467 468 468 c 258,86,-1
 503 503 l 258,87,88
 508 506 508 506 512 509 c 256,89,90
 549 559 549 559 545 621 c 256,91,92
 540 676 540 676 506 720 c 257,93,94
 438 773 438 773 350 765 c 256,95,96
 280 758 280 758 225 714 c 257,97,98
 192 673 192 673 180 621 c 257,99,-1
 180 620 l 257,58,-1
EndSplineSet
EndChar

StartChar: four
Encoding: 53 52 53
GlifName: four
Width: 700
VWidth: 0
Flags: W
LayerCount: 2
Fore
SplineSet
272 65 m 1280
619 28 m 1280
582 -9 m 1280
236 28 m 1280
582 249 m 1280
619 286 m 1280
464 673 m 1280
428 -9 m 1280
390 28 m 1280
427 709 m 1280
236 28 m 258,10,11
 236 29 236 29 237 29 c 258,12,-1
 272 65 l 257,13,-1
 273 65 l 257,14,-1
 390 65 l 257,15,-1
 390 249 l 257,16,-1
 118 249 l 257,17,-1
 117 249 l 257,18,-1
 82 284 l 258,19,20
 82 285 82 285 81 286 c 258,21,-1
 391 802 l 257,22,-1
 426 837 l 257,23,-1
 427 838 l 257,24,-1
 428 838 l 257,25,-1
 463 802 l 257,26,-1
 464 801 l 257,27,-1
 464 800 l 257,28,-1
 186 336 l 258,29,30
 182 330 182 330 181 323 c 257,31,-1
 390 323 l 257,32,-1
 390 672 l 258,33,34
 390 673 390 673 391 673 c 258,35,-1
 427 709 l 258,36,37
 428 709 428 709 429 708 c 258,38,-1
 464 673 l 257,39,-1
 464 672 l 257,40,-1
 464 323 l 257,41,-1
 582 323 l 258,42,43
 583 323 583 323 583 322 c 258,44,-1
 619 286 l 258,45,46
 619 285 619 285 618 284 c 258,47,-1
 583 249 l 257,48,-1
 582 249 l 257,49,-1
 464 249 l 257,50,-1
 464 65 l 257,51,-1
 582 65 l 258,52,53
 583 65 583 65 583 64 c 258,54,-1
 619 29 l 257,55,-1
 619 28 l 258,56,57
 619 27 619 27 618 27 c 258,58,-1
 583 -9 l 257,59,-1
 582 -9 l 257,60,-1
 428 -9 l 257,61,-1
 427 -9 l 257,62,-1
 273 -9 l 258,63,64
 272 -9 272 -9 271 -8 c 258,65,-1
 236 27 l 257,66,-1
 236 28 l 258,10,11
EndSplineSet
EndChar

StartChar: five
Encoding: 54 53 54
GlifName: five
Width: 700
VWidth: 0
Flags: W
LayerCount: 2
Fore
SplineSet
115 244 m 1280
152 208 m 1280
244 837 m 1280
616 800 m 1280
579 763 m 1280
207 800 m 1280
141 837 m 257,6,-1
 142 837 l 257,7,-1
 177 801 l 257,8,-1
 178 800 l 257,9,-1
 155 528 l 257,10,-1
 373 528 l 258,11,12
 388 526 388 526 402 523 c 256,13,14
 469 508 469 508 517 460 c 258,15,-1
 552 425 l 257,16,-1
 553 424 l 258,17,18
 581 396 581 396 598 361 c 128,-1,19
 615 326 615 326 620 287 c 128,-1,20
 625 248 625 248 616 207 c 256,21,22
 602 142 602 142 554 95 c 258,23,-1
 519 60 l 257,24,-1
 518 59 l 258,25,26
 447 -11 447 -11 347 -10 c 256,27,28
 248 -9 248 -9 177 62 c 258,29,-1
 142 97 l 257,30,-1
 141 98 l 258,31,32
 95 144 95 144 78 207 c 256,33,34
 78 208 78 208 79 208 c 258,35,-1
 114 244 l 257,36,-1
 115 244 l 257,37,-1
 116 244 l 257,38,-1
 152 208 l 257,39,40
 165 158 165 158 198 118 c 257,41,42
 263 65 263 65 347 64 c 256,43,44
 432 63 432 63 498 116 c 257,45,46
 531 156 531 156 542 208 c 256,47,48
 554 261 554 261 541.5 312 c 128,-1,49
 529 363 529 363 496 404 c 257,50,51
 454 438 454 438 402 449 c 256,52,53
 389 452 389 452 375 454 c 256,54,55
 373 454 373 454 371 454 c 258,56,-1
 116 454 l 258,57,58
 114 454 114 454 114 455 c 258,59,-1
 78 491 l 257,60,-1
 104 800 l 257,61,-1
 104 801 l 257,62,-1
 140 836 l 257,63,-1
 141 837 l 257,6,-1
207 800 m 258,64,65
 207 801 207 801 208 801 c 258,66,-1
 243 837 l 257,67,-1
 244 837 l 257,68,-1
 579 837 l 258,69,70
 580 837 580 837 580 836 c 258,71,-1
 616 801 l 257,72,-1
 616 800 l 258,73,74
 616 799 616 799 615 799 c 258,75,-1
 580 763 l 257,76,-1
 579 763 l 257,77,-1
 244 763 l 258,78,79
 243 763 243 763 243 764 c 258,80,-1
 207 799 l 257,81,-1
 207 800 l 258,64,65
EndSplineSet
EndChar

StartChar: six
Encoding: 55 54 55
GlifName: six
Width: 700
VWidth: 0
Flags: W
LayerCount: 2
Fore
SplineSet
401 66 m 1280
365 28 m 1280
365 29 m 257,2,-1
 365 30 l 257,3,-1
 401 65 l 257,4,-1
 401 66 l 257,5,6
 488 106 488 106 494 111 c 256,7,8
 547 176 547 176 545 261 c 256,9,10
 544 342 544 342 493 405 c 257,11,12
 430 455 430 455 350 456 c 256,13,14
 269 456 269 456 205 405 c 257,15,16
 174.383 367.179 174.383 367.179 162.507 322.871 c 257,17,18
 169.526 285.931 169.526 285.931 183 250 c 256,19,20
 213 170 213 170 269 108 c 256,21,22
 296 84 296 84 325 65 c 257,23,-1
 360 30 l 257,24,-1
 361 29 l 257,25,-1
 361 28 l 257,26,-1
 326 -7 l 257,27,-1
 325 -8 l 258,28,29
 324 -8 324 -8 323 -8 c 256,30,31
 283 18 283 18 249 52 c 258,32,-1
 214 88 l 257,33,-1
 213 89 l 258,34,35
 153.327 148.673 153.327 148.673 119.781 224.781 c 257,36,-1
 119 224 l 257,37,-1
 118 224 l 258,38,39
 117 224 117 224 117 225 c 258,40,-1
 81 260 l 257,41,-1
 81 261 l 258,42,43
 81 293.995 81 293.995 88.9837 323.635 c 257,44,45
 80.493 368.353 80.493 368.353 81 415 c 256,46,47
 83 504 83 504 117.5 585 c 128,-1,48
 152 666 152 666 214 728 c 258,49,-1
 249 763 l 258,50,51
 294 808 294 808 349 839 c 256,52,53
 351 839 351 839 351 838 c 258,54,-1
 387 803 l 258,55,56
 387 801 387 801 386 801 c 258,57,-1
 351 765 l 257,58,59
 307 741 307 741 270 707 c 257,60,61
 216 648 216 648 186 572.5 c 256,62,63
 159.061 504.702 159.061 504.702 155.506 431.663 c 257,64,-1
 185 462 l 258,65,66
 253 530 253 530 350 529 c 256,67,68
 446 529 446 529 514 461 c 258,69,-1
 549 425 l 258,70,71
 617 357 617 357 619 261 c 256,72,73
 621 161 621 161 550 90 c 258,74,-1
 514 54 l 258,75,76
 467 7 467 7 402 -8 c 257,77,-1
 401 -8 l 257,78,-1
 365 28 l 257,79,-1
 365 29 l 257,2,-1
EndSplineSet
EndChar

StartChar: seven
Encoding: 56 55 56
GlifName: seven
Width: 700
VWidth: 0
Flags: W
LayerCount: 2
Fore
SplineSet
124 838 m 1280
522 801 m 1280
486 764 m 1280
88 801 m 1280
575 838 m 1280
612 801 m 1280
88 28 m 1280
125 -9 m 1280
88 801 m 258,8,9
 88 802 88 802 89 802 c 258,10,-1
 124 838 l 257,11,-1
 125 838 l 257,12,-1
 485 838 l 258,13,14
 486 838 486 838 487 837 c 258,15,-1
 522 802 l 257,16,-1
 522 801 l 258,17,18
 522 800 522 800 521 800 c 258,19,-1
 486 764 l 257,20,-1
 485 764 l 257,21,-1
 125 764 l 258,22,23
 124 764 124 764 123 765 c 258,24,-1
 88 800 l 257,25,-1
 88 801 l 258,8,9
391 418 m 258,26,-1
 392 419 l 257,27,-1
 392 420 l 257,28,29
 500 528 500 528 543 593 c 257,30,-1
 508 558 l 257,31,-1
 472 593 l 257,32,33
 431 533 431 533 309 410 c 257,34,-1
 308 410 l 257,35,-1
 308 409 l 257,36,37
 200 301 200 301 157 236 c 257,38,-1
 192 271 l 257,39,-1
 228 236 l 257,40,41
 269 296 269 296 391 418 c 258,26,-1
125 -9 m 258,42,43
 124 -9 124 -9 123 -8 c 258,44,-1
 88 27 l 257,45,-1
 88 28 l 258,46,47
 88 133 88 133 157 236 c 257,48,-1
 192 200 l 257,49,-1
 228 236 l 257,50,51
 161 134 161 134 161 28 c 258,52,-1
 161 27 l 257,53,-1
 125 -9 l 258,42,43
472 593 m 257,54,55
 539 695 539 695 539 801 c 258,56,-1
 539 802 l 257,57,-1
 575 838 l 258,58,59
 576 838 576 838 577 837 c 258,60,-1
 612 802 l 257,61,-1
 612 801 l 258,62,63
 612 696 612 696 543 593 c 257,64,-1
 508 629 l 257,65,-1
 472 593 l 257,54,55
EndSplineSet
EndChar

StartChar: eight
Encoding: 57 56 57
GlifName: eight
Width: 700
VWidth: 0
Flags: W
LayerCount: 2
Fore
SplineSet
351 446 m 1280
387 409 m 1280
582 266 m 257,2,-1
 583 265 l 257,3,-1
 618 230 l 257,4,-1
 619 229 l 257,5,6
 606 150 606 150 550 94 c 258,7,-1
 515 58 l 257,8,-1
 514 58 l 257,9,10
 445 -10 445 -10 350 -14 c 256,11,12
 343 -14 343 -14 336 -14 c 256,13,14
 240 -13 240 -13 175 52 c 258,15,-1
 139 88 l 258,16,17
 80 147 80 147 81 229 c 256,18,19
 82 250 82 250 86 270 c 256,20,21
 99 322 99 322 137 360 c 258,22,-1
 172 396 l 258,23,24
 187.197 410.303 187.197 410.303 205.191 421.809 c 257,25,26
 192.444 430.556 192.444 430.556 182 441 c 258,27,-1
 147 477 l 257,28,-1
 146 477 l 257,29,-1
 146 478 l 257,30,31
 131 493 131 493 120 512 c 256,32,33
 119 513 119 513 121 514 c 258,34,-1
 156 549 l 258,35,36
 157 550 157 550 158 548 c 258,37,-1
 193 513 l 258,38,39
 198 506 198 506 203 498 c 256,40,41
 235 475 235 475 287 462 c 256,42,43
 334.078 450.231 334.078 450.231 375.008 445.428 c 257,44,45
 433.116 447.674 433.116 447.674 481 484 c 257,46,47
 517 531 517 531 519 590 c 256,48,49
 520 595 520 595 519 600 c 256,50,51
 519 665 519 665 479 716 c 257,52,53
 422 760 422 760 350 759 c 256,54,55
 280 758 280 758 225 715 c 257,56,57
 182 660 182 660 181 590 c 256,58,59
 181 589 181 589 180 589 c 258,60,-1
 145 554 l 258,61,62
 145 553 145 553 144 553 c 258,63,-1
 143 553 l 257,64,-1
 108 588 l 258,65,66
 108 589 108 589 107 589 c 257,67,68
 108 675 108 675 169 736 c 258,69,-1
 204 771 l 258,70,71
 265 831 265 831 350 833 c 256,72,73
 438 834 438 834 500 772 c 258,74,-1
 535 737 l 257,75,-1
 536 736 l 258,76,77
 592 679 592 679 593 601 c 256,78,79
 593 595 593 595 593 590 c 256,80,81
 593 586 593 586 592 582 c 256,82,83
 587 512 587 512 537 463 c 258,84,-1
 502 428 l 257,85,-1
 501 427 l 258,86,87
 496.411 422.484 496.411 422.484 491.69 418.334 c 257,88,89
 531.429 402.571 531.429 402.571 557 377 c 258,90,-1
 592 342 l 257,91,-1
 593 341 l 258,92,93
 608 326 608 326 619 307 c 256,94,95
 619 306 619 306 618 305 c 258,96,-1
 583 270 l 258,97,98
 581 269 581 269 581 270 c 258,99,-1
 545 305 l 258,100,101
 541 313 541 313 536 320 c 256,102,103
 503 344 503 344 451.5 357 c 256,104,105
 413.366 366.626 413.366 366.626 378.795 371.592 c 256,106,107
 364.749 370.827 364.749 370.827 350 372 c 256,108,109
 305 382 305 382 265 373 c 128,-1,110
 225 364 225 364 193 339 c 257,111,112
 169 308 169 308 160 269 c 256,113,114
 155 250 155 250 155 229 c 256,115,116
 154 162 154 162 196 108 c 257,117,118
 257 60 257 60 336 59 c 256,119,120
 343 59 343 59 350 60 c 256,121,122
 431 63 431 63 494 114 c 257,123,124
 535 165 535 165 545 229 c 257,125,-1
 545 230 l 257,126,-1
 581 265 l 258,127,128
 581 266 581 266 581.5 266 c 258,129,-1
 582 266 l 257,2,-1
EndSplineSet
EndChar

StartChar: nine
Encoding: 58 57 58
GlifName: nine
Width: 700
VWidth: 0
Flags: W
LayerCount: 2
Fore
SplineSet
299 762 m 1280
335 799 m 1280
335 799 m 258,2,3
 335 798 335 798 335 797 c 258,4,-1
 299 762 l 257,5,6
 248 750 248 750 206 716 c 257,7,8
 153 651 153 651 155 567 c 256,9,10
 156 486 156 486 207 422 c 257,11,12
 270 372 270 372 350 371 c 256,13,14
 431 371 431 371 495 422 c 257,15,16
 525.565 459.757 525.565 459.757 537.453 504.339 c 257,17,18
 530.436 541.171 530.436 541.171 517 577 c 256,19,20
 487 657 487 657 431 719 c 256,21,22
 404 743 404 743 375 762 c 257,23,-1
 340 797 l 257,24,-1
 339 798 l 257,25,-1
 339 799 l 257,26,-1
 374 835 l 257,27,-1
 375 835 l 258,28,29
 376 835 376 835 377 835 c 256,30,31
 417 809 417 809 451 775 c 258,32,-1
 486 740 l 257,33,-1
 487 739 l 258,34,35
 546.83 679.17 546.83 679.17 580.395 602.395 c 257,36,-1
 581 603 l 257,37,-1
 582 603 l 257,38,-1
 583 603 l 257,39,-1
 619 567 l 257,40,41
 619 533.594 619 533.594 610.982 503.673 c 257,42,43
 619.508 458.74 619.508 458.74 619 412 c 256,44,45
 617 323 617 323 582.5 242 c 128,-1,46
 548 161 548 161 486 100 c 258,47,-1
 451 64 l 258,48,49
 406 19 406 19 351 -11 c 256,50,51
 349 -12 349 -12 349 -11 c 258,52,-1
 313 25 l 258,53,54
 313 26 313 26 314 27 c 258,55,-1
 349 62 l 257,56,57
 393 86 393 86 430 120 c 257,58,59
 484 180 484 180 514 255 c 256,60,61
 540.938 322.346 540.938 322.346 544.494 395.337 c 257,62,-1
 515 365 l 258,63,64
 447 297 447 297 350 298 c 256,65,66
 254 298 254 298 186 367 c 258,67,-1
 151 402 l 258,68,69
 83 470 83 470 81 567 c 256,70,71
 79 667 79 667 150 737 c 258,72,-1
 186 773 l 258,73,74
 233 820 233 820 298 835 c 257,75,-1
 299 835 l 257,76,-1
 335 799 l 258,2,3
EndSplineSet
EndChar

StartChar: colon
Encoding: 59 58 59
GlifName: colon
Width: 700
VWidth: 0
Flags: W
LayerCount: 2
Fore
SplineSet
350 442 m 1280
387 406 m 1280
350 343 m 1280
313 379 m 1280
313 406 m 1280
387 122 m 1280
350 59 m 1280
313 96 m 1280
350 159 m 1280
349 442 m 257,9,-1
 350 442 l 258,10,11
 351 442 351 442 351 441 c 258,12,-1
 387 406 l 257,13,-1
 387 405 l 257,14,-1
 387 379 l 257,15,-1
 386 378 l 257,16,-1
 351 343 l 257,17,-1
 350 343 l 257,18,-1
 349 343 l 257,19,-1
 313 379 l 257,20,-1
 313 405 l 257,21,-1
 313 406 l 257,22,-1
 349 442 l 257,9,-1
350 159 m 258,23,24
 351 159 351 159 351 158 c 258,25,-1
 387 122 l 257,26,-1
 387 96 l 258,27,28
 387 95 387 95 386 95 c 258,29,-1
 351 59 l 257,30,-1
 350 59 l 258,31,32
 349 59 349 59 349 60 c 258,33,-1
 313 95 l 257,34,-1
 313 96 l 257,35,-1
 313 122 l 257,36,-1
 314 123 l 257,37,-1
 349 158 l 257,38,-1
 350 159 l 258,23,24
EndSplineSet
EndChar

StartChar: semicolon
Encoding: 60 59 60
GlifName: semicolon
Width: 700
VWidth: 0
Flags: W
LayerCount: 2
Fore
SplineSet
339 398 m 1280
375 461 m 1280
413 424 m 1280
376 361 m 1280
287 63 m 1280
324 100 m 1280
376 361 m 258,6,7
 375 361 375 361 375 362 c 258,8,-1
 339 397 l 257,9,-1
 339 398 l 257,10,-1
 339 424 l 257,11,-1
 340 425 l 257,12,-1
 375 460 l 257,13,-1
 375 461 l 257,14,-1
 376 461 l 257,15,-1
 377 460 l 257,16,-1
 412 424 l 257,17,-1
 413 424 l 257,18,-1
 413 398 l 258,19,20
 413 397 413 397 412 397 c 258,21,-1
 376 361 l 258,6,7
323 -128 m 257,22,-1
 288 -93 l 257,23,-1
 287 -92 l 257,24,-1
 288 -91 l 257,25,26
 326 -40 326 -40 336 24 c 257,27,-1
 336 26 l 257,28,-1
 324 26 l 257,29,-1
 323 27 l 257,30,-1
 288 62 l 257,31,-1
 287 63 l 258,32,33
 287 64 287 64 288 64 c 258,34,-1
 324 100 l 257,35,-1
 375 100 l 257,36,-1
 377 99 l 257,37,-1
 413 63 l 257,38,39
 413 -23 413 -23 361 -93 c 257,40,-1
 325 -128 l 257,41,-1
 324 -128 l 257,42,-1
 323 -128 l 257,22,-1
EndSplineSet
EndChar

StartChar: less
Encoding: 61 60 61
GlifName: less
Width: 700
VWidth: 0
Flags: W
LayerCount: 2
Fore
SplineSet
619 604 m 258,0,1
 619 603 619 603 618 602 c 258,2,-1
 583 567 l 257,3,-1
 191 349 l 258,4,5
 191 346 191 346 191 342 c 258,6,-1
 583 125 l 257,7,-1
 618 89 l 257,8,-1
 619 89 l 257,9,10
 619 88 619 88 619 87 c 258,11,-1
 583 52 l 257,12,-1
 582 51 l 257,13,-1
 581 51 l 257,14,-1
 117 309 l 258,15,16
 115 311 115 311 81 345 c 256,17,18
 81 346 81 346 82 347 c 258,19,-1
 117 383 l 257,20,-1
 581 640 l 258,21,22
 583 641 583 641 583 640 c 258,23,-1
 619 604 l 258,0,1
EndSplineSet
EndChar

StartChar: equal
Encoding: 62 61 62
GlifName: equal
Width: 700
VWidth: 0
Flags: W
LayerCount: 2
Fore
SplineSet
531 416 m 1280
133 453 m 1280
169 490 m 1280
567 453 m 1280
567 453 m 1280
169 335 m 1280
567 299 m 1280
531 262 m 1280
133 298 m 1280
531 416 m 257,9,-1
 530 416 l 257,10,-1
 170 416 l 258,11,12
 169 416 169 416 168 417 c 258,13,-1
 133 452 l 257,14,-1
 133 453 l 258,15,16
 133 454 133 454 134 454 c 258,17,-1
 169 490 l 257,18,-1
 170 490 l 257,19,-1
 530 490 l 258,20,21
 531 490 531 490 532 489 c 258,22,-1
 567 454 l 257,23,-1
 567 453 l 257,24,-1
 567 452 l 257,25,-1
 531 416 l 257,9,-1
133 298 m 258,26,27
 133 299 133 299 134 300 c 258,28,-1
 169 335 l 257,29,-1
 170 335 l 257,30,-1
 530 335 l 258,31,32
 531 335 531 335 532 334 c 258,33,-1
 567 299 l 257,34,-1
 567 298 l 257,35,-1
 566 297 l 257,36,-1
 531 262 l 257,37,-1
 530 262 l 257,38,-1
 170 262 l 258,39,40
 169 262 169 262 168 262 c 258,41,-1
 133 298 l 258,26,27
EndSplineSet
EndChar

StartChar: greater
Encoding: 63 62 63
GlifName: greater
Width: 700
VWidth: 0
Flags: W
LayerCount: 2
Fore
SplineSet
81 626 m 257,0,-1
 117 662 l 257,1,-1
 118 662 l 258,2,3
 119 663 119 663 119 662 c 258,4,-1
 583 405 l 257,5,-1
 618 369 l 257,6,-1
 619 368 l 257,7,-1
 619 367 l 258,8,9
 616 365 616 365 583 331 c 257,10,-1
 119 74 l 258,11,12
 117 73 117 73 117 74 c 258,13,-1
 81 110 l 258,14,15
 81 111 81 111 82 112 c 258,16,-1
 117 147 l 257,17,-1
 509 364 l 258,18,19
 509 368 509 368 509 372 c 258,20,-1
 117 589 l 257,21,-1
 82 624 l 257,22,-1
 81 625 l 257,23,-1
 81 626 l 257,0,-1
EndSplineSet
EndChar

StartChar: question
Encoding: 64 63 64
GlifName: question
Width: 700
VWidth: 0
Flags: W
LayerCount: 2
Fore
SplineSet
274 30 m 1280
311 93 m 1280
348 56 m 1280
312 -7 m 1280
570 531 m 1280
312 199 m 1280
274 236 m 1280
348 236 m 1280
311 -7 m 257,8,-1
 310 -6 l 257,9,-1
 275 30 l 257,10,-1
 274 30 l 257,11,-1
 274 56 l 258,12,13
 274 57 274 57 275 57 c 258,14,-1
 311 93 l 258,15,16
 312 93 312 93 313 92 c 258,17,-1
 348 57 l 257,18,-1
 348 56 l 257,19,-1
 348 30 l 257,20,-1
 347 29 l 257,21,-1
 312 -6 l 257,22,-1
 312 -7 l 257,23,-1
 311 -7 l 257,8,-1
118 560 m 257,24,-1
 117 561 l 257,25,-1
 82 596 l 257,26,-1
 81 597 l 257,27,28
 91 678 91 678 149 736 c 258,29,-1
 184 772 l 258,30,31
 253 840 253 840 350 840 c 128,-1,32
 447 840 447 840 516 772 c 258,33,-1
 551 736 l 257,34,-1
 552 735 l 258,35,36
 609 678 609 678 619 597 c 257,37,-1
 618 596 l 257,38,-1
 583 561 l 257,39,-1
 582 560 l 258,40,41
 581 560 581 560 581 561 c 258,42,-1
 545 596 l 257,43,-1
 545 597 l 257,44,45
 537 663 537 663 495 715 c 257,46,47
 432 766 432 766 350 766 c 128,-1,48
 268 766 268 766 205 715 c 257,49,50
 163 663 163 663 155 597 c 257,51,-1
 155 596 l 257,52,-1
 119 561 l 258,53,54
 119 560 119 560 118.5 560 c 258,55,-1
 118 560 l 257,24,-1
312 200 m 257,56,-1
 312 199 l 257,57,-1
 311 199 l 257,58,-1
 310 200 l 257,59,-1
 275 236 l 257,60,-1
 274 236 l 257,61,62
 274 277 274 277 297 305 c 256,63,64
 305 316 305 316 316 327 c 258,65,-1
 351 362 l 258,66,67
 376 387 376 387 439 421.5 c 128,-1,68
 502 456 502 456 523 471 c 256,69,70
 524 473 524 473 525 475 c 256,71,72
 530 485 530 485 533 496 c 257,73,-1
 568 531 l 258,74,75
 569 531 569 531 570 531 c 258,76,-1
 605 495 l 258,77,78
 606 495 606 495 606 494 c 256,79,80
 602 484 602 484 596 475 c 256,81,82
 585 449 585 449 564 428 c 258,83,-1
 528 393 l 258,84,85
 501 365 501 365 435.5 334 c 256,86,87
 385.365 310.272 385.365 310.272 361.887 294.746 c 257,88,89
 348 268.498 348 268.498 348 236 c 257,90,-1
 312 200 l 257,56,-1
EndSplineSet
EndChar

StartChar: at
Encoding: 65 64 65
GlifName: at
Width: 700
VWidth: 0
Flags: W
LayerCount: 2
Fore
SplineSet
155 373 m 1280
118 410 m 1280
516 425 m 1280
118 413 m 1280
81 450 m 1280
479 461 m 1280
376 387 m 1280
413 167 m 1280
376 130 m 1280
413 425 m 1280
118 410 m 258,10,11
 119 410 119 410 119 409 c 258,12,-1
 155 373 l 257,13,14
 155 263 155 263 195 160.5 c 128,-1,15
 235 58 235 58 308 -21 c 257,16,17
 363 -71 363 -71 428 -106 c 257,18,-1
 463 -141 l 257,19,-1
 464 -142 l 257,20,-1
 464 -143 l 257,21,-1
 429 -179 l 257,22,-1
 428 -179 l 257,23,-1
 427 -179 l 257,24,25
 350 -138 350 -138 288 -77 c 258,26,-1
 253 -41 l 258,27,28
 171 41 171 41 126 148 c 128,-1,29
 81 255 81 255 81 373 c 257,30,-1
 82 374 l 257,31,-1
 117 409 l 257,32,-1
 118 410 l 258,10,11
479 461 m 258,33,34
 480 461 480 461 480 460 c 258,35,-1
 515 425 l 257,36,-1
 516 425 l 257,37,-1
 516 424 l 257,38,-1
 516 167 l 258,39,40
 516 160 516 160 517 154 c 257,41,42
 524 152 524 152 530.5 152 c 128,-1,43
 537 152 537 152 543 154 c 257,44,45
 545 160 545 160 545 167 c 258,46,-1
 545 450 l 258,47,48
 545 531 545 531 494 594 c 257,49,50
 431 645 431 645 350 645 c 128,-1,51
 269 645 269 645 206 594 c 257,52,53
 155 531 155 531 155 450 c 256,54,55
 155 449 155 449 154 449 c 258,56,-1
 119 413 l 257,57,-1
 118 413 l 258,58,59
 117 413 117 413 117 414 c 258,60,-1
 81 449 l 257,61,-1
 81 450 l 258,62,63
 81 547 81 547 149 615 c 258,64,-1
 185 650 l 257,65,-1
 186 651 l 258,66,67
 254 719 254 719 350 719 c 256,68,69
 447 719 447 719 515 650 c 258,70,-1
 551 615 l 258,71,72
 619 547 619 547 619 450 c 258,73,-1
 619 167 l 258,74,75
 619 144 619 144 603 129 c 258,76,-1
 568 93 l 258,77,78
 552 78 552 78 530.5 78 c 128,-1,79
 509 78 509 78 493 93 c 258,80,-1
 458 129 l 257,81,-1
 457 130 l 258,82,83
 442 145 442 145 442 167 c 258,84,-1
 442 424 l 258,85,86
 442 425 442 425 443 426 c 258,87,-1
 478 461 l 257,88,-1
 479 461 l 258,33,34
413 424 m 257,89,-1
 412 423 l 257,90,-1
 376 388 l 257,91,-1
 376 387 l 257,92,93
 337 387 337 387 305 366 c 257,94,95
 284 334 284 334 284 295.5 c 128,-1,96
 284 257 284 257 305 225 c 257,97,98
 337 203 337 203 376 203 c 258,99,-1
 377 203 l 257,100,-1
 412 167 l 257,101,-1
 413 167 l 257,102,103
 413 166 413 166 412 165 c 258,104,-1
 376 130 l 257,105,106
 322 130 322 130 283 168 c 258,107,-1
 248 204 l 258,108,109
 210 242 210 242 210 295.5 c 128,-1,110
 210 349 210 349 248 387 c 258,111,-1
 283 423 l 257,112,-1
 284 424 l 258,113,114
 323 461 323 461 376 461 c 257,115,-1
 377 460 l 257,116,-1
 412 425 l 257,117,-1
 413 425 l 257,118,-1
 413 424 l 257,89,-1
EndSplineSet
EndChar

StartChar: A
Encoding: 66 65 66
GlifName: A_
Width: 700
VWidth: 0
Flags: W
LayerCount: 2
Fore
SplineSet
247 329 m 1280
490 292 m 1280
453 255 m 1280
210 292 m 1280
545 34 m 1280
401 844 m 1280
438 808 m 1280
583 -2 m 1280
299 844 m 1280
155 34 m 1280
117 -2 m 1280
262 808 m 1280
582 -3 m 257,12,-1
 581 -2 l 257,13,-1
 546 33 l 257,14,-1
 545 34 l 257,15,16
 512.563 173.381 512.563 173.381 485.923 287.835 c 257,17,-1
 454 255 l 257,18,-1
 453 255 l 257,19,-1
 247 255 l 258,20,21
 246 255 246 255 246 256 c 258,22,-1
 213.95 287.159 l 257,23,-1
 155 34 l 257,24,-1
 154 33 l 257,25,-1
 119 -2 l 257,26,-1
 118 -3 l 257,27,-1
 117 -2 l 257,28,-1
 82 33 l 258,29,30
 81 34 81 34 81 35 c 258,31,-1
 262 808 l 257,32,-1
 297 844 l 258,33,34
 298 844 298 844 299 844 c 258,35,-1
 335 808 l 257,36,-1
 335 807 l 257,37,-1
 216.668 298.83 l 257,38,-1
 246 329 l 257,39,-1
 247 329 l 257,40,-1
 453 329 l 258,41,42
 454 329 454 329 454 328 c 258,43,-1
 483.177 299.634 l 257,44,45
 376.898 756.234 376.898 756.234 365 807 c 257,46,-1
 365 808 l 257,47,-1
 401 844 l 258,48,49
 402 844 402 844 403 844 c 258,50,-1
 438 808 l 257,51,-1
 619 35 l 258,52,53
 619 34 619 34 618 33 c 258,54,-1
 583 -2 l 258,55,56
 582 -2 582 -2 582 -3 c 257,12,-1
EndSplineSet
EndChar

StartChar: B
Encoding: 67 66 67
GlifName: B_
Width: 700
VWidth: 0
Flags: W
LayerCount: 2
Fore
SplineSet
221 451 m 1280
184 27 m 1280
221 64 m 1280
184 413 m 1280
221 837 m 1280
184 800 m 1280
155 801 m 1280
118 -10 m 1280
81 27 m 1280
118 837 m 1280
184 414 m 257,10,-1
 185 415 l 257,11,-1
 221 450 l 257,12,-1
 221 451 l 257,13,-1
 375 451 l 257,14,-1
 376 451 l 257,15,-1
 380.5 451 l 258,16,17
 383 451 383 451 385 451 c 128,-1,18
 387 451 387 451 388 451 c 256,19,20
 393.895 451 393.895 451 399.663 450.698 c 256,21,22
 457.533 453.359 457.533 453.359 505 490 c 257,23,24
 541 536 541 536 545 594 c 256,25,26
 545 601 545 601 545 607 c 256,27,28
 545 672 545 672 505 724 c 257,29,30
 454 764 454 764 388 764 c 256,31,32
 382 764 382 764 376 763 c 258,33,-1
 221 763 l 257,34,-1
 220 764 l 257,35,-1
 185 800 l 257,36,-1
 184 800 l 257,37,38
 184 801 184 801 185 802 c 258,39,-1
 221 837 l 257,40,-1
 375 837 l 258,41,42
 378 837 378 837 383 837.5 c 258,43,-1
 388 838 l 257,44,45
 469 838 469 838 526 781 c 258,46,-1
 561 745 l 257,47,-1
 562 744 l 258,48,49
 619 687 619 687 619 607 c 256,50,51
 619 601 619 601 618 594 c 256,52,53
 614 521 614 521 561 469 c 258,54,-1
 526 433 l 258,55,56
 515.211 422.211 515.211 422.211 503.635 413.481 c 257,57,58
 515.245 404.755 515.245 404.755 526 394 c 258,59,-1
 561 359 l 257,60,-1
 562 358 l 258,61,62
 619 301 619 301 619 221 c 256,63,64
 619 215 619 215 618 209 c 256,65,66
 614 135 614 135 562 83 c 258,67,-1
 527 48 l 257,68,-1
 526 47 l 258,69,70
 463 -15 463 -15 377 -10 c 256,71,72
 376 -10 376 -10 375 -10 c 258,73,-1
 221 -10 l 257,74,-1
 220 -9 l 257,75,-1
 185 27 l 257,76,-1
 184 27 l 257,77,78
 184 28 184 28 185 28 c 258,79,-1
 221 64 l 257,80,-1
 376 64 l 257,81,82
 448 59 448 59 505 103 c 257,83,84
 541 150 541 150 545 208 c 256,85,86
 545 214 545 214 545 221 c 256,87,88
 545 286 545 286 505 338 c 257,89,90
 458.78 373.345 458.78 373.345 400.24 376.657 c 256,91,92
 388.377 376.156 388.377 376.156 376 377 c 258,93,-1
 375 377 l 257,94,-1
 221 377 l 257,95,-1
 220 378 l 257,96,-1
 185 413 l 257,97,-1
 184 413 l 257,98,-1
 184 414 l 257,10,-1
118 837 m 258,99,100
 119 837 119 837 119 836 c 258,101,-1
 155 801 l 257,102,-1
 155 800 l 257,103,-1
 155 27 l 257,104,-1
 154 26 l 257,105,-1
 119 -9 l 257,106,-1
 118 -10 l 258,107,108
 117 -10 117 -10 117 -9 c 258,109,-1
 81 27 l 257,110,-1
 81 800 l 258,111,112
 81 801 81 801 82 802 c 258,113,-1
 117 837 l 257,114,-1
 118 837 l 258,99,100
EndSplineSet
EndChar

StartChar: C
Encoding: 68 67 68
GlifName: C_
Width: 700
VWidth: 0
Flags: W
LayerCount: 2
Fore
SplineSet
81 568 m 1280
582 531 m 1280
545 568 m 1280
118 531 m 1280
118 502 m 1280
155 465 m 1280
582 296 m 1280
619 259 m 1280
81 465 m 1280
118 531 m 258,9,10
 117 531 117 531 117 532 c 258,11,-1
 81 567 l 257,12,-1
 81 568 l 258,13,14
 81 665 81 665 149 733 c 258,15,-1
 185 768 l 257,16,-1
 186 769 l 258,17,18
 254 837 254 837 350 837 c 256,19,20
 447 837 447 837 515 768 c 258,21,-1
 551 733 l 258,22,23
 619 665 619 665 619 568 c 256,24,25
 619 567 619 567 618 567 c 258,26,-1
 583 531 l 257,27,-1
 582 531 l 258,28,29
 581 531 581 531 581 532 c 258,30,-1
 545 567 l 257,31,-1
 545 568 l 258,32,33
 545 649 545 649 494 712 c 257,34,35
 431 763 431 763 350 763 c 128,-1,36
 269 763 269 763 206 712 c 257,37,38
 155 649 155 649 155 568 c 256,39,40
 155 567 155 567 154 567 c 258,41,-1
 119 531 l 257,42,-1
 118 531 l 258,9,10
117 502 m 257,43,-1
 118 502 l 258,44,45
 119 502 119 502 119 501 c 258,46,-1
 155 466 l 257,47,-1
 155 465 l 257,48,-1
 155 259 l 258,49,50
 155 177 155 177 206 115 c 257,51,52
 269 64 269 64 350 64 c 128,-1,53
 431 64 431 64 494 115 c 257,54,55
 545 178 545 178 545 259 c 257,56,-1
 546 260 l 257,57,-1
 581 295 l 257,58,-1
 582 296 l 258,59,60
 583 296 583 296 583 295 c 258,61,-1
 619 259 l 257,62,63
 619 162 619 162 551 94 c 258,64,-1
 515 59 l 257,65,-1
 514 58 l 258,66,67
 446 -10 446 -10 350 -10 c 128,-1,68
 254 -10 254 -10 185 58 c 258,69,-1
 150 93 l 257,70,-1
 149 94 l 258,71,72
 81 163 81 163 81 259 c 258,73,-1
 81 465 l 257,74,-1
 81 466 l 257,75,-1
 117 502 l 257,43,-1
EndSplineSet
EndChar

StartChar: D
Encoding: 69 68 69
GlifName: D_
Width: 700
VWidth: 0
Flags: W
LayerCount: 2
Fore
SplineSet
155 802 m 1280
118 -8 m 1280
81 28 m 1280
118 838 m 1280
184 802 m 257,4,-1
 185 802 l 257,5,-1
 220 838 l 257,6,-1
 221 838 l 257,7,8
 366 828 366 828 469 726 c 258,9,-1
 505 690 l 257,10,-1
 506 689 l 258,11,12
 559 635 559 635 589 564.5 c 128,-1,13
 619 494 619 494 619 415 c 128,-1,14
 619 336 619 336 589 265 c 128,-1,15
 559 194 559 194 505 140 c 258,16,-1
 469 104 l 258,17,18
 366 2 366 2 221 -8 c 257,19,-1
 220 -8 l 257,20,-1
 185 28 l 257,21,-1
 184 28 l 257,22,23
 184 29 184 29 185 30 c 258,24,-1
 220 65 l 257,25,-1
 221 65 l 257,26,27
 351 74 351 74 449 160 c 257,28,29
 545 270 545 270 545 415 c 128,-1,30
 545 560 545 560 449 670 c 257,31,32
 351 756 351 756 221 765 c 257,33,-1
 220 765 l 257,34,-1
 185 800 l 257,35,-1
 185 801 l 257,36,-1
 184 802 l 257,4,-1
118 838 m 257,37,-1
 119 838 l 257,38,-1
 155 802 l 257,39,-1
 155 28 l 257,40,-1
 154 27 l 257,41,-1
 119 -8 l 257,42,-1
 118 -8 l 257,43,-1
 117 -8 l 257,44,-1
 81 28 l 257,45,-1
 81 802 l 257,46,-1
 82 803 l 257,47,-1
 117 838 l 257,48,-1
 118 838 l 257,37,-1
EndSplineSet
EndChar

StartChar: E
Encoding: 70 69 70
GlifName: E_
Width: 700
VWidth: 0
Flags: W
LayerCount: 2
Fore
SplineSet
582 -9 m 1280
184 27 m 1280
221 64 m 1280
619 28 m 1280
221 451 m 1280
619 414 m 1280
582 377 m 1280
184 414 m 1280
221 837 m 1280
619 801 m 1280
582 764 m 1280
184 800 m 1280
155 801 m 1280
118 -9 m 1280
81 27 m 1280
118 837 m 1280
619 27 m 257,16,-1
 618 26 l 257,17,-1
 583 -9 l 257,18,-1
 582 -9 l 257,19,-1
 221 -9 l 257,20,-1
 220 -9 l 257,21,-1
 185 27 l 257,22,-1
 184 27 l 257,23,24
 184 28 184 28 185 29 c 258,25,-1
 221 64 l 257,26,-1
 582 64 l 258,27,28
 583 64 583 64 583 63 c 258,29,-1
 619 28 l 257,30,-1
 619 27 l 257,16,-1
184 414 m 258,31,32
 184 415 184 415 185 415 c 258,33,-1
 221 451 l 257,34,-1
 582 451 l 258,35,36
 583 451 583 451 583 450 c 258,37,-1
 619 415 l 257,38,-1
 619 414 l 258,39,40
 619 413 619 413 618 413 c 258,41,-1
 583 377 l 257,42,-1
 582 377 l 257,43,-1
 221 377 l 257,44,-1
 220 378 l 257,45,-1
 185 413 l 257,46,-1
 184 414 l 258,31,32
184 801 m 257,47,-1
 185 802 l 257,48,-1
 221 837 l 257,49,-1
 582 837 l 257,50,-1
 583 837 l 257,51,-1
 619 801 l 258,52,53
 619 800 619 800 618 799 c 258,54,-1
 583 764 l 257,55,-1
 582 764 l 257,56,-1
 221 764 l 257,57,-1
 220 765 l 257,58,-1
 185 800 l 257,59,-1
 184 800 l 257,60,-1
 184 801 l 257,47,-1
118 837 m 257,61,-1
 119 837 l 257,62,-1
 155 801 l 257,63,-1
 155 27 l 257,64,-1
 154 26 l 257,65,-1
 119 -9 l 257,66,-1
 118 -9 l 257,67,-1
 117 -9 l 257,68,-1
 81 27 l 257,69,-1
 81 801 l 257,70,-1
 82 802 l 257,71,-1
 117 837 l 257,72,-1
 118 837 l 257,61,-1
EndSplineSet
Substitution2: "Single Substitution lookup 29 subtable" Emacron
Substitution2: "Single Substitution lookup 25 subtable" Emacron
Substitution2: "Single Substitution lookup 12 subtable" Emacron
Substitution2: "Single Substitution lookup 8 subtable" Emacron
EndChar

StartChar: F
Encoding: 71 70 71
GlifName: F_
Width: 700
VWidth: 0
Flags: W
LayerCount: 2
Fore
SplineSet
221 454 m 1280
619 418 m 1280
582 381 m 1280
184 417 m 1280
221 841 m 1280
619 804 m 1280
582 767 m 1280
184 804 m 1280
118 -6 m 1280
81 31 m 1280
118 841 m 1280
155 804 m 1280
155 31 m 1280
184 417 m 257,13,14
 184 418 184 418 185 419 c 258,15,-1
 221 454 l 257,16,-1
 582 454 l 258,17,18
 583 454 583 454 583 453 c 258,19,-1
 619 418 l 257,20,-1
 619 417 l 257,21,-1
 618 416 l 257,22,-1
 583 381 l 257,23,-1
 582 381 l 257,24,-1
 221 381 l 257,25,-1
 220 381 l 257,26,-1
 185 417 l 257,27,-1
 184 417 l 257,13,14
184 804 m 258,28,29
 184 805 184 805 185 805 c 258,30,-1
 221 841 l 257,31,-1
 582 841 l 258,32,33
 583 841 583 841 583 840 c 258,34,-1
 619 805 l 257,35,-1
 619 804 l 258,36,37
 619 803 619 803 618 803 c 258,38,-1
 583 767 l 257,39,-1
 582 767 l 257,40,-1
 221 767 l 257,41,-1
 220 768 l 257,42,-1
 185 803 l 257,43,-1
 184 804 l 258,28,29
119 -6 m 257,44,-1
 118 -6 l 258,45,46
 117 -6 117 -6 117 -5 c 258,47,-1
 81 30 l 257,48,-1
 81 31 l 257,49,-1
 81 804 l 258,50,51
 81 805 81 805 82 805 c 258,52,-1
 117 841 l 257,53,-1
 118 841 l 258,54,55
 119 841 119 841 119 840 c 258,56,-1
 155 805 l 257,57,-1
 155 804 l 257,58,-1
 155 31 l 257,59,-1
 155 30 l 257,60,-1
 119 -6 l 257,44,-1
EndSplineSet
EndChar

StartChar: G
Encoding: 72 71 72
GlifName: G_
Width: 700
VWidth: 0
Flags: W
LayerCount: 2
Fore
SplineSet
375 396 m 1280
619 360 m 1280
582 323 m 1280
339 359 m 1280
155 540 m 1280
479 396 m 1280
516 360 m 1280
118 577 m 1280
339 359 m 258,8,9
 339 360 339 360 340 361 c 258,10,-1
 375 396 l 257,11,-1
 376 396 l 257,12,-1
 478 396 l 257,13,-1
 479 396 l 257,14,-1
 582 396 l 258,15,16
 583 396 583 396 583 395 c 258,17,-1
 619 360 l 257,18,-1
 619 359 l 257,19,-1
 618 358 l 257,20,-1
 583 323 l 257,21,-1
 582 323 l 257,22,-1
 516 323 l 257,23,-1
 516 179 l 257,24,25
 506 119 506 119 464 77 c 258,26,-1
 429 41 l 258,27,28
 375 -12 375 -12 298.5 -12 c 128,-1,29
 222 -12 222 -12 168 41 c 258,30,-1
 133 77 l 257,31,-1
 132 78 l 258,32,33
 90 120 90 120 81 179 c 257,34,-1
 81 540 l 257,35,-1
 82 541 l 257,36,-1
 117 576 l 257,37,-1
 118 577 l 258,38,39
 119 577 119 577 119 576 c 258,40,-1
 155 540 l 257,41,-1
 155 182 l 258,42,43
 155 179 155 179 155 176 c 256,44,45
 163 133 163 133 189 98 c 257,46,47
 238 61 238 61 298.5 61 c 128,-1,48
 359 61 359 61 407 98 c 257,49,50
 434 133 434 133 442 176 c 256,51,52
 442 179 442 179 442 182 c 258,53,-1
 442 323 l 257,54,-1
 376 323 l 257,55,-1
 375 323 l 257,56,-1
 339 359 l 258,8,9
118 606 m 257,57,-1
 117 606 l 257,58,-1
 82 642 l 257,59,-1
 81 643 l 257,60,61
 90 703 90 703 133 745 c 258,62,-1
 168 781 l 258,63,64
 222 834 222 834 298.5 834 c 128,-1,65
 375 834 375 834 429 781 c 258,66,-1
 464 745 l 257,67,-1
 465 744 l 258,68,69
 507 702 507 702 516 643 c 256,70,71
 516 642 516 642 515 642 c 258,72,-1
 480 606 l 257,73,-1
 479 606 l 258,74,75
 478 606 478 606 478 607 c 258,76,-1
 442 642 l 257,77,-1
 442 643 l 257,78,79
 435 688 435 688 408 724 c 257,80,81
 359 761 359 761 298.5 761 c 128,-1,82
 238 761 238 761 189 724 c 257,83,84
 162 688 162 688 155 643 c 257,85,-1
 155 642 l 257,86,-1
 119 607 l 258,87,88
 119 606 119 606 118.5 606 c 258,89,-1
 118 606 l 257,57,-1
EndSplineSet
EndChar

StartChar: H
Encoding: 73 72 73
GlifName: H_
Width: 700
VWidth: 0
Flags: W
LayerCount: 2
Fore
SplineSet
221 457 m 1280
516 420 m 1280
479 383 m 1280
184 420 m 1280
545 33 m 1280
582 843 m 1280
619 807 m 1280
582 -3 m 1280
155 807 m 1280
118 -3 m 1280
81 33 m 1280
118 843 m 1280
184 420 m 258,12,13
 184 421 184 421 185 421 c 258,14,-1
 221 457 l 257,15,-1
 479 457 l 258,16,17
 480 457 480 457 480 456 c 258,18,-1
 515 421 l 257,19,-1
 516 420 l 258,20,21
 516 419 516 419 515 419 c 258,22,-1
 480 383 l 257,23,-1
 479 383 l 257,24,-1
 221 383 l 257,25,-1
 220 384 l 257,26,-1
 185 419 l 257,27,-1
 184 420 l 258,12,13
582 -3 m 257,28,-1
 581 -3 l 257,29,-1
 545 33 l 257,30,-1
 545 807 l 257,31,-1
 546 808 l 257,32,-1
 581 843 l 257,33,-1
 582 843 l 257,34,-1
 583 843 l 257,35,-1
 619 807 l 257,36,-1
 619 33 l 257,37,-1
 618 32 l 257,38,-1
 583 -3 l 257,39,-1
 582 -3 l 257,28,-1
118 843 m 257,40,-1
 119 843 l 257,41,-1
 155 807 l 257,42,-1
 155 33 l 257,43,-1
 154 32 l 257,44,-1
 119 -3 l 257,45,-1
 118 -3 l 257,46,-1
 117 -3 l 257,47,-1
 81 33 l 257,48,-1
 81 807 l 257,49,-1
 82 808 l 257,50,-1
 117 843 l 257,51,-1
 118 843 l 257,40,-1
EndSplineSet
EndChar

StartChar: I
Encoding: 74 73 74
GlifName: I_
Width: 700
VWidth: 0
Flags: W
LayerCount: 2
Fore
SplineSet
118 66 m 1280
619 29 m 1280
582 -8 m 1280
81 29 m 1280
118 839 m 1280
619 802 m 1280
582 765 m 1280
81 802 m 1280
350 736 m 1280
387 699 m 1280
350 95 m 1280
313 132 m 1280
313 699 m 1280
81 29 m 258,13,14
 81 30 81 30 82 30 c 258,15,-1
 117 66 l 257,16,-1
 118 66 l 257,17,-1
 582 66 l 258,18,19
 583 66 583 66 583 65 c 258,20,-1
 619 30 l 257,21,-1
 619 29 l 258,22,23
 619 28 619 28 618 28 c 258,24,-1
 583 -8 l 257,25,-1
 582 -8 l 257,26,-1
 118 -8 l 258,27,28
 117 -8 117 -8 117 -7 c 258,29,-1
 81 28 l 257,30,-1
 81 29 l 258,13,14
81 802 m 258,31,32
 81 803 81 803 82 803 c 258,33,-1
 117 839 l 257,34,-1
 118 839 l 257,35,-1
 582 839 l 258,36,37
 583 839 583 839 583 838 c 258,38,-1
 619 803 l 257,39,-1
 619 802 l 258,40,41
 619 801 619 801 618 801 c 258,42,-1
 583 765 l 257,43,-1
 582 765 l 257,44,-1
 118 765 l 258,45,46
 117 765 117 765 117 766 c 258,47,-1
 81 801 l 257,48,-1
 81 802 l 258,31,32
349 736 m 257,49,-1
 350 736 l 258,50,51
 351 736 351 736 351 735 c 258,52,-1
 387 700 l 257,53,-1
 387 699 l 257,54,-1
 387 132 l 258,55,56
 387 131 387 131 386 131 c 258,57,-1
 351 95 l 257,58,-1
 350 95 l 258,59,60
 349 95 349 95 349 96 c 258,61,-1
 313 131 l 257,62,-1
 313 132 l 257,63,-1
 313 699 l 257,64,-1
 313 700 l 257,65,-1
 349 736 l 257,49,-1
EndSplineSet
EndChar

StartChar: J
Encoding: 75 74 75
GlifName: J_
Width: 700
VWidth: 0
Flags: W
LayerCount: 2
Fore
SplineSet
582 759 m 1280
210 796 m 1280
247 833 m 1280
619 797 m 1280
155 255 m 1280
582 730 m 1280
619 693 m 1280
118 292 m 1280
619 796 m 257,8,-1
 618 795 l 257,9,-1
 583 760 l 257,10,-1
 582 759 l 257,11,-1
 247 759 l 258,12,13
 246 759 246 759 246 760 c 258,14,-1
 210 796 l 258,15,16
 210 797 210 797 211 797 c 258,17,-1
 246 833 l 257,18,-1
 247 833 l 257,19,-1
 582 833 l 258,20,21
 583 833 583 833 583 832 c 258,22,-1
 619 797 l 257,23,-1
 619 796 l 257,8,-1
118 292 m 258,24,25
 119 292 119 292 119 291 c 258,26,-1
 155 256 l 257,27,-1
 155 255 l 258,28,29
 155 174 155 174 206 111 c 257,30,31
 269 60 269 60 350 60 c 128,-1,32
 431 60 431 60 494 111 c 257,33,34
 545 174 545 174 545 255 c 258,35,-1
 545 693 l 258,36,37
 545 694 545 694 546 694 c 258,38,-1
 581 730 l 257,39,-1
 582 730 l 258,40,41
 583 730 583 730 583 729 c 258,42,-1
 619 694 l 257,43,-1
 619 693 l 257,44,-1
 619 255 l 258,45,46
 619 159 619 159 551 90 c 258,47,-1
 515 55 l 257,48,-1
 514 54 l 258,49,50
 446 -14 446 -14 350 -14 c 256,51,52
 253 -14 253 -14 185 55 c 258,53,-1
 149 90 l 258,54,55
 81 159 81 159 81 255 c 256,56,57
 81 256 81 256 82 256 c 258,58,-1
 117 292 l 257,59,-1
 118 292 l 258,24,25
EndSplineSet
EndChar

StartChar: K
Encoding: 76 75 76
GlifName: K_
Width: 700
VWidth: 0
Flags: W
LayerCount: 2
Fore
SplineSet
118 -4 m 1280
81 32 m 1280
118 842 m 1280
155 806 m 1280
155 32 m 1280
583 842 m 257,5,-1
 618 807 l 257,6,-1
 619 806 l 258,7,8
 619 805 619 805 618 805 c 258,9,-1
 279 441 l 258,10,11
 271 431 271 431 271 418 c 128,-1,12
 271 405 271 405 279 397 c 258,13,-1
 618 33 l 258,14,15
 619 33 619 33 619 32.5 c 128,-1,16
 619 32 619 32 618 31 c 258,17,-1
 583 -4 l 257,18,-1
 582 -4 l 257,19,-1
 581 -4 l 257,20,-1
 546 31 l 257,21,-1
 185 418 l 257,22,-1
 185 420 l 257,23,-1
 546 807 l 257,24,-1
 581 842 l 257,25,-1
 582 842 l 257,26,-1
 583 842 l 257,5,-1
119 -4 m 257,27,-1
 118 -4 l 257,28,-1
 117 -4 l 257,29,-1
 82 32 l 257,30,-1
 81 32 l 257,31,-1
 81 806 l 257,32,-1
 82 807 l 257,33,-1
 117 842 l 257,34,-1
 118 842 l 257,35,-1
 119 842 l 257,36,-1
 155 806 l 257,37,-1
 155 32 l 257,38,-1
 119 -4 l 257,27,-1
EndSplineSet
EndChar

StartChar: L
Encoding: 77 76 77
GlifName: L_
Width: 700
VWidth: 0
Flags: W
LayerCount: 2
Fore
SplineSet
413 803 m 1280
375 839 m 1280
184 29 m 258,2,3
 184 30 184 30 185 31 c 258,4,-1
 220 66 l 257,5,6
 304 115 304 115 401.5 115 c 128,-1,7
 499 115 499 115 583 66 c 257,8,-1
 618 31 l 257,9,-1
 619 30 l 257,10,-1
 619 29 l 257,11,-1
 583 -7 l 257,12,-1
 582 -7 l 257,13,-1
 581 -7 l 257,14,15
 498 41 498 41 401.5 41 c 128,-1,16
 305 41 305 41 222 -7 c 256,17,18
 221 -8 221 -8 220 -7 c 258,19,-1
 184 29 l 258,2,3
376 839 m 257,20,-1
 377 838 l 257,21,-1
 412 803 l 257,22,-1
 413 803 l 257,23,-1
 413 802 l 258,24,25
 413 593 413 593 346.5 394.5 c 128,-1,26
 280 196 280 196 155 28 c 257,27,-1
 119 -7 l 257,28,-1
 118 -7 l 257,29,-1
 117 -7 l 257,30,-1
 82 28 l 257,31,-1
 81 29 l 258,32,33
 81 30 81 30 82 30 c 256,34,35
 207 197 207 197 273 395.5 c 128,-1,36
 339 594 339 594 339 802 c 256,37,38
 339 803 339 803 340 804 c 258,39,-1
 375 839 l 257,40,-1
 376 839 l 257,20,-1
EndSplineSet
EndChar

StartChar: M
Encoding: 78 77 78
GlifName: M_
Width: 700
VWidth: 0
Flags: W
LayerCount: 2
Fore
SplineSet
335 799 m 1280
365 799 m 1280
402 835 m 1280
351 555 m 1280
313 591 m 1280
298 835 m 1280
118 -12 m 1280
298 835 m 257,7,8
 299 835 299 835 300 834 c 258,9,-1
 335 799 l 257,10,-1
 335 798 l 257,11,12
 349 743 349 743 350 740 c 257,13,-1
 365 798 l 257,14,-1
 365 799 l 257,15,-1
 400 834 l 258,16,17
 401 835 401 835 402 835 c 257,18,-1
 402 834 l 257,19,-1
 438 799 l 258,20,21
 439 798 439 798 438 798 c 258,22,-1
 387 592 l 258,23,24
 387 591 387 591 386 591 c 258,25,-1
 351 555 l 257,26,-1
 350 555 l 257,27,-1
 349 556 l 257,28,-1
 314 591 l 257,29,-1
 313 591 l 257,30,-1
 313 592 l 257,31,32
 266 781 266 781 262 798 c 256,33,34
 261 798 261 798 262 799 c 258,35,-1
 298 834 l 257,36,-1
 298 835 l 257,7,8
504 835 m 258,37,38
 505 835 505 835 506 834 c 258,39,-1
 541 799 l 257,40,-1
 541 798 l 257,41,-1
 619 25 l 257,42,-1
 618 24 l 257,43,-1
 583 -12 l 257,44,-1
 582 -12 l 258,45,46
 581 -12 581 -12 581 -11 c 258,47,-1
 545 24 l 257,48,-1
 545 25 l 257,49,-1
 468 798 l 257,50,-1
 468 799 l 257,51,-1
 504 835 l 258,37,38
196 835 m 257,52,-1
 232 799 l 257,53,-1
 232 798 l 257,54,-1
 155 25 l 257,55,-1
 155 24 l 257,56,-1
 119 -11 l 257,57,-1
 118 -12 l 257,58,-1
 117 -12 l 257,59,-1
 82 24 l 257,60,-1
 81 25 l 257,61,-1
 159 798 l 257,62,-1
 159 799 l 257,63,-1
 194 834 l 257,64,-1
 195 835 l 257,65,-1
 196 835 l 257,52,-1
EndSplineSet
EndChar

StartChar: N
Encoding: 79 78 79
GlifName: N_
Width: 700
VWidth: 0
Flags: W
LayerCount: 2
Fore
SplineSet
258 801 m 1280
480 -10 m 1280
442 26 m 1280
220 837 m 1280
619 800 m 1280
582 -10 m 1280
545 27 m 1280
582 837 m 1280
155 800 m 1280
118 -10 m 1280
81 27 m 1280
118 837 m 1280
221 837 m 258,12,13
 222 837 222 837 222 836 c 258,14,-1
 257 801 l 257,15,-1
 258 801 l 257,16,17
 494 92 494 92 516 27 c 257,18,-1
 515 26 l 257,19,-1
 480 -9 l 257,20,-1
 480 -10 l 257,21,-1
 479 -10 l 258,22,23
 478 -10 478 -10 478 -9 c 258,24,-1
 443 26 l 257,25,-1
 442 26 l 257,26,-1
 442 27 l 257,27,-1
 184 800 l 257,28,-1
 185 801 l 257,29,-1
 220 836 l 257,30,-1
 220 837 l 257,31,-1
 221 837 l 258,12,13
582 837 m 258,32,33
 583 837 583 837 583 836 c 258,34,-1
 619 801 l 257,35,-1
 619 800 l 257,36,-1
 619 27 l 258,37,38
 619 26 619 26 618 26 c 258,39,-1
 583 -10 l 257,40,-1
 582 -10 l 258,41,42
 581 -10 581 -10 581 -9 c 258,43,-1
 545 26 l 257,44,-1
 545 27 l 257,45,-1
 545 800 l 258,46,47
 545 801 545 801 546 801 c 258,48,-1
 581 837 l 257,49,-1
 582 837 l 258,32,33
118 837 m 258,50,51
 119 837 119 837 119 836 c 258,52,-1
 155 801 l 257,53,-1
 155 800 l 257,54,-1
 155 27 l 258,55,56
 155 26 155 26 154 26 c 258,57,-1
 119 -10 l 257,58,-1
 118 -10 l 258,59,60
 117 -10 117 -10 117 -9 c 258,61,-1
 81 26 l 257,62,-1
 81 27 l 257,63,-1
 81 800 l 258,64,65
 81 801 81 801 82 801 c 258,66,-1
 117 837 l 257,67,-1
 118 837 l 258,50,51
EndSplineSet
EndChar

StartChar: O
Encoding: 80 79 80
GlifName: O_
Width: 700
VWidth: 0
Flags: W
LayerCount: 2
Fore
SplineSet
81 567 m 1280
582 324 m 1280
545 360 m 1280
118 530 m 1280
118 501 m 1280
155 464 m 1280
582 295 m 1280
619 258 m 1280
81 464 m 1280
118 530 m 258,9,10
 117 530 117 530 117 531 c 258,11,-1
 81 566 l 257,12,-1
 81 567 l 258,13,14
 81 663 81 663 149 732 c 258,15,-1
 185 767 l 257,16,-1
 186 768 l 258,17,18
 254 836 254 836 350 836 c 256,19,20
 447 836 447 836 515 767 c 258,21,-1
 551 732 l 258,22,23
 619 663 619 663 619 567 c 258,24,-1
 619 361 l 258,25,26
 619 360 619 360 618 360 c 258,27,-1
 583 324 l 257,28,-1
 582 324 l 258,29,30
 581 324 581 324 581 325 c 258,31,-1
 545 360 l 257,32,-1
 545 361 l 257,33,-1
 545 567 l 258,34,35
 545 648 545 648 494 711 c 257,36,37
 431 762 431 762 350 762 c 128,-1,38
 269 762 269 762 206 711 c 257,39,40
 155 648 155 648 155 567 c 256,41,42
 155 566 155 566 154 566 c 258,43,-1
 119 530 l 257,44,-1
 118 530 l 258,9,10
117 501 m 257,45,-1
 118 501 l 258,46,47
 119 501 119 501 119 500 c 258,48,-1
 155 465 l 257,49,-1
 155 464 l 257,50,-1
 155 258 l 258,51,52
 155 176 155 176 206 113 c 257,53,54
 269 63 269 63 350 63 c 128,-1,55
 431 63 431 63 494 113 c 257,56,57
 545 177 545 177 545 258 c 257,58,-1
 546 259 l 257,59,-1
 581 294 l 257,60,-1
 582 295 l 258,61,62
 583 295 583 295 583 294 c 258,63,-1
 619 258 l 257,64,65
 619 161 619 161 551 93 c 258,66,-1
 515 58 l 257,67,-1
 514 57 l 258,68,69
 446 -11 446 -11 350 -11 c 128,-1,70
 254 -11 254 -11 185 57 c 258,71,-1
 150 92 l 257,72,-1
 149 93 l 258,73,74
 81 162 81 162 81 258 c 258,75,-1
 81 464 l 257,76,-1
 81 465 l 257,77,-1
 117 501 l 257,45,-1
EndSplineSet
EndChar

StartChar: P
Encoding: 81 80 81
GlifName: P_
Width: 700
VWidth: 0
Flags: W
LayerCount: 2
Fore
SplineSet
221 840 m 1280
184 417 m 1280
221 454 m 1280
184 803 m 1280
155 804 m 1280
118 -6 m 1280
81 30 m 1280
118 840 m 1280
184 804 m 257,8,-1
 185 805 l 257,9,-1
 221 840 l 257,10,-1
 375 840 l 258,11,12
 378 840 378 840 383 840.5 c 258,13,-1
 388 841 l 257,14,15
 469 841 469 841 526 784 c 258,16,-1
 561 749 l 257,17,-1
 562 748 l 258,18,19
 619 690 619 690 619 610 c 256,20,21
 619 604 619 604 618 598 c 256,22,23
 614 525 614 525 562 473 c 258,24,-1
 527 437 l 257,25,-1
 526 437 l 257,26,27
 463 375 463 375 377 380 c 256,28,29
 376 380 376 380 375 380 c 258,30,-1
 221 380 l 257,31,-1
 220 381 l 257,32,-1
 185 416 l 257,33,-1
 184 417 l 258,34,35
 184 418 184 418 185 418 c 258,36,-1
 221 454 l 257,37,-1
 376 454 l 257,38,39
 448 449 448 449 505 493 c 257,40,41
 541 540 541 540 545 598 c 256,42,43
 545 604 545 604 545 610 c 256,44,45
 545 676 545 676 505 727 c 257,46,47
 454 767 454 767 388 767 c 256,48,49
 382 767 382 767 376 767 c 258,50,-1
 221 767 l 257,51,-1
 220 768 l 257,52,-1
 185 803 l 257,53,-1
 184 803 l 257,54,-1
 184 804 l 257,8,-1
118 840 m 257,55,-1
 119 840 l 257,56,-1
 155 804 l 257,57,-1
 155 30 l 257,58,-1
 154 29 l 257,59,-1
 119 -6 l 257,60,-1
 118 -6 l 257,61,-1
 117 -6 l 257,62,-1
 81 30 l 257,63,-1
 81 804 l 257,64,-1
 82 805 l 257,65,-1
 117 840 l 257,66,-1
 118 840 l 257,55,-1
EndSplineSet
EndChar

StartChar: Q
Encoding: 82 81 82
GlifName: Q_
Width: 700
VWidth: 0
Flags: W
LayerCount: 2
Fore
SplineSet
81 567 m 1280
582 324 m 1280
545 360 m 1280
118 530 m 1280
118 501 m 1280
155 464 m 1280
582 295 m 1280
619 258 m 1280
81 464 m 1280
118 530 m 258,9,10
 117 530 117 530 117 531 c 258,11,-1
 81 566 l 257,12,-1
 81 567 l 258,13,14
 81 663 81 663 149 732 c 258,15,-1
 185 767 l 257,16,-1
 186 768 l 258,17,18
 254 836 254 836 350 836 c 256,19,20
 447 836 447 836 515 767 c 258,21,-1
 551 732 l 258,22,23
 619 663 619 663 619 567 c 258,24,-1
 619 361 l 258,25,26
 619 360 619 360 618 360 c 258,27,-1
 583 324 l 257,28,-1
 582 324 l 258,29,30
 581 324 581 324 581 325 c 258,31,-1
 545 360 l 257,32,-1
 545 361 l 257,33,-1
 545 567 l 258,34,35
 545 648 545 648 494 711 c 257,36,37
 431 762 431 762 350 762 c 128,-1,38
 269 762 269 762 206 711 c 257,39,40
 155 648 155 648 155 567 c 256,41,42
 155 566 155 566 154 566 c 258,43,-1
 119 530 l 257,44,-1
 118 530 l 258,9,10
117 501 m 257,45,-1
 118 501 l 258,46,47
 118.172 501 118.172 501 118.293 501 c 128,-1,48
 118.414 501 118.414 501 118.5 501 c 256,49,50
 119 501 119 501 119 500 c 258,51,-1
 155 465 l 257,52,-1
 433.253 77.97 l 257,53,54
 465.472 90.3587 465.472 90.3587 494 113 c 257,55,56
 545 177 545 177 545 258 c 257,57,-1
 546 259 l 257,58,-1
 581 294 l 257,59,-1
 582 295 l 258,60,61
 583 295 583 295 583 294 c 258,62,-1
 619 258 l 257,63,64
 619 161 619 161 551 93 c 258,65,-1
 515 58 l 257,66,-1
 514 57 l 258,67,68
 494.393 37.3928 494.393 37.3928 472.458 23.4391 c 257,69,-1
 618 -179 l 258,70,71
 619 -180 619 -180 619 -180.5 c 128,-1,72
 619 -181 619 -181 618 -182 c 258,73,-1
 583 -217 l 258,74,75
 582 -217 582 -217 581.5 -217 c 258,76,-1
 581 -217 l 257,77,-1
 545 -181 l 257,78,-1
 416.281 -1.96065 l 257,79,80
 385.001 -11 385.001 -11 350 -11 c 256,81,82
 254 -11 254 -11 185 57 c 258,83,-1
 150 92 l 257,84,-1
 149 93 l 258,85,86
 81 162 81 162 81 258 c 258,87,-1
 81 464 l 257,88,-1
 81 465 l 257,89,-1
 117 501 l 257,45,-1
369.066 63.7113 m 257,90,-1
 155 361.462 l 257,91,-1
 155 258 l 258,92,93
 155 176 155 176 206 113 c 257,94,95
 269 63 269 63 350 63 c 256,96,97
 359.661 63 359.661 63 369.066 63.7113 c 257,90,-1
EndSplineSet
EndChar

StartChar: R
Encoding: 83 82 83
GlifName: R_
Width: 700
VWidth: 0
Flags: W
LayerCount: 2
Fore
SplineSet
221 841 m 1280
184 804 m 1280
155 805 m 1280
118 -6 m 1280
81 31 m 1280
118 841 m 1280
184 804 m 257,6,7
 184 805 184 805 185 806 c 258,8,-1
 221 841 l 257,9,-1
 375 841 l 258,10,11
 378 841 378 841 383 841.5 c 258,12,-1
 388 842 l 257,13,14
 469 842 469 842 526 785 c 258,15,-1
 561 749 l 257,16,-1
 562 748 l 258,17,18
 619 691 619 691 619 611 c 256,19,20
 619 605 619 605 618 599 c 256,21,22
 614 526 614 526 562 474 c 258,23,-1
 527 438 l 257,24,-1
 526 437 l 258,25,26
 463 376 463 376 377 381 c 256,27,28
 376 381 376 381 375 381 c 258,29,-1
 302 381 l 257,30,31
 304 369 304 369 311 362 c 258,32,-1
 618 32 l 258,33,34
 619 32 619 32 619 31 c 128,-1,35
 619 30 619 30 618 30 c 258,36,-1
 583 -5 l 258,37,38
 583 -6 583 -6 582 -5.5 c 258,39,-1
 581 -5 l 257,40,-1
 545 30 l 257,41,-1
 185 417 l 258,42,43
 184 417 184 417 184 418 c 258,44,-1
 185 419 l 257,45,-1
 220 454 l 257,46,-1
 221 455 l 257,47,-1
 376 455 l 257,48,49
 448 450 448 450 505 494 c 257,50,51
 541 540 541 540 545 598 c 256,52,53
 545 605 545 605 545 611 c 256,54,55
 545 676 545 676 505 728 c 257,56,57
 454 768 454 768 388 768 c 256,58,59
 382 768 382 768 376 767 c 258,60,-1
 221 767 l 257,61,-1
 220 768 l 257,62,-1
 185 804 l 257,63,-1
 184 804 l 257,6,7
118 841 m 258,64,65
 119 841 119 841 119 840 c 258,66,-1
 155 805 l 257,67,-1
 155 804 l 257,68,-1
 155 31 l 257,69,-1
 154 30 l 257,70,-1
 119 -5 l 257,71,-1
 118 -6 l 258,72,73
 117 -6 117 -6 117 -5 c 258,74,-1
 81 31 l 257,75,-1
 81 804 l 258,76,77
 81 805 81 805 82 806 c 258,78,-1
 117 841 l 257,79,-1
 118 841 l 258,64,65
EndSplineSet
EndChar

StartChar: S
Encoding: 84 83 84
GlifName: S_
Width: 700
VWidth: 0
Flags: W
LayerCount: 2
Fore
SplineSet
583 158 m 258,0,-1
 618 123 l 257,1,-1
 619 122 l 258,2,3
 619 121 619 121 618 121 c 256,4,5
 611 112 611 112 603 104 c 258,6,-1
 568 69 l 257,7,-1
 567 68 l 258,8,9
 502 4 502 4 405 -7.5 c 128,-1,10
 308 -19 308 -19 221 21 c 256,11,12
 164 45 164 45 117 85 c 257,13,-1
 82 121 l 257,14,-1
 81 122 l 258,15,16
 81 123 81 123 82 123 c 258,17,-1
 117 158 l 257,18,-1
 118 159 l 257,19,-1
 119 158 l 257,20,21
 165 118 165 118 222 94 c 256,22,23
 304 57 304 57 394.5 65 c 128,-1,24
 485 73 485 73 549 127 c 257,25,-1
 581 158 l 257,26,-1
 582 159 l 258,27,28
 583 159 583 159 583 158 c 258,0,-1
117 648 m 258,29,30
 119 649 119 649 119 648 c 258,31,-1
 155 612 l 257,32,33
 170 585 170 585 192 560 c 257,34,35
 233 524 233 524 298 486 c 128,-1,36
 363 448 363 448 425.5 410 c 128,-1,37
 488 372 488 372 528 332 c 258,38,-1
 564 296 l 258,39,40
 597 263 597 263 619 226 c 256,41,42
 619 224 619 224 618 224 c 258,43,-1
 583 188 l 258,44,45
 581 187 581 187 581 189 c 258,46,-1
 545 224 l 257,47,48
 530 251 530 251 508 276 c 257,49,50
 467 312 467 312 402 350 c 128,-1,51
 337 388 337 388 274.5 426 c 128,-1,52
 212 464 212 464 172 505 c 258,53,-1
 136 540 l 258,54,55
 103 573 103 573 81 611 c 256,56,57
 81 612 81 612 82 613 c 258,58,-1
 117 648 l 258,29,30
618 714 m 258,59,-1
 583 678 l 257,60,-1
 582 678 l 257,61,-1
 581 678 l 257,62,63
 557 699 557 699 530 717 c 256,64,65
 439 775 439 775 333 774.5 c 128,-1,66
 227 774 227 774 152 711 c 257,67,-1
 119 678 l 257,68,-1
 118 678 l 257,69,-1
 117 678 l 257,70,-1
 82 713 l 257,71,-1
 81 714 l 258,72,73
 81 715 81 715 82 715 c 256,74,75
 89 725 89 725 97 733 c 258,76,-1
 133 768 l 258,77,78
 183 818 183 818 252.5 837 c 128,-1,79
 322 856 322 856 394.5 843 c 128,-1,80
 467 830 467 830 531 790 c 256,81,82
 559 773 559 773 583 751 c 258,83,-1
 618 716 l 257,84,-1
 619 715 l 258,85,86
 619 714 619 714 618 714 c 258,59,-1
EndSplineSet
EndChar

StartChar: T
Encoding: 85 84 85
GlifName: T_
Width: 700
VWidth: 0
Flags: W
LayerCount: 2
Fore
SplineSet
118 845 m 1280
619 808 m 1280
582 771 m 1280
81 808 m 1280
350 742 m 1280
387 705 m 1280
350 -2 m 1280
313 35 m 1280
313 705 m 1280
81 808 m 258,9,10
 81 809 81 809 82 809 c 258,11,-1
 117 845 l 257,12,-1
 118 845 l 257,13,-1
 582 845 l 258,14,15
 583 845 583 845 583 844 c 258,16,-1
 619 809 l 257,17,-1
 619 808 l 258,18,19
 619 807 619 807 618 807 c 258,20,-1
 583 771 l 257,21,-1
 582 771 l 257,22,-1
 118 771 l 258,23,24
 117 771 117 771 117 772 c 258,25,-1
 81 807 l 257,26,-1
 81 808 l 258,9,10
349 742 m 257,27,-1
 350 742 l 258,28,29
 351 742 351 742 351 741 c 258,30,-1
 387 706 l 257,31,-1
 387 705 l 257,32,-1
 387 35 l 258,33,34
 387 34 387 34 386 34 c 258,35,-1
 351 -2 l 257,36,-1
 350 -2 l 258,37,38
 349 -2 349 -2 349 -1 c 258,39,-1
 313 34 l 257,40,-1
 313 35 l 257,41,-1
 313 705 l 257,42,-1
 313 706 l 257,43,-1
 349 742 l 257,27,-1
EndSplineSet
EndChar

StartChar: U
Encoding: 86 85 86
GlifName: U_
Width: 700
VWidth: 0
Flags: W
LayerCount: 2
Fore
SplineSet
619 801 m 1280
582 325 m 1280
545 362 m 1280
582 837 m 1280
155 801 m 1280
582 296 m 1280
619 259 m 1280
118 837 m 1280
582 837 m 258,8,9
 583 837 583 837 583 836 c 258,10,-1
 619 801 l 257,11,-1
 619 800 l 257,12,-1
 619 362 l 258,13,14
 619 361 619 361 618 361 c 258,15,-1
 583 325 l 257,16,-1
 582 325 l 258,17,18
 581 325 581 325 581 326 c 258,19,-1
 545 361 l 257,20,-1
 545 362 l 257,21,-1
 545 800 l 258,22,23
 545 801 545 801 546 801 c 258,24,-1
 581 837 l 257,25,-1
 582 837 l 258,8,9
118 837 m 258,26,27
 119 837 119 837 119 836 c 258,28,-1
 155 801 l 257,29,-1
 155 800 l 257,30,-1
 155 259 l 258,31,32
 155 178 155 178 206 115 c 257,33,34
 269 64 269 64 350 64 c 128,-1,35
 431 64 431 64 494 115 c 257,36,37
 545 178 545 178 545 259 c 256,38,39
 545 260 545 260 546 260 c 258,40,-1
 581 296 l 257,41,-1
 582 296 l 258,42,43
 583 296 583 296 583 295 c 258,44,-1
 619 260 l 257,45,-1
 619 259 l 258,46,47
 619 163 619 163 551 94 c 258,48,-1
 515 59 l 257,49,-1
 514 58 l 258,50,51
 446 -10 446 -10 350 -10 c 128,-1,52
 254 -10 254 -10 185 58 c 258,53,-1
 150 94 l 257,54,-1
 149 95 l 258,55,56
 81 163 81 163 81 259 c 258,57,-1
 81 800 l 258,58,59
 81 801 81 801 82 801 c 258,60,-1
 117 837 l 257,61,-1
 118 837 l 258,26,27
EndSplineSet
EndChar

StartChar: V
Encoding: 87 86 87
GlifName: V_
Width: 700
VWidth: 0
Flags: W
LayerCount: 2
Fore
SplineSet
155 798 m 1280
299 -13 m 1280
262 24 m 1280
117 834 m 1280
401 -13 m 1280
545 798 m 1280
583 834 m 1280
438 24 m 1280
118 834 m 257,8,-1
 119 834 l 257,9,-1
 154 798 l 257,10,-1
 155 798 l 257,11,-1
 335 25 l 258,12,13
 335 24 335 24 335 23 c 258,14,-1
 299 -12 l 257,15,-1
 299 -13 l 257,16,17
 298 -12 298 -12 297 -12 c 258,18,-1
 262 23 l 257,19,-1
 262 24 l 257,20,-1
 81 797 l 258,21,22
 81 798 81 798 82 798 c 258,23,-1
 117 834 l 257,24,-1
 118 834 l 257,8,-1
438 24 m 257,25,-1
 438 23 l 257,26,-1
 403 -12 l 258,27,28
 402 -13 402 -13 401 -13 c 257,29,-1
 401 -12 l 257,30,-1
 365 23 l 258,31,32
 365 24 365 24 365 25 c 258,33,-1
 545 798 l 257,34,-1
 546 798 l 257,35,-1
 581 834 l 257,36,-1
 582 834 l 257,37,-1
 583 834 l 257,38,-1
 618 798 l 258,39,40
 619 798 619 798 619 797 c 258,41,-1
 438 24 l 257,25,-1
EndSplineSet
EndChar

StartChar: W
Encoding: 88 87 88
GlifName: W_
Width: 700
VWidth: 0
Flags: W
LayerCount: 2
Fore
SplineSet
298 -4 m 1280
313 291 m 1280
351 327 m 1280
402 -4 m 1280
365 32 m 1280
335 32 m 1280
582 843 m 1280
335 32 m 257,7,-1
 300 -3 l 258,8,9
 299 -4 299 -4 298 -4 c 258,10,-1
 262 32 l 257,11,-1
 262 33 l 257,12,-1
 313 291 l 257,13,-1
 314 291 l 257,14,-1
 349 327 l 257,15,-1
 350 327 l 257,16,-1
 351 327 l 257,17,-1
 386 292 l 258,18,19
 386 291 386 291 387 291 c 258,20,-1
 438 33 l 257,21,-1
 438 32 l 257,22,-1
 402 -4 l 258,23,24
 401 -4 401 -4 400 -3 c 258,25,-1
 365 32 l 257,26,27
 351 103 351 103 350 106 c 257,28,-1
 335 32 l 257,7,-1
118 843 m 258,29,30
 119 843 119 843 119 842 c 258,31,-1
 155 807 l 257,32,-1
 155 806 l 257,33,-1
 232 33 l 257,34,-1
 232 32 l 257,35,-1
 196 -4 l 258,36,37
 195 -4 195 -4 194 -3 c 258,38,-1
 159 32 l 257,39,-1
 159 33 l 257,40,-1
 81 806 l 257,41,-1
 82 807 l 257,42,-1
 117 842 l 257,43,-1
 118 843 l 258,29,30
504 -4 m 257,44,-1
 468 32 l 257,45,-1
 468 33 l 257,46,-1
 545 806 l 257,47,-1
 545 807 l 257,48,-1
 581 842 l 257,49,-1
 582 843 l 257,50,-1
 583 842 l 257,51,-1
 618 807 l 257,52,-1
 619 806 l 257,53,-1
 541 33 l 257,54,-1
 541 32 l 257,55,-1
 506 -3 l 257,56,-1
 505 -4 l 257,57,-1
 504 -4 l 257,44,-1
EndSplineSet
EndChar

StartChar: X
Encoding: 89 88 89
GlifName: X_
Width: 700
VWidth: 0
Flags: W
LayerCount: 2
Fore
SplineSet
117 -3 m 257,0,-1
 82 33 l 257,1,-1
 81 34 l 257,2,-1
 82 35 l 257,3,-1
 288 292 l 257,4,-1
 323 328 l 257,5,-1
 324 328 l 257,6,-1
 325 328 l 257,7,-1
 361 293 l 257,8,-1
 361 292 l 258,9,10
 361 291 361 291 361 290 c 258,11,-1
 155 33 l 257,12,-1
 119 -3 l 257,13,-1
 118 -3 l 257,14,-1
 117 -3 l 257,0,-1
117 843 m 258,15,16
 119 844 119 844 119 843 c 258,17,-1
 155 808 l 257,18,-1
 619 34 l 258,19,20
 619 33 619 33 618 32 c 258,21,-1
 583 -3 l 258,22,23
 581 -4 581 -4 581 -2 c 258,24,-1
 545 33 l 257,25,-1
 81 806 l 258,26,27
 81 807 81 807 82 808 c 258,28,-1
 117 843 l 258,15,16
583 843 m 257,29,-1
 618 808 l 257,30,-1
 619 807 l 258,31,32
 619 806 619 806 618 806 c 258,33,-1
 412 548 l 257,34,-1
 377 513 l 257,35,-1
 376 512 l 258,36,37
 375 512 375 512 375 513 c 258,38,-1
 339 548 l 257,39,-1
 339 549 l 257,40,-1
 339 550 l 257,41,-1
 545 808 l 257,42,-1
 581 843 l 257,43,-1
 582 844 l 257,44,-1
 583 843 l 257,29,-1
EndSplineSet
EndChar

StartChar: Y
Encoding: 90 89 90
GlifName: Y_
Width: 700
VWidth: 0
Flags: W
LayerCount: 2
Fore
SplineSet
350 -6 m 1280
313 30 m 1280
117 840 m 258,2,3
 119 841 119 841 119 840 c 258,4,-1
 155 804 l 257,5,-1
 360.158 393.683 l 257,6,-1
 545 804 l 257,7,-1
 581 840 l 258,8,9
 582 841 582 841 583 840 c 258,10,-1
 618 805 l 257,11,-1
 619 804 l 257,12,-1
 619 803 l 257,13,-1
 390 294 l 258,14,15
 387 288 387 288 387 281 c 258,16,-1
 387 31 l 258,17,18
 387 30 387 30 386 29 c 258,19,-1
 351 -6 l 257,20,-1
 350 -6 l 258,21,22
 349 -6 349 -6 349 -5 c 258,23,-1
 313 30 l 257,24,-1
 313 31 l 257,25,-1
 313 289 l 257,26,-1
 357.269 387.269 l 257,27,-1
 325 355 l 258,28,29
 324 354 324 354 323 355 c 258,30,-1
 288 391 l 257,31,-1
 81 803 l 258,32,33
 81 804 81 804 82 805 c 258,34,-1
 117 840 l 258,2,3
EndSplineSet
EndChar

StartChar: Z
Encoding: 91 90 91
GlifName: Z_
Width: 700
VWidth: 0
Flags: W
LayerCount: 2
Fore
SplineSet
221 65 m 1280
619 28 m 1280
582 -9 m 1280
184 28 m 1280
118 838 m 1280
516 801 m 1280
479 764 m 1280
81 801 m 1280
184 28 m 258,8,9
 184 29 184 29 185 29 c 258,10,-1
 221 65 l 257,11,-1
 582 65 l 258,12,13
 583 65 583 65 583 64 c 258,14,-1
 619 29 l 257,15,-1
 619 28 l 258,16,17
 619 27 619 27 618 27 c 258,18,-1
 583 -9 l 257,19,-1
 582 -9 l 257,20,-1
 221 -9 l 257,21,-1
 220 -8 l 257,22,-1
 185 27 l 257,23,-1
 184 28 l 258,8,9
81 801 m 258,24,25
 81 802 81 802 82 802 c 258,26,-1
 117 838 l 257,27,-1
 118 838 l 257,28,-1
 479 838 l 258,29,30
 480 838 480 838 480 837 c 258,31,-1
 515 802 l 257,32,-1
 516 801 l 258,33,34
 516 800 516 800 515 800 c 258,35,-1
 480 764 l 257,36,-1
 479 764 l 257,37,-1
 118 764 l 258,38,39
 117 764 117 764 117 765 c 258,40,-1
 81 800 l 257,41,-1
 81 801 l 258,24,25
583 838 m 257,42,-1
 618 802 l 257,43,-1
 619 801 l 257,44,-1
 619 800 l 257,45,-1
 155 27 l 257,46,-1
 119 -8 l 257,47,-1
 118 -9 l 257,48,-1
 117 -9 l 257,49,-1
 82 27 l 257,50,-1
 81 28 l 257,51,-1
 81 29 l 257,52,-1
 545 802 l 257,53,-1
 581 837 l 257,54,-1
 582 838 l 257,55,-1
 583 838 l 257,42,-1
EndSplineSet
EndChar

StartChar: bracketleft
Encoding: 92 91 92
GlifName: bracketleft
Width: 700
VWidth: 0
Flags: W
LayerCount: 2
Fore
SplineSet
324 65 m 1280
516 28 m 1280
479 -9 m 1280
287 28 m 1280
324 838 m 1280
516 801 m 1280
479 764 m 1280
287 801 m 1280
258 801 m 1280
221 -9 m 1280
184 28 m 1280
221 838 m 1280
287 28 m 258,12,13
 287 29 287 29 288 29 c 258,14,-1
 324 65 l 257,15,-1
 479 65 l 257,16,-1
 480 64 l 257,17,-1
 515 29 l 257,18,-1
 516 28 l 258,19,20
 516 27 516 27 515 27 c 258,21,-1
 480 -9 l 257,22,-1
 479 -9 l 257,23,-1
 324 -9 l 257,24,-1
 323 -8 l 257,25,-1
 288 27 l 257,26,-1
 287 28 l 258,12,13
287 801 m 258,27,28
 287 802 287 802 288 802 c 258,29,-1
 324 838 l 257,30,-1
 479 838 l 257,31,-1
 480 837 l 257,32,-1
 515 802 l 257,33,-1
 516 801 l 258,34,35
 516 800 516 800 515 800 c 258,36,-1
 480 764 l 257,37,-1
 479 764 l 257,38,-1
 324 764 l 257,39,-1
 323 765 l 257,40,-1
 288 800 l 257,41,-1
 287 801 l 258,27,28
221 838 m 258,42,43
 222 838 222 838 222 837 c 258,44,-1
 258 802 l 257,45,-1
 258 801 l 257,46,-1
 258 28 l 258,47,48
 258 27 258 27 257 27 c 258,49,-1
 222 -9 l 257,50,-1
 221 -9 l 257,51,-1
 220 -8 l 257,52,-1
 185 27 l 257,53,-1
 184 28 l 257,54,-1
 184 801 l 258,55,56
 184 802 184 802 185 802 c 258,57,-1
 220 838 l 257,58,-1
 221 838 l 258,42,43
EndSplineSet
EndChar

StartChar: backslash
Encoding: 93 92 93
GlifName: backslash
Width: 700
VWidth: 0
Flags: W
LayerCount: 2
Fore
SplineSet
583 -1 m 258,0,1
 581 -2 581 -2 581 0 c 258,2,-1
 545 35 l 257,3,-1
 81 808 l 258,4,5
 81 809 81 809 82 810 c 258,6,-1
 117 846 l 258,7,8
 119 846 119 846 119 845 c 258,9,-1
 155 810 l 257,10,-1
 619 37 l 258,11,12
 619 35 619 35 618 35 c 258,13,-1
 583 -1 l 258,0,1
EndSplineSet
EndChar

StartChar: bracketright
Encoding: 94 93 94
GlifName: bracketright
Width: 700
VWidth: 0
Flags: W
LayerCount: 2
Fore
SplineSet
376 -8 m 1280
184 29 m 1280
221 66 m 1280
413 29 m 1280
376 765 m 1280
184 802 m 1280
221 839 m 1280
413 802 m 1280
516 802 m 1280
479 -8 m 1280
442 29 m 1280
479 839 m 1280
413 29 m 258,12,13
 413 28 413 28 412 28 c 258,14,-1
 376 -8 l 257,15,-1
 221 -8 l 257,16,-1
 220 -7 l 257,17,-1
 185 28 l 257,18,-1
 184 29 l 258,19,20
 184 30 184 30 185 30 c 258,21,-1
 220 66 l 257,22,-1
 221 66 l 257,23,-1
 376 66 l 257,24,-1
 377 65 l 257,25,-1
 412 30 l 257,26,-1
 413 29 l 258,12,13
413 802 m 258,27,28
 413 801 413 801 412 801 c 258,29,-1
 376 765 l 257,30,-1
 221 765 l 257,31,-1
 220 766 l 257,32,-1
 185 801 l 257,33,-1
 184 802 l 258,34,35
 184 803 184 803 185 803 c 258,36,-1
 220 839 l 257,37,-1
 221 839 l 257,38,-1
 376 839 l 257,39,-1
 377 838 l 257,40,-1
 412 803 l 257,41,-1
 413 802 l 258,27,28
479 839 m 257,42,-1
 480 838 l 257,43,-1
 515 803 l 257,44,-1
 516 802 l 257,45,-1
 516 29 l 258,46,47
 516 28 516 28 515 28 c 258,48,-1
 480 -8 l 257,49,-1
 479 -8 l 258,50,51
 478 -8 478 -8 478 -7 c 258,52,-1
 442 28 l 257,53,-1
 442 29 l 257,54,-1
 442 802 l 258,55,56
 442 803 442 803 443 803 c 258,57,-1
 478 839 l 257,58,-1
 479 839 l 257,42,-1
EndSplineSet
EndChar

StartChar: asciicircum
Encoding: 95 94 95
GlifName: asciicircum
Width: 700
VWidth: 0
Flags: W
LayerCount: 2
Fore
SplineSet
81 615 m 257,0,-1
 81.5 615.5 l 258,1,2
 82 616 82 616 82 617 c 258,3,-1
 117 652 l 257,4,-1
 349 807 l 258,5,6
 350 807 350 807 351 807 c 258,7,-1
 583 652 l 257,8,-1
 618 617 l 257,9,-1
 619 616 l 257,10,-1
 619 615 l 257,11,-1
 583 579 l 257,12,-1
 582 579 l 257,13,-1
 581 579 l 257,14,-1
 368 721 l 258,15,16
 350 733 350 733 332 721 c 258,17,-1
 119 579 l 257,18,-1
 118 579 l 257,19,-1
 117 579 l 257,20,-1
 81 615 l 257,0,-1
EndSplineSet
EndChar

StartChar: underscore
Encoding: 96 95 96
GlifName: underscore
Width: 700
VWidth: 0
Flags: W
LayerCount: 2
Fore
SplineSet
118 14 m 1280
619 -23 m 1280
582 -60 m 1280
81 -23 m 1280
81 -23 m 258,4,5
 81 -22 81 -22 82 -22 c 258,6,-1
 117 14 l 257,7,-1
 118 14 l 257,8,-1
 582 14 l 258,9,10
 583 14 583 14 583 13 c 258,11,-1
 619 -22 l 257,12,-1
 619 -23 l 258,13,14
 619 -24 619 -24 618 -24 c 258,15,-1
 583 -60 l 257,16,-1
 582 -60 l 257,17,-1
 118 -60 l 258,18,19
 117 -60 117 -60 117 -59 c 258,20,-1
 81 -24 l 257,21,-1
 81 -23 l 258,4,5
EndSplineSet
EndChar

StartChar: grave
Encoding: 97 96 97
GlifName: grave
Width: 700
VWidth: 0
Flags: W
LayerCount: 2
Fore
SplineSet
81 773 m 1280
583 654 m 1280
619 616 m 1280
117 735 m 1280
117 735 m 257,4,-1
 117 736 l 257,5,-1
 82 771 l 257,6,-1
 81 772 l 257,7,-1
 81 773 l 257,8,-1
 82 773 l 257,9,-1
 117 808 l 258,10,11
 118 809 118 809 119 809 c 258,12,-1
 582 654 l 257,13,-1
 583 654 l 257,14,-1
 618 618 l 257,15,-1
 619 617 l 257,16,-1
 619 616 l 257,17,-1
 618 616 l 257,18,-1
 583 581 l 258,19,20
 582 580 582 580 581 581 c 258,21,-1
 118 735 l 257,22,-1
 117 735 l 257,4,-1
EndSplineSet
EndChar

StartChar: a
Encoding: 98 97 98
GlifName: a
Width: 700
VWidth: 0
Flags: W
LayerCount: 2
Fore
SplineSet
647 23 m 1280
146 576 m 1280
110 539 m 1280
97 152 m 256,3,4
 97 207 97 207 135 245 c 258,5,-1
 171 280 l 257,6,-1
 171 281 l 257,7,8
 210 319 210 319 264 319 c 256,9,10
 270 319 270 319 276 318 c 256,11,12
 322 314 322 314 355 281 c 258,13,-1
 378.139 257.861 l 257,14,15
 371.751 273.094 371.751 273.094 363 294 c 256,16,17
 345 337 345 337 334.5 360.5 c 128,-1,18
 324 384 324 384 306 415.5 c 256,19,20
 290.515 442.599 290.515 442.599 275.029 461.928 c 257,21,22
 219.402 502 219.402 502 147 502 c 256,23,24
 146 502 146 502 145 503 c 258,25,-1
 110 538 l 257,26,-1
 110 539 l 258,27,28
 110 540 110 540 111 540 c 258,29,-1
 146 576 l 257,30,-1
 147 576 l 258,31,32
 225 576 225 576 279 530 c 256,33,34
 292 520 292 520 304 508 c 258,35,-1
 305 507 l 257,36,-1
 340 472 l 258,37,38
 363 449 363 449 384 417 c 128,-1,39
 405 385 405 385 421 352.5 c 128,-1,40
 437 320 437 320 454 282.5 c 128,-1,41
 471 245 471 245 485.5 212.5 c 128,-1,42
 500 180 500 180 520 146 c 128,-1,43
 540 112 540 112 560 87 c 256,44,45
 570 79 570 79 580 73 c 256,46,47
 595 65 595 65 612 60 c 257,48,-1
 647 25 l 258,49,50
 647 24 647 24 647 23 c 258,51,-1
 612 -13 l 257,52,-1
 611 -13 l 257,53,54
 595 -7 595 -7 580 2 c 256,55,56
 546 19 546 19 517 48 c 258,57,-1
 482 83 l 258,58,59
 454.52 110.48 454.52 110.48 428.024 155.33 c 257,60,61
 428.03 153.672 428.03 153.672 428 152 c 256,62,63
 428 98 428 98 390 60 c 258,64,-1
 354 25 l 257,65,-1
 353 24 l 258,66,67
 315 -13 315 -13 262 -13 c 256,68,69
 208 -13 208 -13 170 25 c 258,70,-1
 135 60 l 258,71,72
 97 99 97 99 97 152 c 256,3,4
168 152 m 256,73,74
 167 113 167 113 190 80 c 257,75,76
 223 57 223 57 262 57 c 256,77,78
 302 58 302 58 335 80 c 257,79,80
 357 112 357 112 357.5 152 c 128,-1,81
 358 192 358 192 335 226 c 257,82,83
 308 244 308 244 276 247 c 256,84,85
 270 248 270 248 264 248 c 256,86,87
 224 248 224 248 190 226 c 257,88,89
 168 193 168 193 168 152 c 256,73,74
EndSplineSet
EndChar

StartChar: b
Encoding: 99 98 99
GlifName: b
Width: 700
VWidth: 0
Flags: W
LayerCount: 2
Fore
SplineSet
155 801 m 1280
118 -9 m 1280
81 27 m 1280
81 801 m 1280
118 838 m 258,4,5
 119 838 119 838 119 837 c 258,6,-1
 155 801 l 257,7,-1
 155 473.626 l 257,8,9
 158.902 477.902 158.902 477.902 163 482 c 258,10,-1
 199 517 l 258,11,12
 263 582 263 582 350 582 c 256,13,14
 436 582 436 582 501 518 c 257,15,-1
 501 517 l 257,16,-1
 537 482 l 258,17,18
 561 457 561 457 579 426 c 128,-1,19
 597 395 597 395 606.5 359 c 128,-1,20
 616 323 616 323 616 285.5 c 128,-1,21
 616 248 616 248 606.5 212 c 128,-1,22
 597 176 597 176 579 144.5 c 128,-1,23
 561 113 561 113 537 89 c 258,24,-1
 501 53 l 258,25,26
 437 -11 437 -11 350 -11 c 256,27,28
 264 -11 264 -11 199 52 c 257,29,-1
 199 53 l 257,30,-1
 163 89 l 258,31,32
 158.902 93.0981 158.902 93.0981 155 97.3742 c 257,33,-1
 155 28 l 258,34,35
 155 27 155 27 154 26 c 258,36,-1
 119 -9 l 257,37,-1
 118 -9 l 258,38,39
 117 -9 117 -9 117 -8 c 258,40,-1
 81 27 l 257,41,-1
 81 28 l 257,42,-1
 81 801 l 257,43,-1
 117 837 l 257,44,-1
 118 838 l 258,4,5
217 107 m 257,45,46
 276 59 276 59 350 59 c 128,-1,47
 424 59 424 59 483 107 c 257,48,49
 545 184 545 184 545 285.5 c 128,-1,50
 545 387 545 387 483 463 c 257,51,52
 424 511 424 511 350 511 c 128,-1,53
 276 511 276 511 217 463 c 257,54,55
 155 387 155 387 155 285.5 c 128,-1,56
 155 184 155 184 217 107 c 257,45,46
  PathStart: -1
EndSplineSet
EndChar

StartChar: c
Encoding: 100 99 100
GlifName: c
Width: 700
VWidth: 0
Flags: W
LayerCount: 2
Fore
SplineSet
618 467 m 258,0,-1
 583 432 l 257,1,-1
 581 432 l 257,2,3
 533 479 533 479 473.5 501 c 128,-1,4
 414 523 414 523 350 514 c 256,5,6
 275 503 275 503 216 454 c 257,7,8
 155 381 155 381 155 288 c 128,-1,9
 155 195 155 195 216 122 c 257,10,11
 275 73 275 73 350 62 c 256,12,13
 392 56 392 56 434.5 64.5 c 128,-1,14
 477 73 477 73 514 93.5 c 128,-1,15
 551 114 551 114 581 144 c 257,16,-1
 582 144 l 257,17,-1
 583 144 l 257,18,-1
 618 109 l 257,19,-1
 619 108 l 258,20,21
 619 107 619 107 618 107 c 258,22,-1
 583 71 l 257,23,-1
 582 70 l 258,24,25
 551 39 551 39 513 19 c 128,-1,26
 475 -1 475 -1 433 -9 c 128,-1,27
 391 -17 391 -17 350 -11 c 256,28,29
 260 1 260 1 195 66 c 258,30,-1
 160 102 l 258,31,32
 81 180 81 180 81 288 c 128,-1,33
 81 396 81 396 160 474 c 258,34,-1
 195 510 l 257,35,-1
 196 511 l 258,36,37
 261 575 261 575 350 588 c 256,38,39
 412 597 412 597 474 574.5 c 128,-1,40
 536 552 536 552 583 505 c 258,41,-1
 618 469 l 258,42,43
 619 469 619 469 619 468.5 c 128,-1,44
 619 468 619 468 618 467 c 258,0,-1
EndSplineSet
EndChar

StartChar: d
Encoding: 101 100 101
GlifName: d
Width: 700
VWidth: 0
Flags: W
LayerCount: 2
Fore
SplineSet
619 803 m 1280
582 -8 m 1280
545 29 m 1280
582 839 m 1280
217 109 m 257,4,5
 276 61 276 61 350 61 c 128,-1,6
 424 61 424 61 483 109 c 257,7,8
 545 185 545 185 545 286.5 c 128,-1,9
 545 388 545 388 483 465 c 257,10,11
 424 513 424 513 350 513 c 128,-1,12
 276 513 276 513 217 465 c 257,13,14
 155 388 155 388 155 286.5 c 128,-1,15
 155 185 155 185 217 109 c 257,4,5
  PathStart: -1
84 287 m 256,16,17
 84 324 84 324 93.5 360 c 128,-1,18
 103 396 103 396 121 427.5 c 128,-1,19
 139 459 139 459 163 484 c 258,20,-1
 199 519 l 258,21,22
 263 584 263 584 350 584 c 256,23,24
 436 584 436 584 501 520 c 257,25,-1
 501 519 l 257,26,-1
 537 484 l 258,27,28
 541.098 479.791 541.098 479.791 545 475.417 c 257,29,-1
 545 802 l 258,30,31
 545 803 545 803 546 804 c 258,32,-1
 581 839 l 257,33,-1
 582 839 l 258,34,35
 583 839 583 839 583 838 c 258,36,-1
 619 803 l 257,37,-1
 619 802 l 257,38,-1
 619 29 l 257,39,-1
 618 28 l 257,40,-1
 583 -7 l 257,41,-1
 582 -8 l 258,42,43
 581 -8 581 -8 581 -7 c 258,44,-1
 545 29 l 257,45,-1
 545 98.5834 l 257,46,47
 541.098 94.2089 541.098 94.2089 537 90 c 258,48,-1
 501 55 l 258,49,50
 437 -10 437 -10 350 -10 c 256,51,52
 264 -10 264 -10 199 54 c 257,53,-1
 199 55 l 257,54,-1
 163 90 l 258,55,56
 126 128 126 128 105 179.5 c 128,-1,57
 84 231 84 231 84 287 c 256,16,17
EndSplineSet
EndChar

StartChar: e
Encoding: 102 101 102
GlifName: e
Width: 700
VWidth: 0
Flags: W
LayerCount: 2
Fore
SplineSet
452 511 m 1280
618 28 m 1280
581 -9 m 1280
489 549 m 1280
452 585 m 256,4,5
 461 585 461 585 470 584 c 256,6,7
 509 578 509 578 539 549 c 258,8,-1
 574 513 l 258,9,10
 600 487 600 487 612 448 c 128,-1,11
 624 409 624 409 618 368 c 256,12,13
 609 311 609 311 572 274 c 258,14,-1
 537 239 l 257,15,-1
 536 238 l 258,16,17
 500 202 500 202 452 202 c 128,-1,18
 404 202 404 202 367 239 c 258,19,-1
 332 274 l 258,20,21
 295 311 295 311 286 368 c 256,22,23
 284 382 284 382 284 396 c 256,24,25
 284 447.875 284 447.875 308.556 486.404 c 257,26,27
 249.71 465.27 249.71 465.27 206 429 c 257,28,29
 154 365 154 365 154 286 c 258,30,-1
 154 65 l 257,31,-1
 581 65 l 258,32,33
 582 65 582 65 582 64 c 258,34,-1
 617 28 l 257,35,-1
 618 28 l 257,36,37
 618 27 618 27 617 27 c 258,38,-1
 582 -9 l 257,39,-1
 581 -9 l 257,40,-1
 118 -9 l 258,41,42
 116 -9 116 -9 116 -8 c 258,43,-1
 80 28 l 257,44,-1
 80 286 l 258,45,46
 80 379 80 379 150 449 c 258,47,-1
 185 484 l 257,48,-1
 186 485 l 258,49,50
 234 532 234 532 304.5 558.5 c 128,-1,51
 375 585 375 585 452 585 c 256,4,5
419.393 509.812 m 256,52,53
 400.814 504.848 400.814 504.848 384 494 c 257,54,55
 355 451 355 451 355 396 c 256,56,57
 355 382 355 382 357 368 c 256,58,59
 363 326 363 326 386 293 c 257,60,61
 416 273 416 273 452 273 c 128,-1,62
 488 273 488 273 518 293 c 257,63,64
 541 326 541 326 547 368 c 256,65,66
 558 438 558 438 520 494 c 257,67,68
 497 509 497 509 470 513 c 256,69,70
 462.486 513.835 462.486 513.835 454.973 513.973 c 257,71,-1
 453 512 l 257,72,-1
 452 511 l 257,73,74
 435.545 511 435.545 511 419.393 509.812 c 256,52,53
EndSplineSet
Substitution2: "Single Substitution lookup 27 subtable" emacron
Substitution2: "Single Substitution lookup 23 subtable" emacron
Substitution2: "Single Substitution lookup 10 subtable" emacron
Substitution2: "Single Substitution lookup 6 subtable" emacron
EndChar

StartChar: f
Encoding: 103 102 103
GlifName: f
Width: 700
VWidth: 0
Flags: W
LayerCount: 2
Fore
SplineSet
118 583 m 1280
619 547 m 1280
582 510 m 1280
81 546 m 1280
262 31 m 1280
299 -6 m 1280
81 546 m 258,6,7
 81 547 81 547 82 548 c 258,8,-1
 117 583 l 257,9,-1
 118 583 l 257,10,-1
 262 583 l 257,11,-1
 262 624 l 258,12,13
 262 689 262 689 303 736 c 256,14,15
 307 741 307 741 311 745 c 258,16,-1
 346 780 l 257,17,-1
 347 781 l 258,18,19
 395 828 395 828 460.5 832 c 128,-1,20
 526 836 526 836 583 789 c 257,21,-1
 618 754 l 257,22,-1
 619 753 l 258,23,24
 619 752 619 752 618 752 c 258,25,-1
 583 716 l 257,26,-1
 582 716 l 257,27,-1
 581 716 l 257,28,29
 549 744 549 744 510 753.5 c 128,-1,30
 471 763 471 763 434.5 754.5 c 128,-1,31
 398 746 398 746 368 724 c 257,32,33
 335 680 335 680 335 624 c 258,34,-1
 335 583 l 257,35,-1
 582 583 l 258,36,37
 583 583 583 583 583 582 c 258,38,-1
 619 547 l 257,39,-1
 619 546 l 257,40,-1
 618 545 l 257,41,-1
 583 510 l 257,42,-1
 582 510 l 257,43,-1
 335 510 l 257,44,-1
 335 31 l 258,45,46
 335 30 335 30 334 30 c 258,47,-1
 299 -6 l 257,48,-1
 298 -6 l 257,49,-1
 297 -5 l 257,50,-1
 262 30 l 257,51,-1
 262 31 l 257,52,-1
 262 510 l 257,53,-1
 118 510 l 257,54,-1
 117 510 l 257,55,-1
 81 546 l 258,6,7
EndSplineSet
EndChar

StartChar: g
Encoding: 104 103 104
GlifName: g
Width: 700
VWidth: 0
Flags: W
LayerCount: 2
Fore
SplineSet
582 580 m 1280
619 543 m 1280
91 359.5 m 128,-1,2
 101 396 101 396 118.5 427.5 c 128,-1,3
 136 459 136 459 161 484 c 258,4,-1
 197 519 l 258,5,6
 262 585 262 585 350 585 c 128,-1,7
 438 585 438 585 503 519 c 258,8,-1
 539 484 l 257,9,-1
 540 483 l 258,10,11
 542.533 480.361 542.533 480.361 545 477.65 c 257,12,-1
 545 543 l 257,13,-1
 546 544 l 257,14,-1
 581 579 l 257,15,-1
 582 580 l 258,16,17
 583 580 583 580 583 579 c 258,18,-1
 619 543 l 257,19,-1
 619 285 l 257,20,-1
 619 27 l 258,21,22
 619 -54 619 -54 562 -111 c 258,23,-1
 526 -146 l 258,24,25
 491 -182 491 -182 438 -201.5 c 128,-1,26
 385 -221 385 -221 324 -221 c 256,27,28
 216 -221 216 -221 117 -164 c 257,29,-1
 82 -129 l 257,30,-1
 81 -128 l 257,31,-1
 81 -127 l 257,32,-1
 117 -91 l 257,33,-1
 118 -91 l 257,34,-1
 119 -91 l 257,35,36
 217 -147 217 -147 324 -147 c 256,37,38
 433 -147 433 -147 505 -90 c 257,39,40
 545 -39 545 -39 545 27 c 258,41,-1
 545 92.2092 l 257,42,43
 542.056 89.056 542.056 89.056 539 86 c 258,44,-1
 503 51 l 258,45,46
 438 -15 438 -15 350 -15 c 128,-1,47
 262 -15 262 -15 197 51 c 258,48,-1
 161 86 l 257,49,-1
 160 87 l 258,50,51
 136 112 136 112 118 143.5 c 128,-1,52
 100 175 100 175 90.5 211 c 128,-1,53
 81 247 81 247 81 285 c 128,-1,54
 81 323 81 323 91 359.5 c 128,-1,2
  PathStart: -1
217 107 m 257,54,55
 276 59 276 59 350 59 c 128,-1,56
 424 59 424 59 483 107 c 257,57,58
 545 184 545 184 545 285 c 128,-1,59
 545 386 545 386 483 463 c 257,60,61
 424 511 424 511 350 511 c 128,-1,62
 276 511 276 511 217 463 c 257,63,64
 155 387 155 387 155 285.5 c 128,-1,65
 155 184 155 184 217 107 c 257,54,55
  PathStart: -1
EndSplineSet
EndChar

StartChar: h
Encoding: 105 104 105
GlifName: h
Width: 700
VWidth: 0
Flags: W
LayerCount: 2
Fore
SplineSet
146 334 m 1280
582 -12 m 1280
545 24 m 1280
183 297 m 1280
81 24 m 1280
118 835 m 1280
155 798 m 1280
118 -12 m 1280
183 297 m 258,8,9
 182 297 182 297 181 298 c 258,10,-1
 155 324 l 257,11,-1
 155 25 l 258,12,13
 155 24 155 24 154 24 c 258,14,-1
 119 -12 l 257,15,-1
 118 -12 l 258,16,17
 117 -12 117 -12 117 -11 c 258,18,-1
 81 24 l 257,19,-1
 81 25 l 257,20,-1
 81 798 l 257,21,-1
 82 799 l 257,22,-1
 117 834 l 257,23,-1
 118 835 l 258,24,25
 119 835 119 835 119 834 c 258,26,-1
 155 798 l 257,27,-1
 155 399.132 l 257,28,29
 169.622 448.622 169.622 448.622 208 487 c 258,30,-1
 243 523 l 258,31,32
 288 567 288 567 350 577 c 256,33,34
 365 579 365 579 380 579 c 256,35,36
 462 580 462 580 521 520 c 258,37,-1
 557 485 l 257,38,-1
 557 484 l 257,39,40
 619 422 619 422 619 334 c 258,41,-1
 619 25 l 258,42,43
 619 24 619 24 618 24 c 258,44,-1
 583 -12 l 257,45,-1
 582 -12 l 258,46,47
 581 -12 581 -12 581 -11 c 258,48,-1
 545 24 l 257,49,-1
 545 25 l 257,50,-1
 545 334 l 258,51,52
 545 407 545 407 501 464 c 257,53,54
 447 506 447 506 380 506 c 256,55,56
 365 506 365 506 350 503 c 256,57,58
 303 496 303 496 264 466 c 257,59,60
 219 409 219 409 219 334 c 258,61,-1
 219 333 l 257,62,-1
 183 297 l 258,8,9
EndSplineSet
EndChar

StartChar: i
Encoding: 106 105 106
GlifName: i
Width: 700
VWidth: 0
Flags: W
LayerCount: 2
Fore
SplineSet
401 696 m 257,0,-1
 365 731 l 257,1,-1
 365 732 l 257,2,-1
 365 733 l 257,3,-1
 404 785 l 257,4,-1
 439 820 l 257,5,-1
 440 821 l 257,6,-1
 441 821 l 257,7,-1
 476 785 l 257,8,-1
 477 784 l 257,9,-1
 477 783 l 257,10,-1
 438 732 l 257,11,-1
 403 696 l 257,12,-1
 402 696 l 257,13,-1
 401 696 l 257,0,-1
583 202 m 257,14,-1
 618 167 l 257,15,-1
 619 166 l 258,16,17
 619 165 619 165 618 165 c 256,18,19
 572 110 572 110 550 87 c 258,20,-1
 515 52 l 258,21,22
 422 -41 422 -41 350 0 c 256,23,24
 331 10 331 10 319 22 c 258,25,-1
 284 58 l 257,26,-1
 283 59 l 258,27,28
 268 74 268 74 262 92 c 256,29,30
 249 128 249 128 259 164.5 c 128,-1,31
 269 201 269 201 290.5 247 c 128,-1,32
 312 293 312 293 334.5 332.5 c 128,-1,33
 357 372 357 372 368 415 c 128,-1,34
 379 458 379 458 368 489 c 256,35,36
 365 494 365 494 362 500 c 256,37,38
 356 504 356 504 349 508 c 256,39,40
 283 542 283 542 204 471 c 256,41,42
 188 454 188 454 155 414 c 257,43,-1
 119 379 l 257,44,-1
 118 378 l 257,45,-1
 117 379 l 257,46,-1
 82 414 l 257,47,-1
 81 415 l 258,48,49
 81 416 81 416 82 416 c 256,50,51
 128 471 128 471 150 493 c 258,52,-1
 185 529 l 258,53,54
 278 621 278 621 350 581 c 256,55,56
 369 571 369 571 381 558 c 258,57,-1
 416 523 l 257,58,-1
 417 522 l 258,59,60
 432 507 432 507 438 489 c 256,61,62
 451 453 451 453 441 416.5 c 128,-1,63
 431 380 431 380 409.5 334 c 128,-1,64
 388 288 388 288 365.5 248.5 c 128,-1,65
 343 209 343 209 332 166 c 128,-1,66
 321 123 321 123 332 92 c 256,67,68
 335 86 335 86 338 81 c 256,69,70
 344 77 344 77 351 73 c 256,71,72
 417 38 417 38 496 109 c 256,73,74
 512 127 512 127 545 167 c 257,75,-1
 581 202 l 257,76,-1
 582 202 l 257,77,-1
 583 202 l 257,14,-1
EndSplineSet
EndChar

StartChar: j
Encoding: 107 106 107
GlifName: j
Width: 700
VWidth: 0
Flags: W
LayerCount: 2
Fore
SplineSet
545 724 m 1280
582 813 m 1280
619 777 m 1280
582 688 m 1280
350 452 m 1280
313 415 m 1280
313 416 m 1280
582 688 m 258,7,8
 581 688 581 688 581 689 c 258,9,-1
 545 724 l 257,10,-1
 545 725 l 257,11,-1
 545 776 l 258,12,13
 545 777 545 777 546 778 c 258,14,-1
 581 813 l 257,15,-1
 582 813 l 258,16,17
 583 813 583 813 583 812 c 258,18,-1
 618 777 l 257,19,-1
 619 777 l 257,20,-1
 619 776 l 257,21,-1
 619 725 l 258,22,23
 619 724 619 724 618 724 c 258,24,-1
 583 688 l 257,25,-1
 582 688 l 258,7,8
349 452 m 257,26,-1
 350 452 l 258,27,28
 448 452 448 452 524 515 c 256,29,30
 536 530 536 530 545 545 c 257,31,-1
 581 581 l 257,32,-1
 582 581 l 257,33,-1
 583 580 l 257,34,-1
 618 545 l 257,35,-1
 619 544 l 257,36,-1
 619 29 l 258,37,38
 619 -52 619 -52 562 -109 c 258,39,-1
 526 -145 l 258,40,41
 491 -180 491 -180 438 -199.5 c 128,-1,42
 385 -219 385 -219 324 -219 c 256,43,44
 216 -219 216 -219 117 -162 c 257,45,-1
 82 -127 l 257,46,-1
 81 -126 l 257,47,-1
 81 -125 l 257,48,-1
 117 -90 l 257,49,-1
 118 -89 l 257,50,-1
 119 -89 l 257,51,52
 217 -146 217 -146 324 -146 c 256,53,54
 433 -146 433 -146 505 -89 c 257,55,56
 545 -37 545 -37 545 29 c 258,57,-1
 545 451 l 257,58,59
 534 450 534 450 527 443 c 256,60,61
 450 379 450 379 350 379 c 256,62,63
 349 379 349 379 349 380 c 258,64,-1
 313 415 l 257,65,-1
 313 416 l 257,66,-1
 349 452 l 257,26,-1
EndSplineSet
EndChar

StartChar: k
Encoding: 108 107 108
GlifName: k
Width: 700
VWidth: 0
Flags: W
LayerCount: 2
Fore
SplineSet
81 29 m 1280
118 839 m 1280
155 803 m 1280
118 -8 m 1280
619 546 m 258,4,5
 619 545 619 545 619 544.5 c 128,-1,6
 619 544 619 544 618 543 c 258,7,-1
 583 508 l 257,8,-1
 284 294 l 257,9,10
 282 287 282 287 283 280 c 257,11,-1
 583 66 l 257,12,-1
 618 31 l 257,13,-1
 619 30 l 258,14,15
 619 29 619 29 619 28 c 258,16,-1
 583 -7 l 257,17,-1
 582 -7 l 257,18,-1
 581 -7 l 257,19,-1
 220 250 l 258,20,21
 219 252 219 252 185 286 c 256,22,23
 184 286 184 286 184.5 287 c 258,24,-1
 185 288 l 257,25,-1
 220 324 l 257,26,-1
 581 581 l 258,27,28
 581 582 581 582 582 581.5 c 258,29,-1
 583 581 l 257,30,-1
 619 546 l 258,4,5
118 -8 m 258,31,32
 117 -8 117 -8 117 -7 c 258,33,-1
 82 29 l 257,34,-1
 81 29 l 257,35,-1
 81 802 l 258,36,37
 81 803 81 803 82 804 c 258,38,-1
 117 839 l 257,39,-1
 118 839 l 258,40,41
 119 839 119 839 119 838 c 258,42,-1
 155 803 l 257,43,-1
 155 802 l 257,44,-1
 155 29 l 257,45,-1
 154 28 l 257,46,-1
 119 -7 l 257,47,-1
 118 -8 l 258,31,32
EndSplineSet
EndChar

StartChar: l
Encoding: 109 108 109
GlifName: l
Width: 700
VWidth: 0
Flags: W
LayerCount: 2
Fore
SplineSet
583 149 m 257,0,-1
 618 113 l 257,1,-1
 619 112 l 258,2,3
 619 111 619 111 618 111 c 256,4,5
 609 100 609 100 600 91 c 258,6,-1
 564 55 l 257,7,-1
 563 54 l 258,8,9
 532 23 532 23 497 5 c 128,-1,10
 462 -13 462 -13 423.5 -17 c 128,-1,11
 385 -21 385 -21 349 -2 c 256,12,13
 318 14 318 14 298 35 c 258,14,-1
 262 70 l 258,15,16
 244 88 244 88 235 110.5 c 128,-1,17
 226 133 226 133 223 153.5 c 128,-1,18
 220 174 220 174 225.5 203.5 c 128,-1,19
 231 233 231 233 237 254 c 128,-1,20
 243 275 243 275 258.5 310 c 128,-1,21
 274 345 274 345 284 364.5 c 128,-1,22
 294 384 294 384 313 422 c 256,23,24
 319 433 319 433 322 439 c 256,25,26
 345 483 345 483 357.5 509.5 c 128,-1,27
 370 536 370 536 384 573.5 c 128,-1,28
 398 611 398 611 401.5 637.5 c 128,-1,29
 405 664 405 664 401 692.5 c 128,-1,30
 397 721 397 721 381 744 c 257,31,32
 367 754 367 754 349 763 c 256,33,34
 331 773 331 773 310.5 776.5 c 128,-1,35
 290 780 290 780 270 777.5 c 128,-1,36
 250 775 250 775 230 767.5 c 128,-1,37
 210 760 210 760 192 749 c 128,-1,38
 174 738 174 738 156 724 c 257,39,-1
 155 722 l 257,40,-1
 119 686 l 257,41,-1
 118 686 l 257,42,-1
 117 686 l 257,43,-1
 82 721 l 257,44,-1
 81 723 l 257,45,-1
 82 724 l 258,46,47
 91 734 91 734 100 744 c 258,48,-1
 136 779 l 257,49,-1
 137 780 l 258,50,51
 168 812 168 812 203 830 c 128,-1,52
 238 848 238 848 276.5 851.5 c 128,-1,53
 315 855 315 855 351 837 c 256,54,55
 383 820 383 820 403 800 c 258,56,-1
 439 764 l 258,57,58
 458 745 458 745 468.5 722 c 128,-1,59
 479 699 479 699 477.5 671 c 128,-1,60
 476 643 476 643 472 619 c 128,-1,61
 468 595 468 595 453 559.5 c 128,-1,62
 438 524 438 524 427 501 c 128,-1,63
 416 478 416 478 395 438 c 256,64,65
 393 434 393 434 389.5 426.5 c 128,-1,66
 386 419 386 419 384 416 c 256,67,68
 360 369 360 369 347.5 342.5 c 128,-1,69
 335 316 335 316 319 274.5 c 128,-1,70
 303 233 303 233 299 205 c 128,-1,71
 295 177 295 177 299 145.5 c 128,-1,72
 303 114 303 114 320 90 c 257,73,74
 334 80 334 80 351 72 c 256,75,76
 382 55 382 55 416.5 56.5 c 128,-1,77
 451 58 451 58 482.5 72 c 128,-1,78
 514 86 514 86 544 111 c 256,79,80
 545 112 545 112 545 113 c 258,81,-1
 581 148 l 257,82,-1
 582 149 l 257,83,-1
 583 149 l 257,0,-1
EndSplineSet
EndChar

StartChar: m
Encoding: 110 109 110
GlifName: m
Width: 700
VWidth: 0
Flags: W
LayerCount: 2
Fore
SplineSet
378 467 m 1280
582 -8 m 1280
545 29 m 1280
415 430 m 1280
146 467 m 1280
350 -8 m 1280
313 29 m 1280
183 430 m 1280
81 29 m 1280
118 581 m 1280
155 545 m 1280
118 -8 m 1280
414 430 m 257,12,-1
 413 431 l 257,13,-1
 387 457 l 257,14,-1
 387 29 l 258,15,16
 387 28 387 28 386 28 c 258,17,-1
 351 -8 l 257,18,-1
 350 -8 l 258,19,20
 349 -8 349 -8 349 -7 c 258,21,-1
 313 28 l 257,22,-1
 313 29 l 257,23,-1
 313 467 l 258,24,25
 313 484 313 484 306 498 c 257,26,27
 290 506 290 506 273 507 c 256,28,29
 248 509 248 509 227 498 c 257,30,31
 219 484 219 484 219 467 c 258,32,-1
 219 466 l 257,33,-1
 183 430 l 258,34,35
 182 430 182 430 181 431 c 258,36,-1
 155 457 l 257,37,-1
 155 29 l 258,38,39
 155 28 155 28 154 28 c 258,40,-1
 119 -8 l 257,41,-1
 118 -8 l 258,42,43
 117 -8 117 -8 117 -7 c 258,44,-1
 81 28 l 257,45,-1
 81 29 l 257,46,-1
 81 544 l 258,47,48
 81 545 81 545 82 546 c 258,49,-1
 117 581 l 257,50,-1
 118 581 l 258,51,52
 119 581 119 581 119 580 c 258,53,-1
 155 545 l 257,54,-1
 155 544 l 257,55,-1
 155 503.383 l 257,56,57
 160.071 512.711 160.071 512.711 168 521 c 258,58,-1
 203 556 l 257,59,-1
 204 557 l 258,60,61
 233 584 233 584 273 581 c 256,62,63
 306 579 306 579 329 556 c 258,64,-1
 364 521 l 257,65,-1
 365 520 l 258,66,67
 376.909 507.55 376.909 507.55 382.372 493.048 c 257,68,69
 387.807 508.253 387.807 508.253 400 521 c 258,70,-1
 435 556 l 257,71,-1
 436 557 l 258,72,73
 465 584 465 584 505 581 c 256,74,75
 538 579 538 579 561 556 c 258,76,-1
 596 521 l 257,77,-1
 597 520 l 258,78,79
 619 497 619 497 619 467 c 258,80,-1
 619 29 l 258,81,82
 619 28 619 28 618 28 c 258,83,-1
 583 -8 l 257,84,-1
 582 -8 l 258,85,86
 581 -8 581 -8 581 -7 c 258,87,-1
 545 28 l 257,88,-1
 545 29 l 257,89,-1
 545 467 l 258,90,91
 545 484 545 484 538 498 c 257,92,93
 522 506 522 506 505 507 c 256,94,95
 480 509 480 509 458 498 c 257,96,97
 451 484 451 484 451 467 c 256,98,99
 451 466 451 466 450 466 c 258,100,-1
 415 430 l 257,101,-1
 414 430 l 257,12,-1
EndSplineSet
EndChar

StartChar: n
Encoding: 111 110 111
GlifName: n
Width: 700
VWidth: 0
Flags: W
LayerCount: 2
Fore
SplineSet
146 338 m 1280
582 -8 m 1280
545 29 m 1280
183 302 m 1280
81 29 m 1280
118 582 m 1280
155 545 m 1280
118 -8 m 1280
183 302 m 258,8,9
 182 302 182 302 181 303 c 258,10,-1
 155 329 l 257,11,-1
 155 29 l 257,12,-1
 154 28 l 257,13,-1
 119 -7 l 257,14,-1
 118 -8 l 258,15,16
 117 -8 117 -8 117 -7 c 258,17,-1
 81 29 l 257,18,-1
 81 545 l 257,19,-1
 82 546 l 257,20,-1
 117 581 l 257,21,-1
 118 582 l 258,22,23
 119 582 119 582 119 581 c 258,24,-1
 155 545 l 257,25,-1
 155 404.132 l 257,26,27
 169.622 453.622 169.622 453.622 208 492 c 258,28,-1
 243 527 l 258,29,30
 288 572 288 572 350 582 c 256,31,32
 365 584 365 584 380 584 c 256,33,34
 462 584 462 584 521 525 c 258,35,-1
 557 490 l 257,36,-1
 557 489 l 257,37,38
 619 427 619 427 619 339 c 258,39,-1
 619 29 l 257,40,-1
 618 28 l 257,41,-1
 583 -7 l 257,42,-1
 582 -8 l 258,43,44
 581 -8 581 -8 581 -7 c 258,45,-1
 545 29 l 257,46,-1
 545 339 l 258,47,48
 545 412 545 412 501 468 c 257,49,50
 447 510 447 510 380 510 c 256,51,52
 365 510 365 510 350 508 c 256,53,54
 303 500 303 500 264 471 c 257,55,56
 219 413 219 413 219 339 c 256,57,58
 219 338 219 338 219 337 c 258,59,-1
 183 302 l 258,8,9
EndSplineSet
EndChar

StartChar: o
Encoding: 112 111 112
GlifName: o
Width: 700
VWidth: 0
Flags: W
LayerCount: 2
Fore
SplineSet
547 202 m 1280
190 409 m 1280
153 373 m 1280
577.336 151.371 m 257,3,4
 560.743 114.897 560.743 114.897 532 87 c 258,5,-1
 497 51 l 258,6,7
 449 3 449 3 382.5 -11.5 c 128,-1,8
 316 -26 316 -26 249 0 c 256,9,10
 208 16 208 16 176 45 c 256,11,12
 171 49 171 49 167 54 c 258,13,-1
 131 89 l 258,14,15
 64 156 64 156 60.5 252 c 256,16,17
 57.01 347.727 57.01 347.727 122.625 423.567 c 257,18,19
 139.223 460.223 139.223 460.223 168 489 c 258,20,-1
 203 524 l 258,21,22
 251 572 251 572 317.5 586.5 c 128,-1,23
 384 601 384 601 451 575 c 256,24,25
 497 557 497 557 533 522 c 258,26,-1
 534 521 l 257,27,-1
 569 486 l 258,28,29
 620 435 620 435 634.5 363.5 c 128,-1,30
 649 292 649 292 623 225 c 256,31,32
 607.09 184.23 607.09 184.23 577.336 151.371 c 257,3,4
172.042 390.529 m 257,33,34
 151.138 358.055 151.138 358.055 141.5 320.5 c 256,35,36
 127 264 127 264 139.5 209 c 128,-1,37
 152 154 152 154 187 110 c 257,38,39
 216 87 216 87 250 73 c 256,40,41
 310 51 310 51 369 60 c 128,-1,42
 428 69 428 69 476 107 c 257,43,44
 492.173 127.793 492.173 127.793 503.6 151.552 c 256,45,46
 503.276 152.276 503.276 152.276 504 153 c 256,47,48
 504.316 153.36 504.316 153.36 504.63 153.72 c 256,49,50
 507.467 159.765 507.467 159.765 510 166 c 258,51,-1
 527.182 183.673 l 257,52,53
 540.102 203.754 540.102 203.754 549 226 c 256,54,55
 573 287 573 287 563 351 c 128,-1,56
 553 415 553 415 513 465 c 257,57,58
 484 488 484 488 450 502 c 256,59,60
 390 525 390 525 331 515.5 c 128,-1,61
 272 506 272 506 224 468 c 257,62,63
 207.827 447.207 207.827 447.207 196.4 423.448 c 256,64,65
 196.724 422.724 196.724 422.724 196 422 c 256,66,67
 195.688 421.649 195.688 421.649 195.378 421.298 c 256,68,69
 192.537 415.244 192.537 415.244 190 409 c 258,70,-1
 172.042 390.529 l 257,33,34
EndSplineSet
EndChar

StartChar: p
Encoding: 113 112 113
GlifName: p
Width: 700
VWidth: 0
Flags: W
LayerCount: 2
Fore
SplineSet
81 -179 m 1280
118 580 m 1280
155 543 m 1280
118 -216 m 1280
118 -216 m 1280
81 -180 m 257,5,-1
 81 -179 l 257,6,-1
 81 285 l 257,7,-1
 81 543 l 257,8,-1
 82 544 l 257,9,-1
 117 579 l 257,10,-1
 118 580 l 258,11,12
 119 580 119 580 119 579 c 258,13,-1
 155 543 l 257,14,-1
 155 477.791 l 257,15,16
 157.944 480.944 157.944 480.944 161 484 c 258,17,-1
 197 519 l 258,18,19
 262 585 262 585 350 585 c 128,-1,20
 438 585 438 585 503 519 c 258,21,-1
 539 484 l 257,22,-1
 540 483 l 258,23,24
 564 458 564 458 582 426.5 c 128,-1,25
 600 395 600 395 609.5 359 c 128,-1,26
 619 323 619 323 619 285 c 128,-1,27
 619 247 619 247 609 210.5 c 128,-1,28
 599 174 599 174 581.5 142.5 c 128,-1,29
 564 111 564 111 539 86 c 258,30,-1
 503 51 l 258,31,32
 438 -15 438 -15 350 -15 c 128,-1,33
 262 -15 262 -15 197 51 c 258,34,-1
 161 86 l 257,35,-1
 160 87 l 258,36,37
 157.467 89.639 157.467 89.639 155 92.3504 c 257,38,-1
 155 -179 l 258,39,40
 155 -180 155 -180 154 -180 c 258,41,-1
 119 -215 l 257,42,-1
 118 -216 l 257,43,-1
 117 -215 l 257,44,-1
 81 -180 l 257,5,-1
217 107 m 257,45,46
 276 59 276 59 350 59 c 128,-1,47
 424 59 424 59 483 107 c 257,48,49
 545 184 545 184 545 285 c 128,-1,50
 545 386 545 386 483 463 c 257,51,52
 424 511 424 511 350 511 c 128,-1,53
 276 511 276 511 217 463 c 257,54,55
 155 387 155 387 155 285.5 c 128,-1,56
 155 184 155 184 217 107 c 257,45,46
  PathStart: -1
EndSplineSet
EndChar

StartChar: q
Encoding: 114 113 114
GlifName: q
Width: 700
VWidth: 0
Flags: W
LayerCount: 2
Fore
SplineSet
619 543 m 1280
582 -216 m 1280
545 -179 m 1280
582 580 m 1280
217 107 m 257,4,5
 276 59 276 59 350 59 c 128,-1,6
 424 59 424 59 483 107 c 257,7,8
 545 184 545 184 545 285 c 128,-1,9
 545 386 545 386 483 463 c 257,10,11
 424 511 424 511 350 511 c 128,-1,12
 276 511 276 511 217 463 c 257,13,14
 155 387 155 387 155 285.5 c 128,-1,15
 155 184 155 184 217 107 c 257,4,5
  PathStart: -1
163 482 m 258,16,-1
 199 517 l 258,17,18
 263 582 263 582 350 582 c 256,19,20
 436 582 436 582 501 518 c 257,21,-1
 501 517 l 257,22,-1
 537 482 l 258,23,24
 541.098 477.791 541.098 477.791 545 473.417 c 257,25,-1
 545 543 l 257,26,-1
 546 544 l 257,27,-1
 581 579 l 257,28,-1
 582 580 l 258,29,30
 583 580 583 580 583 579 c 258,31,-1
 619 543 l 257,32,-1
 619 -179 l 258,33,34
 619 -180 619 -180 618 -180 c 258,35,-1
 583 -215 l 257,36,-1
 582 -216 l 258,37,38
 581 -216 581 -216 581 -215 c 258,39,-1
 545 -180 l 257,40,-1
 545 -179 l 257,41,-1
 545 96.7031 l 257,42,43
 541.087 92.2573 541.087 92.2573 537 88 c 258,44,-1
 501 53 l 258,45,46
 437 -12 437 -12 350 -12 c 256,47,48
 264 -12 264 -12 199 52 c 257,49,-1
 199 53 l 257,50,-1
 163 88 l 258,51,52
 126 126 126 126 105 177.5 c 128,-1,53
 84 229 84 229 84 285 c 128,-1,54
 84 341 84 341 105 392.5 c 128,-1,55
 126 444 126 444 163 482 c 258,16,-1
  PathStart: -2
EndSplineSet
EndChar

StartChar: r
Encoding: 115 114 115
GlifName: r
Width: 700
VWidth: 0
Flags: W
LayerCount: 2
Fore
SplineSet
146 337 m 1280
582 300 m 1280
545 337 m 1280
183 300 m 1280
81 27 m 1280
118 580 m 1280
155 544 m 1280
118 -9 m 1280
183 300 m 258,8,9
 182 300 182 300 181 301 c 258,10,-1
 155 327 l 257,11,-1
 155 28 l 258,12,13
 155 27 155 27 154 27 c 258,14,-1
 119 -9 l 257,15,-1
 118 -9 l 258,16,17
 117 -9 117 -9 117 -8 c 258,18,-1
 81 27 l 257,19,-1
 81 28 l 257,20,-1
 81 543 l 258,21,22
 81 544 81 544 82 544 c 258,23,-1
 117 580 l 257,24,-1
 118 580 l 258,25,26
 119 580 119 580 119 579 c 258,27,-1
 155 544 l 257,28,-1
 155 543 l 257,29,-1
 155 402.132 l 257,30,31
 169.622 451.622 169.622 451.622 208 490 c 258,32,-1
 243 526 l 258,33,34
 288 570 288 570 350 580 c 256,35,36
 365 582 365 582 380 582 c 256,37,38
 462 583 462 583 521 523 c 258,39,-1
 557 488 l 257,40,-1
 557 487 l 257,41,42
 619 425 619 425 619 337 c 256,43,44
 619 336 619 336 618 336 c 258,45,-1
 583 300 l 257,46,-1
 582 300 l 258,47,48
 581 300 581 300 581 301 c 258,49,-1
 545 336 l 257,50,-1
 545 337 l 258,51,52
 545 410 545 410 501 467 c 257,53,54
 447 509 447 509 380 509 c 256,55,56
 365 509 365 509 350 506 c 256,57,58
 303 499 303 499 264 469 c 257,59,60
 219 412 219 412 219 337 c 258,61,-1
 219 336 l 257,62,-1
 183 300 l 258,8,9
EndSplineSet
EndChar

StartChar: s
Encoding: 116 115 116
GlifName: s
Width: 700
VWidth: 0
Flags: W
LayerCount: 2
Fore
SplineSet
583 149 m 1280
618 455 m 258,1,-1
 583 420 l 257,2,-1
 582 419 l 258,3,4
 581 419 581 419 581 420 c 256,5,6
 557 441 557 441 530 458 c 256,7,8
 439 516 439 516 333 515.5 c 128,-1,9
 227 515 227 515 152 453 c 257,10,-1
 123 424 l 257,11,-1
 154 393 l 258,12,13
 158.607 385.043 158.607 385.043 163.739 377.788 c 256,14,15
 185.597 363.417 185.597 363.417 214 354.5 c 256,16,17
 257 341 257 341 301.5 335.5 c 128,-1,18
 346 330 346 330 391 325 c 128,-1,19
 436 320 436 320 479 304 c 128,-1,20
 522 288 522 288 551 260 c 258,21,-1
 557 254 l 258,22,23
 559 252 559 252 561 250 c 258,24,-1
 586 225 l 258,25,26
 588.806 222.194 588.806 222.194 591.611 218.514 c 258,27,-1
 596 214 l 258,28,29
 609 202 609 202 619 186 c 256,30,31
 619 185 619 185 618 185 c 258,32,-1
 587.375 153.5 l 257,33,-1
 618 122 l 257,34,-1
 619 121 l 258,35,36
 619 120 619 120 618 120 c 256,37,38
 611 112 611 112 603 104 c 258,39,-1
 568 68 l 257,40,-1
 567 68 l 257,41,42
 502 3 502 3 405 -8.5 c 128,-1,43
 308 -20 308 -20 221 20 c 256,44,45
 164 44 164 44 117 85 c 257,46,-1
 82 120 l 257,47,-1
 81 121 l 258,48,49
 81 122 81 122 82 122 c 258,50,-1
 117 158 l 257,51,-1
 118 158 l 257,52,-1
 119 158 l 257,53,54
 165 118 165 118 222 93 c 256,55,56
 304 57 304 57 394.5 65 c 128,-1,57
 485 73 485 73 549 126 c 257,58,-1
 576.937 153.063 l 257,59,-1
 546 184 l 258,60,61
 541.359 192.016 541.359 192.016 536.184 199.321 c 256,62,63
 514.353 213.769 514.353 213.769 486 223 c 256,64,65
 443 237 443 237 398.5 242 c 128,-1,66
 354 247 354 247 309 252.5 c 128,-1,67
 264 258 264 258 221 273.5 c 128,-1,68
 178 289 178 289 149 317 c 258,69,-1
 114 353 l 257,70,-1
 108 359 l 257,71,-1
 104 363 l 258,72,73
 91 376 91 376 81 392 c 257,74,-1
 82 393 l 257,75,-1
 113 424 l 257,76,-1
 82 455 l 257,77,-1
 81 456 l 258,78,79
 81 457 81 457 82 457 c 256,80,81
 89 466 89 466 97 475 c 258,82,-1
 133 510 l 258,83,84
 183 560 183 560 252.5 579 c 128,-1,85
 322 598 322 598 394.5 585 c 128,-1,86
 467 572 467 572 531 531 c 256,87,88
 559 514 559 514 583 493 c 258,89,-1
 618 457 l 257,90,-1
 619 456 l 258,91,92
 619 455 619 455 618 455 c 258,1,-1
EndSplineSet
EndChar

StartChar: t
Encoding: 117 116 117
GlifName: t
Width: 700
VWidth: 0
Flags: W
LayerCount: 2
Fore
SplineSet
118 578 m 1280
619 541 m 1280
582 504 m 1280
81 541 m 1280
619 25 m 1280
247 655 m 1280
284 619 m 1280
583 62 m 1280
81 541 m 258,8,9
 81 542 81 542 82 542 c 258,10,-1
 117 578 l 257,11,-1
 118 578 l 257,12,-1
 210 578 l 257,13,-1
 210 618 l 258,14,15
 210 619 210 619 211 620 c 258,16,-1
 246 655 l 257,17,-1
 247 655 l 258,18,19
 248 655 248 655 248 654 c 258,20,-1
 284 619 l 257,21,-1
 284 618 l 257,22,-1
 284 578 l 257,23,-1
 582 578 l 258,24,25
 583 578 583 578 583 577 c 258,26,-1
 619 542 l 257,27,-1
 619 541 l 258,28,29
 619 540 619 540 618 540 c 258,30,-1
 583 504 l 257,31,-1
 582 504 l 257,32,-1
 284 504 l 257,33,-1
 284 309 l 258,34,35
 284 230 284 230 337 167 c 257,36,37
 428 90 428 90 582 62 c 257,38,-1
 583 62 l 257,39,-1
 618 27 l 258,40,41
 619 26 619 26 619 25 c 257,42,-1
 618 25 l 257,43,-1
 583 -11 l 257,44,-1
 582 -11 l 257,45,46
 408 19 408 19 316 111 c 258,47,-1
 280 147 l 257,48,-1
 279 147 l 257,49,50
 210 218 210 218 210 309 c 258,51,-1
 210 504 l 257,52,-1
 118 504 l 258,53,54
 117 504 117 504 117 505 c 258,55,-1
 81 540 l 257,56,-1
 81 541 l 258,8,9
EndSplineSet
EndChar

StartChar: u
Encoding: 118 117 118
GlifName: u
Width: 700
VWidth: 0
Flags: W
LayerCount: 2
Fore
SplineSet
155 543 m 1280
118 579 m 1280
468 27 m 1280
504 579 m 1280
542 543 m 1280
505 -10 m 1280
118 579 m 257,6,-1
 119 579 l 257,7,-1
 155 543 l 257,8,-1
 155 130 l 258,9,10
 155 100 155 100 166 77 c 257,11,12
 220 50 220 50 316.5 89.5 c 256,13,14
 392.097 120.444 392.097 120.444 468 182.992 c 257,15,-1
 468 543 l 257,16,-1
 469 544 l 257,17,-1
 504 579 l 257,18,-1
 505 579 l 257,19,-1
 506 579 l 257,20,-1
 541 543 l 257,21,-1
 542 543 l 257,22,-1
 542 256.48 l 257,23,24
 543.504 258.24 543.504 258.24 545 260 c 258,25,-1
 581 295 l 257,26,-1
 582 296 l 257,27,-1
 583 296 l 257,28,-1
 618 260 l 257,29,-1
 619 259 l 258,30,31
 619 258 619 258 618 258 c 256,32,33
 593 228 593 228 565 200 c 258,34,-1
 542 177 l 257,35,-1
 542 27 l 258,36,37
 542 26 542 26 541 26 c 258,38,-1
 505 -9 l 257,39,-1
 505 -10 l 257,40,41
 504 -10 504 -10 503 -9 c 258,42,-1
 468 26 l 257,43,-1
 468 27 l 257,44,-1
 468 108.513 l 257,45,46
 442.611 87.71 442.611 87.71 416.5 70 c 256,47,48
 359 31 359 31 308.5 12 c 128,-1,49
 258 -7 258 -7 215.5 -7 c 128,-1,50
 173 -7 173 -7 148 15 c 256,51,52
 145 17 145 17 143 19 c 258,53,-1
 107 54 l 258,54,55
 81 81 81 81 81 130 c 258,56,-1
 81 543 l 257,57,-1
 82 544 l 257,58,-1
 117 579 l 257,59,-1
 118 579 l 257,6,-1
EndSplineSet
EndChar

StartChar: v
Encoding: 119 118 119
GlifName: v
Width: 700
VWidth: 0
Flags: W
LayerCount: 2
Fore
SplineSet
155 550 m 1280
299 -2 m 1280
262 33 m 1280
117 586 m 1280
401 -2 m 1280
545 550 m 1280
583 586 m 1280
438 33 m 1280
118 587 m 257,8,-1
 119 586 l 257,9,-1
 154 551 l 257,10,-1
 155 550 l 257,11,-1
 335 35 l 258,12,13
 335 34 335 34 335 33 c 258,14,-1
 299 -2 l 257,15,-1
 299 -3 l 257,16,17
 298 -3 298 -3 298 -2 c 258,18,-1
 262 33 l 257,19,-1
 262 34 l 257,20,-1
 81 549 l 258,21,22
 81 550 81 550 82 551 c 258,23,-1
 117 586 l 257,24,-1
 118 587 l 257,8,-1
438 33 m 257,25,-1
 403 -2 l 258,26,27
 402 -3 402 -3 401 -3 c 257,28,-1
 401 -2 l 257,29,-1
 365 33 l 258,30,31
 365 34 365 34 365 35 c 258,32,-1
 545 550 l 257,33,-1
 546 551 l 257,34,-1
 581 586 l 258,35,36
 582 587 582 587 582 586 c 257,37,-1
 583 586 l 257,38,-1
 618 551 l 258,39,40
 619 550 619 550 619 549 c 258,41,-1
 438 34 l 257,42,-1
 438 33 l 257,25,-1
EndSplineSet
EndChar

StartChar: w
Encoding: 120 119 120
GlifName: w
Width: 700
VWidth: 0
Flags: W
LayerCount: 2
Fore
SplineSet
298 -7 m 1280
313 288 m 1280
351 324 m 1280
402 -7 m 1280
365 29 m 1280
335 29 m 1280
335 29 m 257,6,-1
 300 -6 l 258,7,8
 299 -7 299 -7 298 -7 c 258,9,-1
 262 29 l 257,10,-1
 262 30 l 257,11,-1
 313 288 l 257,12,-1
 314 288 l 257,13,-1
 349 324 l 257,14,-1
 350 324 l 257,15,-1
 351 324 l 257,16,-1
 386 289 l 258,17,18
 386 288 386 288 387 288 c 258,19,-1
 438 30 l 257,20,-1
 438 29 l 257,21,-1
 402 -7 l 258,22,23
 401 -7 401 -7 400 -6 c 258,24,-1
 365 29 l 257,25,-1
 350 103 l 257,26,-1
 335 29 l 257,6,-1
118 582 m 257,27,-1
 119 581 l 257,28,-1
 155 546 l 257,29,-1
 155 545 l 257,30,-1
 232 30 l 257,31,-1
 232 29 l 257,32,-1
 196 -7 l 258,33,34
 195 -7 195 -7 194 -6 c 258,35,-1
 159 29 l 257,36,-1
 159 30 l 257,37,-1
 81 545 l 258,38,39
 81 546 81 546 82 546 c 258,40,-1
 117 582 l 257,41,-1
 118 582 l 257,27,-1
504 -7 m 257,42,-1
 468 29 l 257,43,-1
 468 30 l 257,44,-1
 545 545 l 257,45,-1
 545 546 l 257,46,-1
 581 581 l 258,47,48
 581 582 581 582 582 582 c 258,49,-1
 583 582 l 257,50,-1
 618 546 l 257,51,-1
 619 545 l 257,52,-1
 541 30 l 257,53,-1
 541 29 l 257,54,-1
 506 -6 l 257,55,-1
 505 -7 l 257,56,-1
 504 -7 l 257,42,-1
EndSplineSet
EndChar

StartChar: x
Encoding: 121 120 121
GlifName: x
Width: 700
VWidth: 0
Flags: W
LayerCount: 2
Fore
SplineSet
82 31 m 258,0,1
 81 32 81 32 81 32.5 c 128,-1,2
 81 33 81 33 82 34 c 258,3,-1
 117 69 l 257,4,-1
 323 249 l 258,5,6
 324 250 324 250 324.5 249.5 c 258,7,-1
 325 249 l 257,8,-1
 361 214 l 258,9,10
 361 213 361 213 361 212.5 c 258,11,-1
 361 212 l 257,12,-1
 325 176 l 257,13,-1
 119 -4 l 257,14,-1
 118 -4 l 257,15,-1
 117 -4 l 257,16,-1
 82 31 l 258,0,1
117 584 m 258,17,18
 117 585 117 585 118 585 c 128,-1,19
 119 585 119 585 119 584 c 258,20,-1
 155 549 l 257,21,-1
 618 33 l 258,22,23
 619 33 619 33 619 32.5 c 128,-1,24
 619 32 619 32 618 31 c 258,25,-1
 583 -4 l 257,26,-1
 582 -4 l 257,27,-1
 581 -4 l 257,28,-1
 545 31 l 257,29,-1
 82 547 l 258,30,31
 81 547 81 547 81 548 c 128,-1,32
 81 549 81 549 82 549 c 258,33,-1
 117 584 l 258,17,18
618 549 m 258,34,35
 619 548 619 548 619 547.5 c 128,-1,36
 619 547 619 547 618 547 c 258,37,-1
 583 511 l 257,38,-1
 377 331 l 258,39,40
 376 331 376 331 375.5 331 c 258,41,-1
 375 331 l 257,42,-1
 339 366 l 258,43,44
 339 367 339 367 339 367.5 c 128,-1,45
 339 368 339 368 339 369 c 258,46,-1
 375 404 l 257,47,-1
 581 584 l 258,48,49
 581 585 581 585 582 584.5 c 258,50,-1
 583 584 l 257,51,-1
 618 549 l 258,34,35
EndSplineSet
EndChar

StartChar: y
Encoding: 122 121 122
GlifName: y
Width: 700
VWidth: 0
Flags: W
LayerCount: 2
Fore
SplineSet
155 546 m 1280
299 32 m 1280
262 68 m 1280
117 582 m 1280
583 582 m 1280
309 -177 m 1280
272 -213 m 1280
545 547 m 1280
118 582 m 257,8,-1
 119 582 l 257,9,-1
 154 547 l 257,10,-1
 155 546 l 257,11,-1
 335 69 l 257,12,-1
 335 68 l 257,13,-1
 300 33 l 257,14,-1
 299 32 l 257,15,-1
 298 32 l 257,16,-1
 262 68 l 257,17,18
 96 505 96 505 81 545 c 256,19,20
 81 546 81 546 82 547 c 258,21,-1
 117 582 l 257,22,-1
 118 582 l 257,8,-1
545 547 m 257,23,-1
 546 547 l 257,24,-1
 581 582 l 258,25,26
 582 583 582 583 583 582 c 258,27,-1
 618 546 l 258,28,29
 619 546 619 546 619 545 c 258,30,-1
 309 -177 l 257,31,-1
 274 -212 l 258,32,33
 273 -213 273 -213 272 -213 c 257,34,-1
 272 -212 l 257,35,-1
 236 -177 l 258,36,37
 236 -176 236 -176 236 -175 c 258,38,-1
 545 546 l 257,39,-1
 545 547 l 257,23,-1
EndSplineSet
EndChar

StartChar: z
Encoding: 123 122 123
GlifName: z
Width: 700
VWidth: 0
Flags: W
LayerCount: 2
Fore
SplineSet
247 64 m 1280
619 28 m 1280
582 -9 m 1280
210 27 m 1280
118 580 m 1280
490 543 m 1280
453 506 m 1280
81 543 m 1280
210 28 m 257,8,-1
 211 29 l 257,9,-1
 246 64 l 257,10,-1
 247 64 l 257,11,-1
 582 64 l 257,12,-1
 583 64 l 257,13,-1
 619 28 l 258,14,15
 619 27 619 27 618 26 c 258,16,-1
 583 -9 l 257,17,-1
 582 -9 l 257,18,-1
 247 -9 l 258,19,20
 246 -9 246 -9 246 -8 c 258,21,-1
 210 27 l 257,22,-1
 210 28 l 257,8,-1
81 543 m 258,23,24
 81 544 81 544 82 544 c 258,25,-1
 117 580 l 257,26,-1
 118 580 l 257,27,-1
 453 580 l 258,28,29
 454 580 454 580 454 579 c 258,30,-1
 490 544 l 257,31,-1
 490 543 l 258,32,33
 490 542 490 542 489 542 c 258,34,-1
 454 506 l 257,35,-1
 453 506 l 257,36,-1
 118 506 l 258,37,38
 117 506 117 506 117 507 c 258,39,-1
 81 542 l 257,40,-1
 81 543 l 258,23,24
583 579 m 258,41,-1
 618 544 l 257,42,-1
 619 543 l 258,43,44
 619 542 619 542 618 542 c 258,45,-1
 155 27 l 257,46,-1
 119 -9 l 257,47,-1
 118 -9 l 257,48,-1
 117 -9 l 257,49,-1
 82 26 l 257,50,-1
 81 28 l 257,51,-1
 82 29 l 257,52,-1
 545 544 l 257,53,-1
 581 579 l 257,54,-1
 582 580 l 258,55,56
 583 580 583 580 583 579 c 258,41,-1
EndSplineSet
EndChar

StartChar: braceleft
Encoding: 124 123 124
GlifName: braceleft
Width: 700
VWidth: 0
Flags: W
LayerCount: 2
Fore
SplineSet
311 409 m 1280
274 371 m 1280
274 372 m 1280
426 11 m 1280
389 -26 m 1280
426 784 m 1280
389 747 m 1280
274 423 m 1280
311 460 m 1280
290 39 m 257,9,10
 282 53 282 53 282 70 c 256,11,12
 283 89 283 89 287 108 c 128,-1,13
 291 127 291 127 294 136 c 128,-1,14
 297 145 297 145 308 169.5 c 128,-1,15
 319 194 319 194 322 200 c 258,16,-1
 357 236 l 257,17,-1
 393 200 l 257,18,19
 388 187 388 187 380.5 164.5 c 128,-1,20
 373 142 373 142 368.5 129 c 128,-1,21
 364 116 364 116 360 99.5 c 128,-1,22
 356 83 356 83 356 70 c 256,23,24
 356 58.5597 356 58.5597 357.484 50.3839 c 257,25,26
 369.666 48 369.666 48 389 48 c 257,27,-1
 390 47 l 257,28,-1
 425 12 l 257,29,-1
 426 11 l 258,30,31
 426 10 426 10 425 10 c 258,32,-1
 389 -26 l 257,33,34
 365 -26 365 -26 348 -18 c 257,35,-1
 325.828 4.80524 l 257,36,-1
 325 4 l 257,37,-1
 290 39 l 257,9,10
287 748 m 257,38,39
 292 762 292 762 299 770 c 258,40,-1
 335 805 l 258,41,42
 350 821 350 821 389 821 c 257,43,-1
 390 820 l 257,44,-1
 425 785 l 257,45,-1
 426 784 l 258,46,47
 426 783 426 783 425 783 c 258,48,-1
 389 747 l 257,49,50
 365 747 365 747 349 740 c 257,51,-1
 326.979 717.132 l 257,52,-1
 359 686 l 257,53,54
 364 668 364 668 379 631 c 256,55,56
 388 609 388 609 392 596 c 256,57,58
 399 578 399 578 404 562 c 256,59,60
 417 518 417 518 418 483 c 256,61,62
 418 465 418 465 410 451 c 257,63,-1
 375 416 l 257,64,-1
 373.986 416.986 l 257,65,-1
 357.8 400.8 l 257,66,67
 363.351 397.91 363.351 397.91 367 394 c 258,68,-1
 403 358 l 258,69,70
 411 350 411 350 414 333 c 257,71,-1
 379 298 l 257,72,-1
 346 330 l 257,73,74
 333 335 333 335 311 335 c 257,75,-1
 310 336 l 257,76,-1
 275 371 l 257,77,-1
 274 371 l 257,78,-1
 274 372 l 257,79,-1
 275 372 l 257,80,-1
 300.141 397.141 l 257,81,-1
 275 423 l 257,82,-1
 274 423 l 257,83,84
 274 424 274 424 275 424 c 258,85,-1
 311 460 l 257,86,87
 330.304 460 330.304 460 342.478 462.376 c 257,88,89
 344 470.862 344 470.862 344 483 c 256,90,91
 344 523 344 523 333 562 c 256,92,93
 328 578 328 578 321 597 c 256,94,95
 317 608 317 608 308 631 c 256,96,97
 292 669 292 669 288 686 c 257,98,-1
 318.944 716.944 l 257,99,-1
 287 748 l 257,38,39
EndSplineSet
EndChar

StartChar: bar
Encoding: 125 124 125
GlifName: bar
Width: 700
VWidth: 0
Flags: W
LayerCount: 2
Fore
SplineSet
387 863 m 1280
350 -51 m 1280
313 -14 m 1280
350 899 m 1280
350 899 m 258,4,5
 351 899 351 899 351 898 c 258,6,-1
 387 863 l 257,7,-1
 387 862 l 257,8,-1
 387 -14 l 258,9,10
 387 -15 387 -15 386 -15 c 258,11,-1
 351 -51 l 257,12,-1
 350 -51 l 258,13,14
 349 -51 349 -51 349 -50 c 258,15,-1
 313 -15 l 257,16,-1
 313 -14 l 257,17,-1
 313 862 l 258,18,19
 313 863 313 863 314 863 c 258,20,-1
 349 899 l 257,21,-1
 350 899 l 258,4,5
EndSplineSet
EndChar

StartChar: braceright
Encoding: 126 125 126
GlifName: braceright
Width: 700
VWidth: 0
Flags: W
LayerCount: 2
Fore
SplineSet
389 409 m 1280
426 371 m 1280
311 -26 m 1280
274 11 m 1280
389 460 m 1280
426 423 m 1280
311 747 m 1280
274 784 m 1280
355 316 m 257,8,-1
 320 281 l 257,9,-1
 284 316 l 257,10,11
 285 345 285 345 297 357 c 257,12,-1
 297 358 l 257,13,-1
 333 393 l 258,14,15
 335.984 396.315 335.984 396.315 340.286 398.861 c 257,16,17
 336.94 401.215 336.94 401.215 334 404 c 256,18,19
 334 405 334 405 333 405 c 258,20,-1
 298 441 l 258,21,22
 282 456 282 456 282 483 c 256,23,24
 283 518 283 518 296 562 c 256,25,26
 301 580 301 580 309 600 c 256,27,28
 313 612 313 612 323 634 c 256,29,30
 337 669 337 669 342 688 c 257,31,-1
 366.5 712.5 l 257,32,-1
 345 734 l 258,33,34
 344 738 344 738 342 742 c 256,35,36
 333 746 333 746 323 747 c 256,37,38
 317 747 317 747 311 747 c 257,39,-1
 275 783 l 258,40,41
 274 783 274 783 274 784 c 258,42,-1
 275 785 l 257,43,-1
 310 820 l 257,44,-1
 311 821 l 257,45,46
 350 821 350 821 366 805 c 258,47,-1
 401 770 l 258,48,49
 412 758 412 758 415 734 c 257,50,-1
 390.69 709.69 l 257,51,-1
 413 688 l 257,52,53
 409 670 409 670 393 634 c 256,54,55
 383 608 383 608 380 600 c 256,56,57
 372 579 372 579 367 562 c 256,58,59
 358 528 358 528 356 492 c 256,60,61
 356 478 356 478 361 465 c 257,62,63
 373 460 373 460 386 460 c 256,64,65
 387 460 387 460 389 460 c 258,66,-1
 425 425 l 258,67,68
 426 424 426 424 426 423 c 257,69,-1
 425 423 l 257,70,-1
 400.01 397.296 l 257,71,-1
 425 373 l 257,72,-1
 426 372 l 257,73,-1
 426 371 l 257,74,-1
 425 371 l 257,75,-1
 390 336 l 257,76,-1
 389 335 l 258,77,78
 385 335 385 335 381 335 c 256,79,80
 370 334 370 334 359 330 c 256,81,82
 359 329 359 329 358 328 c 256,83,84
 356 323 356 323 355 316 c 257,8,-1
307 201 m 257,85,-1
 343 236 l 257,86,-1
 378 201 l 257,87,88
 381 192 381 192 391.5 169.5 c 128,-1,89
 402 147 402 147 405.5 137.5 c 128,-1,90
 409 128 409 128 413 109 c 128,-1,91
 417 90 417 90 418 70 c 256,92,93
 418 44 418 44 402 28 c 258,94,-1
 367 -7 l 258,95,96
 366 -8 366 -8 365 -8 c 256,97,98
 347 -26 347 -26 311 -26 c 257,99,-1
 275 10 l 258,100,101
 274 10 274 10 274 11 c 258,102,-1
 275 12 l 257,103,-1
 310 47 l 258,104,105
 311 48 311 48 311.5 48 c 128,-1,106
 312 48 312 48 314 48 c 256,107,108
 326 48 326 48 338 53 c 256,109,110
 340 57 340 57 341 61 c 256,111,112
 344 74 344 74 342 88 c 256,113,114
 339 103 339 103 334 120 c 128,-1,115
 329 137 329 137 320 162.5 c 128,-1,116
 311 188 311 188 307 201 c 257,85,-1
EndSplineSet
EndChar

StartChar: asciitilde
Encoding: 127 126 127
GlifName: asciitilde
Width: 700
VWidth: 0
Flags: W
LayerCount: 2
Fore
SplineSet
170 479 m 1280
133 516 m 1280
530 553 m 1280
567 516 m 1280
211 555 m 258,4,5
 206 554 206 554 206 516 c 258,6,-1
 206 515 l 257,7,-1
 170 479 l 258,8,9
 169 479 169 479 168 480 c 258,10,-1
 133 515 l 257,11,-1
 133 516 l 258,12,13
 133 518 133 518 133 523 c 128,-1,14
 133 528 133 528 133 530 c 256,15,16
 133 539 133 539 134 546 c 256,17,18
 138 576 138 576 147 585 c 258,19,-1
 182 621 l 258,20,21
 189 628 189 628 211 626 c 257,22,-1
 246 590 l 257,23,-1
 211 555 l 258,4,5
396 459 m 258,24,25
 394 460 394 460 340 494 c 256,26,27
 306 515 306 515 287 527 c 257,28,-1
 252 562 l 257,29,-1
 287 597 l 257,30,31
 311 585 311 585 342 565 c 256,32,33
 359 554 359 554 396 530 c 257,34,-1
 432 495 l 257,35,-1
 396 459 l 258,24,25
476 485 m 257,36,37
 482 484 482 484 488 483 c 258,38,-1
 492 483 l 257,39,40
 494 493 494 493 494 516 c 258,41,-1
 494 517 l 257,42,-1
 530 553 l 258,43,44
 531 553 531 553 532 552 c 258,45,-1
 567 517 l 257,46,-1
 567 516 l 258,47,48
 567 472 567 472 550 455 c 258,49,-1
 515 420 l 258,50,51
 505 410 505 410 489 410 c 256,52,53
 485 411 485 411 476 414 c 257,54,-1
 441 450 l 257,55,-1
 476 485 l 257,36,37
EndSplineSet
EndChar

StartChar: dieresis
Encoding: 169 168 169
GlifName: dieresis
Width: 700
VWidth: 0
Flags: W
LayerCount: 2
Fore
SplineSet
223 701 m 1280
259 790 m 1280
297 753 m 1280
260 665 m 1280
403 701 m 1280
440 790 m 1280
477 753 m 1280
441 665 m 1280
260 665 m 257,8,-1
 259 665 l 257,9,-1
 223 701 l 257,10,-1
 223 753 l 258,11,12
 223 754 223 754 224 754 c 258,13,-1
 259 790 l 257,14,-1
 260 790 l 257,15,-1
 261 789 l 257,16,-1
 296 754 l 257,17,-1
 297 753 l 257,18,-1
 297 701 l 257,19,-1
 296 700 l 257,20,-1
 260 665 l 257,8,-1
440 665 m 257,21,-1
 439 665 l 257,22,-1
 404 701 l 257,23,-1
 403 701 l 257,24,-1
 403 753 l 258,25,26
 403 754 403 754 404 754 c 258,27,-1
 440 790 l 258,28,29
 441 790 441 790 441 789 c 258,30,-1
 477 754 l 257,31,-1
 477 753 l 257,32,-1
 477 701 l 257,33,-1
 476 700 l 257,34,-1
 441 665 l 257,35,-1
 440 665 l 257,21,-1
EndSplineSet
EndChar

StartChar: guillemotleft
Encoding: 172 171 172
GlifName: guillemotleft
Width: 700
VWidth: 0
Flags: W
LayerCount: 2
Fore
SplineSet
583 581 m 257,0,-1
 618 546 l 257,1,-1
 619 545 l 257,2,-1
 619 544 l 257,3,-1
 452 306 l 258,4,5
 439 287 439 287 452 268 c 258,6,-1
 619 30 l 257,7,-1
 619 29 l 258,8,9
 619 28 619 28 618 28 c 258,10,-1
 583 -7 l 258,11,12
 582 -8 582 -8 581.5 -7.5 c 258,13,-1
 581 -7 l 257,14,-1
 545 28 l 257,15,-1
 365 286 l 257,16,-1
 365 287 l 257,17,-1
 365 288 l 257,18,-1
 545 546 l 257,19,-1
 581 581 l 257,20,-1
 582 581 l 257,21,-1
 583 581 l 257,0,-1
299 581 m 257,22,-1
 335 546 l 257,23,-1
 335 545 l 257,24,-1
 335 544 l 257,25,-1
 168 306 l 258,26,27
 155 287 155 287 168 268 c 258,28,-1
 335 30 l 257,29,-1
 335 29 l 257,30,-1
 335 28 l 257,31,-1
 299 -7 l 258,32,33
 299 -8 299 -8 298.5 -7.5 c 128,-1,34
 298 -7 298 -7 297 -7 c 258,35,-1
 262 28 l 257,36,-1
 82 286 l 258,37,38
 81 286 81 286 81 287 c 128,-1,39
 81 288 81 288 82 288 c 258,40,-1
 262 546 l 257,41,-1
 297 581 l 257,42,-1
 298 581 l 257,43,-1
 299 581 l 257,22,-1
EndSplineSet
EndChar

StartChar: uni00AD
Encoding: 174 173 174
GlifName: uni00A_D_
Width: 700
VWidth: 0
Flags: W
LayerCount: 2
Fore
SplineSet
143 439 m 1280
593 402 m 1280
557 365 m 1280
107 402 m 1280
107 402 m 258,4,5
 107 403 107 403 108 403 c 258,6,-1
 143 439 l 257,7,-1
 144 439 l 257,8,-1
 556 439 l 258,9,10
 557 439 557 439 557 438 c 258,11,-1
 593 403 l 257,12,-1
 593 402 l 258,13,14
 593 401 593 401 592 401 c 258,15,-1
 557 365 l 257,16,-1
 556 365 l 257,17,-1
 144 365 l 258,18,19
 143 365 143 365 143 366 c 258,20,-1
 107 401 l 257,21,-1
 107 402 l 258,4,5
EndSplineSet
EndChar

StartChar: degree
Encoding: 177 176 177
GlifName: degree
Width: 700
VWidth: 0
Flags: W
LayerCount: 2
Fore
SplineSet
298 524 m 257,0,1
 322 510 322 510 350 510 c 128,-1,2
 378 510 378 510 402 524 c 257,3,4
 416 548 416 548 416 576 c 128,-1,5
 416 604 416 604 402 628 c 257,6,7
 378 642 378 642 350 642 c 128,-1,8
 322 642 322 642 298 628 c 257,9,10
 284 604 284 604 284 576 c 128,-1,11
 284 548 284 548 298 524 c 257,0,1
  PathStart: -1
241 650 m 258,12,-1
 276 685 l 258,13,14
 307 716 307 716 350 716 c 128,-1,15
 393 716 393 716 424 685 c 258,16,-1
 459 650 l 257,17,-1
 460 649 l 258,18,19
 490 618 490 618 490 576 c 256,20,21
 490 533 490 533 459 502 c 258,22,-1
 424 467 l 257,23,-1
 423 466 l 258,24,25
 392 436 392 436 350 436 c 256,26,27
 307 436 307 436 276 467 c 258,28,-1
 241 502 l 258,29,30
 210 533 210 533 210 576 c 128,-1,31
 210 619 210 619 241 650 c 258,12,-1
  PathStart: -1
EndSplineSet
EndChar

StartChar: acute
Encoding: 181 180 181
GlifName: acute
Width: 700
VWidth: 0
Flags: W
LayerCount: 2
Fore
SplineSet
117 660 m 1280
619 779 m 1280
583 741 m 1280
81 622 m 1280
81 623 m 257,4,-1
 82 624 l 257,5,-1
 117 660 l 257,6,-1
 118 660 l 257,7,-1
 581 815 l 258,8,9
 582 815 582 815 583 814 c 258,10,-1
 618 779 l 257,11,-1
 619 779 l 257,12,-1
 619 778 l 257,13,-1
 618 777 l 257,14,-1
 583 742 l 257,15,-1
 583 741 l 257,16,-1
 582 741 l 257,17,-1
 119 587 l 258,18,19
 118 586 118 586 117 587 c 258,20,-1
 82 622 l 257,21,-1
 81 622 l 257,22,-1
 81 623 l 257,4,-1
EndSplineSet
EndChar

StartChar: periodcentered
Encoding: 184 183 184
GlifName: periodcentered
Width: 700
VWidth: 0
Flags: W
LayerCount: 2
Fore
SplineSet
349 395 m 257,0,-1
 350 395 l 258,1,2
 351 395 351 395 351 394 c 258,3,-1
 387 359 l 257,4,-1
 387 358 l 257,5,-1
 387 332 l 257,6,-1
 386 331 l 257,7,-1
 351 296 l 257,8,-1
 350 296 l 257,9,-1
 349 296 l 257,10,-1
 313 332 l 257,11,-1
 313 358 l 257,12,-1
 313 359 l 257,13,-1
 349 395 l 257,0,-1
EndSplineSet
Substitution2: "Single Substitution lookup 22 subtable" periodcentered.case
Substitution2: "Single Substitution lookup 21 subtable" periodcentered.case
Ligature2: "point2 subtable" period period
Substitution2: "Single Substitution lookup 4 subtable" periodcentered.case
Substitution2: "Single Substitution lookup 3 subtable" periodcentered.case
Ligature2: "point subtable" period period
EndChar

StartChar: guillemotright
Encoding: 188 187 188
GlifName: guillemotright
Width: 700
VWidth: 0
Flags: W
LayerCount: 2
Fore
SplineSet
401 578 m 258,0,1
 401 579 401 579 402 578.5 c 258,2,-1
 403 578 l 257,3,-1
 438 543 l 257,4,-1
 618 285 l 258,5,6
 619 285 619 285 619 284 c 128,-1,7
 619 283 619 283 618 283 c 258,8,-1
 438 25 l 257,9,-1
 403 -10 l 257,10,-1
 402 -10 l 257,11,-1
 401 -10 l 257,12,-1
 365 25 l 257,13,-1
 365 26 l 257,14,-1
 365 27 l 257,15,-1
 532 265 l 258,16,17
 545 284 545 284 532 303 c 258,18,-1
 365 541 l 257,19,-1
 365 542 l 257,20,-1
 365 543 l 257,21,-1
 401 578 l 258,0,1
117 578 m 258,22,23
 118 579 118 579 118.5 578.5 c 258,24,-1
 119 578 l 257,25,-1
 155 543 l 257,26,-1
 335 285 l 257,27,-1
 335 284 l 257,28,-1
 335 283 l 257,29,-1
 155 25 l 257,30,-1
 119 -10 l 257,31,-1
 118 -10 l 257,32,-1
 117 -10 l 257,33,-1
 82 25 l 257,34,-1
 81 26 l 257,35,-1
 81 27 l 257,36,-1
 248 265 l 258,37,38
 261 284 261 284 248 303 c 258,39,-1
 81 541 l 257,40,-1
 81 542 l 258,41,42
 81 543 81 543 82 543 c 258,43,-1
 117 578 l 258,22,23
EndSplineSet
EndChar

StartChar: Agrave
Encoding: 193 192 193
GlifName: A_grave
Width: 700
VWidth: 0
Flags: W
LayerCount: 2
Fore
SplineSet
247 329 m 1280
490 292 m 1280
453 255 m 1280
210 292 m 1280
545 34 m 1280
401 844 m 1280
438 808 m 1280
583 -2 m 1280
299 844 m 1280
155 34 m 1280
117 -2 m 1280
262 808 m 1280
81 1091 m 1280
583 972 m 1280
619 934 m 1280
117 1053 m 1280
582 -3 m 257,16,-1
 581 -2 l 257,17,-1
 546 33 l 257,18,-1
 545 34 l 257,19,20
 512.563 173.381 512.563 173.381 485.923 287.835 c 257,21,-1
 454 255 l 257,22,-1
 453 255 l 257,23,-1
 247 255 l 258,24,25
 246 255 246 255 246 256 c 258,26,-1
 213.95 287.159 l 257,27,-1
 155 34 l 257,28,-1
 154 33 l 257,29,-1
 119 -2 l 257,30,-1
 118 -3 l 257,31,-1
 117 -2 l 257,32,-1
 82 33 l 258,33,34
 81 34 81 34 81 35 c 258,35,-1
 262 808 l 257,36,-1
 297 844 l 258,37,38
 298 844 298 844 299 844 c 258,39,-1
 335 808 l 257,40,-1
 335 807 l 257,41,-1
 216.668 298.83 l 257,42,-1
 246 329 l 257,43,-1
 247 329 l 257,44,-1
 453 329 l 258,45,46
 454 329 454 329 454 328 c 258,47,-1
 483.177 299.634 l 257,48,49
 376.898 756.234 376.898 756.234 365 807 c 257,50,-1
 365 808 l 257,51,-1
 401 844 l 258,52,53
 402 844 402 844 403 844 c 258,54,-1
 438 808 l 257,55,-1
 619 35 l 258,56,57
 619 34 619 34 618 33 c 258,58,-1
 583 -2 l 258,59,60
 582 -2 582 -2 582 -3 c 257,16,-1
117 1053 m 257,61,-1
 117 1054 l 257,62,-1
 82 1089 l 257,63,-1
 81 1090 l 257,64,-1
 81 1091 l 257,65,-1
 82 1091 l 257,66,-1
 117 1126 l 258,67,68
 118 1127 118 1127 119 1127 c 258,69,-1
 582 972 l 257,70,-1
 583 972 l 257,71,-1
 618 936 l 257,72,-1
 619 935 l 257,73,-1
 619 934 l 257,74,-1
 618 934 l 257,75,-1
 583 899 l 258,76,77
 582 898 582 898 581 899 c 258,78,-1
 118 1053 l 257,79,-1
 117 1053 l 257,61,-1
EndSplineSet
EndChar

StartChar: Aacute
Encoding: 194 193 194
GlifName: A_acute
Width: 700
VWidth: 0
Flags: W
LayerCount: 2
Fore
SplineSet
247 329 m 1280
490 292 m 1280
453 255 m 1280
210 292 m 1280
545 34 m 1280
401 844 m 1280
438 808 m 1280
583 -2 m 1280
299 844 m 1280
155 34 m 1280
117 -2 m 1280
262 808 m 1280
582 -3 m 257,12,-1
 581 -2 l 257,13,-1
 546 33 l 257,14,-1
 545 34 l 257,15,16
 512.563 173.381 512.563 173.381 485.923 287.835 c 257,17,-1
 454 255 l 257,18,-1
 453 255 l 257,19,-1
 247 255 l 258,20,21
 246 255 246 255 246 256 c 258,22,-1
 213.95 287.159 l 257,23,-1
 155 34 l 257,24,-1
 154 33 l 257,25,-1
 119 -2 l 257,26,-1
 118 -3 l 257,27,-1
 117 -2 l 257,28,-1
 82 33 l 258,29,30
 81 34 81 34 81 35 c 258,31,-1
 262 808 l 257,32,-1
 297 844 l 258,33,34
 298 844 298 844 299 844 c 258,35,-1
 335 808 l 257,36,-1
 335 807 l 257,37,-1
 216.668 298.83 l 257,38,-1
 246 329 l 257,39,-1
 247 329 l 257,40,-1
 453 329 l 258,41,42
 454 329 454 329 454 328 c 258,43,-1
 483.177 299.634 l 257,44,45
 376.898 756.234 376.898 756.234 365 807 c 257,46,-1
 365 808 l 257,47,-1
 401 844 l 258,48,49
 402 844 402 844 403 844 c 258,50,-1
 438 808 l 257,51,-1
 619 35 l 258,52,53
 619 34 619 34 618 33 c 258,54,-1
 583 -2 l 258,55,56
 582 -2 582 -2 582 -3 c 257,12,-1
619 1092 m 257,57,-1
 618 1091 l 257,58,-1
 583 1056 l 257,59,-1
 583 1055 l 257,60,-1
 582 1055 l 257,61,-1
 119 901 l 258,62,63
 118 900 118 900 117 901 c 258,64,-1
 82 936 l 257,65,-1
 81 936 l 257,66,-1
 81 937 l 258,67,68
 81 938 81 938 82 938 c 258,69,-1
 117 974 l 257,70,-1
 118 974 l 257,71,-1
 581 1129 l 258,72,73
 582 1129 582 1129 583 1128 c 258,74,-1
 618 1093 l 257,75,-1
 619 1093 l 257,76,-1
 619 1092 l 257,57,-1
EndSplineSet
EndChar

StartChar: Acircumflex
Encoding: 195 194 195
GlifName: A_circumflex
Width: 700
VWidth: 0
Flags: W
LayerCount: 2
Fore
SplineSet
247 329 m 1280
490 292 m 1280
453 255 m 1280
210 292 m 1280
545 34 m 1280
401 844 m 1280
438 808 m 1280
583 -2 m 1280
299 844 m 1280
155 34 m 1280
117 -2 m 1280
262 808 m 1280
582 -3 m 257,12,-1
 581 -2 l 257,13,-1
 546 33 l 257,14,-1
 545 34 l 257,15,16
 512.563 173.381 512.563 173.381 485.923 287.835 c 257,17,-1
 454 255 l 257,18,-1
 453 255 l 257,19,-1
 247 255 l 258,20,21
 246 255 246 255 246 256 c 258,22,-1
 213.95 287.159 l 257,23,-1
 155 34 l 257,24,-1
 154 33 l 257,25,-1
 119 -2 l 257,26,-1
 118 -3 l 257,27,-1
 117 -2 l 257,28,-1
 82 33 l 258,29,30
 81 34 81 34 81 35 c 258,31,-1
 262 808 l 257,32,-1
 297 844 l 258,33,34
 298 844 298 844 299 844 c 258,35,-1
 335 808 l 257,36,-1
 335 807 l 257,37,-1
 216.668 298.83 l 257,38,-1
 246 329 l 257,39,-1
 247 329 l 257,40,-1
 453 329 l 258,41,42
 454 329 454 329 454 328 c 258,43,-1
 483.177 299.634 l 257,44,45
 376.898 756.234 376.898 756.234 365 807 c 257,46,-1
 365 808 l 257,47,-1
 401 844 l 258,48,49
 402 844 402 844 403 844 c 258,50,-1
 438 808 l 257,51,-1
 619 35 l 258,52,53
 619 34 619 34 618 33 c 258,54,-1
 583 -2 l 258,55,56
 582 -2 582 -2 582 -3 c 257,12,-1
81 936 m 257,57,-1
 81.5 936.5 l 258,58,59
 82 937 82 937 82 938 c 258,60,-1
 117 973 l 257,61,-1
 349 1128 l 258,62,63
 350 1128 350 1128 351 1128 c 258,64,-1
 583 973 l 257,65,-1
 618 938 l 257,66,-1
 619 937 l 257,67,-1
 619 936 l 257,68,-1
 583 900 l 257,69,-1
 582 900 l 257,70,-1
 581 900 l 257,71,-1
 368 1042 l 258,72,73
 350 1054 350 1054 332 1042 c 258,74,-1
 119 900 l 257,75,-1
 118 900 l 257,76,-1
 117 900 l 257,77,-1
 81 936 l 257,57,-1
EndSplineSet
EndChar

StartChar: Atilde
Encoding: 196 195 196
GlifName: A_tilde
Width: 700
VWidth: 0
Flags: W
LayerCount: 2
Fore
SplineSet
247 329 m 1280
490 292 m 1280
453 255 m 1280
210 292 m 1280
545 34 m 1280
401 844 m 1280
438 808 m 1280
583 -2 m 1280
299 844 m 1280
155 34 m 1280
117 -2 m 1280
262 808 m 1280
170 977 m 1280
133 1014 m 1280
530 1051 m 1280
567 1014 m 1280
582 -3 m 257,16,-1
 581 -2 l 257,17,-1
 546 33 l 257,18,-1
 545 34 l 257,19,20
 512.563 173.381 512.563 173.381 485.923 287.835 c 257,21,-1
 454 255 l 257,22,-1
 453 255 l 257,23,-1
 247 255 l 258,24,25
 246 255 246 255 246 256 c 258,26,-1
 213.95 287.159 l 257,27,-1
 155 34 l 257,28,-1
 154 33 l 257,29,-1
 119 -2 l 257,30,-1
 118 -3 l 257,31,-1
 117 -2 l 257,32,-1
 82 33 l 258,33,34
 81 34 81 34 81 35 c 258,35,-1
 262 808 l 257,36,-1
 297 844 l 258,37,38
 298 844 298 844 299 844 c 258,39,-1
 335 808 l 257,40,-1
 335 807 l 257,41,-1
 216.668 298.83 l 257,42,-1
 246 329 l 257,43,-1
 247 329 l 257,44,-1
 453 329 l 258,45,46
 454 329 454 329 454 328 c 258,47,-1
 483.177 299.634 l 257,48,49
 376.898 756.234 376.898 756.234 365 807 c 257,50,-1
 365 808 l 257,51,-1
 401 844 l 258,52,53
 402 844 402 844 403 844 c 258,54,-1
 438 808 l 257,55,-1
 619 35 l 258,56,57
 619 34 619 34 618 33 c 258,58,-1
 583 -2 l 258,59,60
 582 -2 582 -2 582 -3 c 257,16,-1
211 1053 m 258,61,62
 206 1052 206 1052 206 1014 c 258,63,-1
 206 1013 l 257,64,-1
 170 977 l 258,65,66
 169 977 169 977 168 978 c 258,67,-1
 133 1013 l 257,68,-1
 133 1014 l 258,69,70
 133 1016 133 1016 133 1018 c 128,-1,71
 133 1020 133 1020 133 1023 c 128,-1,72
 133 1026 133 1026 133 1028 c 256,73,74
 133 1037 133 1037 134 1044 c 256,75,76
 138 1074 138 1074 147 1083 c 258,77,-1
 182 1119 l 258,78,79
 189 1126 189 1126 211 1124 c 257,80,-1
 246 1088 l 257,81,-1
 211 1053 l 258,61,62
396 957 m 258,82,83
 394 958 394 958 340 992 c 256,84,85
 306 1013 306 1013 287 1025 c 257,86,-1
 252 1060 l 257,87,-1
 287 1095 l 257,88,89
 311 1083 311 1083 342 1063 c 256,90,91
 359 1052 359 1052 396 1028 c 257,92,-1
 432 993 l 257,93,-1
 396 957 l 258,82,83
476 983 m 257,94,95
 482 982 482 982 488 981 c 258,96,-1
 492 981 l 257,97,98
 494 991 494 991 494 1014 c 258,99,-1
 494 1015 l 257,100,-1
 530 1051 l 258,101,102
 531 1051 531 1051 532 1050 c 258,103,-1
 567 1015 l 257,104,-1
 567 1014 l 258,105,106
 567 970 567 970 550 953 c 258,107,-1
 515 918 l 258,108,109
 505 908 505 908 489 908 c 256,110,111
 485 909 485 909 476 912 c 257,112,-1
 441 948 l 257,113,-1
 476 983 l 257,94,95
EndSplineSet
EndChar

StartChar: Adieresis
Encoding: 197 196 197
GlifName: A_dieresis
Width: 700
VWidth: 0
Flags: W
LayerCount: 2
Fore
SplineSet
247 329 m 1280
490 292 m 1280
453 255 m 1280
210 292 m 1280
545 34 m 1280
401 844 m 1280
438 808 m 1280
583 -2 m 1280
299 844 m 1280
155 34 m 1280
117 -2 m 1280
262 808 m 1280
223 1017 m 1280
259 1106 m 1280
297 1069 m 1280
260 981 m 1280
403 1017 m 1280
440 1106 m 1280
477 1069 m 1280
441 981 m 1280
582 -3 m 257,20,-1
 581 -2 l 257,21,-1
 546 33 l 257,22,-1
 545 34 l 257,23,24
 512.563 173.381 512.563 173.381 485.923 287.835 c 257,25,-1
 454 255 l 257,26,-1
 453 255 l 257,27,-1
 247 255 l 258,28,29
 246 255 246 255 246 256 c 258,30,-1
 213.95 287.159 l 257,31,-1
 155 34 l 257,32,-1
 154 33 l 257,33,-1
 119 -2 l 257,34,-1
 118 -3 l 257,35,-1
 117 -2 l 257,36,-1
 82 33 l 258,37,38
 81 34 81 34 81 35 c 258,39,-1
 262 808 l 257,40,-1
 297 844 l 258,41,42
 298 844 298 844 299 844 c 258,43,-1
 335 808 l 257,44,-1
 335 807 l 257,45,-1
 216.668 298.83 l 257,46,-1
 246 329 l 257,47,-1
 247 329 l 257,48,-1
 453 329 l 258,49,50
 454 329 454 329 454 328 c 258,51,-1
 483.177 299.634 l 257,52,53
 376.898 756.234 376.898 756.234 365 807 c 257,54,-1
 365 808 l 257,55,-1
 401 844 l 258,56,57
 402 844 402 844 403 844 c 258,58,-1
 438 808 l 257,59,-1
 619 35 l 258,60,61
 619 34 619 34 618 33 c 258,62,-1
 583 -2 l 258,63,64
 582 -2 582 -2 582 -3 c 257,20,-1
260 981 m 257,65,-1
 259 981 l 257,66,-1
 223 1017 l 257,67,-1
 223 1069 l 258,68,69
 223 1070 223 1070 224 1070 c 258,70,-1
 259 1106 l 257,71,-1
 260 1106 l 257,72,-1
 261 1105 l 257,73,-1
 296 1070 l 257,74,-1
 297 1069 l 257,75,-1
 297 1017 l 257,76,-1
 296 1016 l 257,77,-1
 260 981 l 257,65,-1
440 981 m 257,78,-1
 439 981 l 257,79,-1
 404 1017 l 257,80,-1
 403 1017 l 257,81,-1
 403 1069 l 258,82,83
 403 1070 403 1070 404 1070 c 258,84,-1
 440 1106 l 258,85,86
 441 1106 441 1106 441 1105 c 258,87,-1
 477 1070 l 257,88,-1
 477 1069 l 257,89,-1
 477 1017 l 257,90,-1
 476 1016 l 257,91,-1
 441 981 l 257,92,-1
 440 981 l 257,78,-1
EndSplineSet
EndChar

StartChar: Aring
Encoding: 198 197 198
GlifName: A_ring
Width: 700
VWidth: 0
Flags: W
LayerCount: 2
Fore
SplineSet
247 329 m 1280
490 292 m 1280
453 255 m 1280
210 292 m 1280
545 34 m 1280
401 844 m 1280
438 808 m 1280
583 -2 m 1280
299 844 m 1280
155 34 m 1280
117 -2 m 1280
262 808 m 1280
582 -3 m 257,12,-1
 581 -2 l 257,13,-1
 546 33 l 257,14,-1
 545 34 l 257,15,16
 512.563 173.381 512.563 173.381 485.923 287.835 c 257,17,-1
 454 255 l 257,18,-1
 453 255 l 257,19,-1
 247 255 l 258,20,21
 246 255 246 255 246 256 c 258,22,-1
 213.95 287.159 l 257,23,-1
 155 34 l 257,24,-1
 154 33 l 257,25,-1
 119 -2 l 257,26,-1
 118 -3 l 257,27,-1
 117 -2 l 257,28,-1
 82 33 l 258,29,30
 81 34 81 34 81 35 c 258,31,-1
 262 808 l 257,32,-1
 297 844 l 258,33,34
 298 844 298 844 299 844 c 258,35,-1
 335 808 l 257,36,-1
 335 807 l 257,37,-1
 216.668 298.83 l 257,38,-1
 246 329 l 257,39,-1
 247 329 l 257,40,-1
 453 329 l 258,41,42
 454 329 454 329 454 328 c 258,43,-1
 483.177 299.634 l 257,44,45
 376.898 756.234 376.898 756.234 365 807 c 257,46,-1
 365 808 l 257,47,-1
 401 844 l 258,48,49
 402 844 402 844 403 844 c 258,50,-1
 438 808 l 257,51,-1
 619 35 l 258,52,53
 619 34 619 34 618 33 c 258,54,-1
 583 -2 l 258,55,56
 582 -2 582 -2 582 -3 c 257,12,-1
298 943 m 257,57,58
 322 929 322 929 350 929 c 128,-1,59
 378 929 378 929 402 943 c 257,60,61
 416 967 416 967 416 995 c 128,-1,62
 416 1023 416 1023 402 1047 c 257,63,64
 378 1061 378 1061 350 1061 c 128,-1,65
 322 1061 322 1061 298 1047 c 257,66,67
 284 1023 284 1023 284 995 c 128,-1,68
 284 967 284 967 298 943 c 257,57,58
  PathStart: -1
210 995 m 256,69,70
 210 1038 210 1038 241 1069 c 258,71,-1
 276 1104 l 258,72,73
 307 1135 307 1135 350 1135 c 128,-1,74
 393 1135 393 1135 424 1104 c 258,75,-1
 459 1069 l 257,76,-1
 460 1068 l 258,77,78
 490 1037 490 1037 490 995 c 256,79,80
 490 952 490 952 459 921 c 258,81,-1
 424 886 l 257,82,-1
 423 885 l 258,83,84
 392 855 392 855 350 855 c 256,85,86
 307 855 307 855 276 886 c 258,87,-1
 241 921 l 257,88,-1
 240 922 l 258,89,90
 210 953 210 953 210 995 c 256,69,70
EndSplineSet
EndChar

StartChar: AE
Encoding: 199 198 199
GlifName: A_E_
Width: 700
VWidth: 0
Flags: W
LayerCount: 2
Fore
SplineSet
247 329 m 1280
343 292 m 1280
306 255 m 1280
210 292 m 1280
299 844 m 1280
155 34 m 1280
117 -2 m 1280
262 808 m 1280
582 -9 m 1280
468 27 m 1280
505 64 m 1280
619 28 m 1280
505 451 m 1280
619 414 m 1280
582 377 m 1280
468 414 m 1280
505 837 m 1280
619 801 m 1280
582 764 m 1280
468 800 m 1280
439 801 m 1280
402 -9 m 1280
365 27 m 1280
402 837 m 1280
262 808 m 257,24,-1
 297 844 l 258,25,26
 298 844 298 844 299 844 c 258,27,-1
 335 808 l 257,28,-1
 335 807 l 257,29,-1
 216.668 298.83 l 257,30,-1
 246 329 l 257,31,-1
 247 329 l 257,32,-1
 306 329 l 258,33,34
 307 329 307 329 307 328 c 258,35,-1
 343 293 l 257,36,-1
 343 292 l 258,37,38
 343 291 343 291 342 291 c 258,39,-1
 307 255 l 257,40,-1
 306 255 l 257,41,-1
 247 255 l 258,42,43
 246 255 246 255 246 256 c 258,44,-1
 213.95 287.159 l 257,45,-1
 155 34 l 257,46,-1
 154 33 l 257,47,-1
 119 -2 l 257,48,-1
 118 -3 l 257,49,-1
 117 -2 l 257,50,-1
 82 33 l 258,51,52
 81 34 81 34 81 35 c 258,53,-1
 262 808 l 257,24,-1
619 27 m 257,54,-1
 618 26 l 257,55,-1
 583 -9 l 257,56,-1
 582 -9 l 257,57,-1
 505 -9 l 257,58,-1
 504 -9 l 257,59,-1
 469 27 l 257,60,-1
 468 27 l 257,61,62
 468 28 468 28 469 29 c 258,63,-1
 505 64 l 257,64,-1
 582 64 l 258,65,66
 583 64 583 64 583 63 c 258,67,-1
 619 28 l 257,68,-1
 619 27 l 257,54,-1
468 414 m 258,69,70
 468 415 468 415 469 415 c 258,71,-1
 505 451 l 257,72,-1
 582 451 l 258,73,74
 583 451 583 451 583 450 c 258,75,-1
 619 415 l 257,76,-1
 619 414 l 258,77,78
 619 413 619 413 618 413 c 258,79,-1
 583 377 l 257,80,-1
 582 377 l 257,81,-1
 505 377 l 257,82,-1
 504 378 l 257,83,-1
 469 413 l 257,84,-1
 468 414 l 258,69,70
468 801 m 257,85,-1
 469 802 l 257,86,-1
 505 837 l 257,87,-1
 582 837 l 257,88,-1
 583 837 l 257,89,-1
 619 801 l 258,90,91
 619 800 619 800 618 799 c 258,92,-1
 583 764 l 257,93,-1
 582 764 l 257,94,-1
 505 764 l 257,95,-1
 504 765 l 257,96,-1
 469 800 l 257,97,-1
 468 800 l 257,98,-1
 468 801 l 257,85,-1
402 837 m 257,99,-1
 403 837 l 257,100,-1
 439 801 l 257,101,-1
 439 27 l 257,102,-1
 438 26 l 257,103,-1
 403 -9 l 257,104,-1
 402 -9 l 257,105,-1
 401 -9 l 257,106,-1
 365 27 l 257,107,-1
 365 801 l 257,108,-1
 366 802 l 257,109,-1
 401 837 l 257,110,-1
 402 837 l 257,99,-1
EndSplineSet
EndChar

StartChar: Ccedilla
Encoding: 200 199 200
GlifName: C_cedilla
Width: 700
VWidth: 0
Flags: W
LayerCount: 2
Fore
SplineSet
81 568 m 1280
582 531 m 1280
545 568 m 1280
118 531 m 1280
118 502 m 1280
155 465 m 1280
582 296 m 1280
619 259 m 1280
81 465 m 1280
287 -87 m 1280
324 -50 m 1280
118 531 m 258,11,12
 117 531 117 531 117 532 c 258,13,-1
 81 567 l 257,14,-1
 81 568 l 258,15,16
 81 665 81 665 149 733 c 258,17,-1
 185 768 l 257,18,-1
 186 769 l 258,19,20
 254 837 254 837 350 837 c 256,21,22
 447 837 447 837 515 768 c 258,23,-1
 551 733 l 258,24,25
 619 665 619 665 619 568 c 256,26,27
 619 567 619 567 618 567 c 258,28,-1
 583 531 l 257,29,-1
 582 531 l 258,30,31
 581 531 581 531 581 532 c 258,32,-1
 545 567 l 257,33,-1
 545 568 l 258,34,35
 545 649 545 649 494 712 c 257,36,37
 431 763 431 763 350 763 c 128,-1,38
 269 763 269 763 206 712 c 257,39,40
 155 649 155 649 155 568 c 256,41,42
 155 567 155 567 154 567 c 258,43,-1
 119 531 l 257,44,-1
 118 531 l 258,11,12
117 502 m 257,45,-1
 118 502 l 258,46,47
 119 502 119 502 119 501 c 258,48,-1
 155 466 l 257,49,-1
 155 465 l 257,50,-1
 155 259 l 258,51,52
 155 177 155 177 206 115 c 257,53,54
 269 64 269 64 350 64 c 128,-1,55
 431 64 431 64 494 115 c 257,56,57
 545 178 545 178 545 259 c 257,58,-1
 546 260 l 257,59,-1
 581 295 l 257,60,-1
 582 296 l 258,61,62
 583 296 583 296 583 295 c 258,63,-1
 619 259 l 257,64,65
 619 162 619 162 551 94 c 258,66,-1
 515 59 l 257,67,-1
 514 58 l 258,68,69
 446 -10 446 -10 350 -10 c 128,-1,70
 254 -10 254 -10 185 58 c 258,71,-1
 150 93 l 257,72,-1
 149 94 l 258,73,74
 81 163 81 163 81 259 c 258,75,-1
 81 465 l 257,76,-1
 81 466 l 257,77,-1
 117 502 l 257,45,-1
323 -278 m 257,78,-1
 288 -243 l 257,79,-1
 287 -242 l 257,80,-1
 288 -241 l 257,81,82
 326 -190 326 -190 336 -126 c 257,83,-1
 336 -124 l 257,84,-1
 324 -124 l 257,85,-1
 323 -123 l 257,86,-1
 288 -88 l 257,87,-1
 287 -87 l 258,88,89
 287 -86 287 -86 288 -86 c 258,90,-1
 324 -50 l 257,91,-1
 375 -50 l 257,92,-1
 377 -51 l 257,93,-1
 413 -87 l 257,94,95
 413 -173 413 -173 361 -243 c 257,96,-1
 325 -278 l 257,97,-1
 324 -278 l 257,98,-1
 323 -278 l 257,78,-1
EndSplineSet
EndChar

StartChar: Egrave
Encoding: 201 200 201
GlifName: E_grave
Width: 700
VWidth: 0
Flags: W
LayerCount: 2
Fore
SplineSet
582 -9 m 1280
184 27 m 1280
221 64 m 1280
619 28 m 1280
221 451 m 1280
619 414 m 1280
582 377 m 1280
184 414 m 1280
221 837 m 1280
619 801 m 1280
582 764 m 1280
184 800 m 1280
155 801 m 1280
118 -9 m 1280
81 27 m 1280
118 837 m 1280
81 1091 m 1280
583 972 m 1280
619 934 m 1280
117 1053 m 1280
619 27 m 257,20,-1
 618 26 l 257,21,-1
 583 -9 l 257,22,-1
 582 -9 l 257,23,-1
 221 -9 l 257,24,-1
 220 -9 l 257,25,-1
 185 27 l 257,26,-1
 184 27 l 257,27,28
 184 28 184 28 185 29 c 258,29,-1
 221 64 l 257,30,-1
 582 64 l 258,31,32
 583 64 583 64 583 63 c 258,33,-1
 619 28 l 257,34,-1
 619 27 l 257,20,-1
184 414 m 258,35,36
 184 415 184 415 185 415 c 258,37,-1
 221 451 l 257,38,-1
 582 451 l 258,39,40
 583 451 583 451 583 450 c 258,41,-1
 619 415 l 257,42,-1
 619 414 l 258,43,44
 619 413 619 413 618 413 c 258,45,-1
 583 377 l 257,46,-1
 582 377 l 257,47,-1
 221 377 l 257,48,-1
 220 378 l 257,49,-1
 185 413 l 257,50,-1
 184 414 l 258,35,36
184 801 m 257,51,-1
 185 802 l 257,52,-1
 221 837 l 257,53,-1
 582 837 l 257,54,-1
 583 837 l 257,55,-1
 619 801 l 258,56,57
 619 800 619 800 618 799 c 258,58,-1
 583 764 l 257,59,-1
 582 764 l 257,60,-1
 221 764 l 257,61,-1
 220 765 l 257,62,-1
 185 800 l 257,63,-1
 184 800 l 257,64,-1
 184 801 l 257,51,-1
118 837 m 257,65,-1
 119 837 l 257,66,-1
 155 801 l 257,67,-1
 155 27 l 257,68,-1
 154 26 l 257,69,-1
 119 -9 l 257,70,-1
 118 -9 l 257,71,-1
 117 -9 l 257,72,-1
 81 27 l 257,73,-1
 81 801 l 257,74,-1
 82 802 l 257,75,-1
 117 837 l 257,76,-1
 118 837 l 257,65,-1
117 1053 m 257,77,-1
 117 1054 l 257,78,-1
 82 1089 l 257,79,-1
 81 1090 l 257,80,-1
 81 1091 l 257,81,-1
 82 1091 l 257,82,-1
 117 1126 l 258,83,84
 118 1127 118 1127 119 1127 c 258,85,-1
 582 972 l 257,86,-1
 583 972 l 257,87,-1
 618 936 l 257,88,-1
 619 935 l 257,89,-1
 619 934 l 257,90,-1
 618 934 l 257,91,-1
 583 899 l 258,92,93
 582 898 582 898 581 899 c 258,94,-1
 118 1053 l 257,95,-1
 117 1053 l 257,77,-1
EndSplineSet
Substitution2: "Single Substitution lookup 34 subtable" Emacron
Substitution2: "Single Substitution lookup 30 subtable" Emacron
Substitution2: "Single Substitution lookup 26 subtable" Emacron
Substitution2: "Single Substitution lookup 17 subtable" Emacron
Substitution2: "Single Substitution lookup 13 subtable" Emacron
Substitution2: "Single Substitution lookup 9 subtable" Emacron
EndChar

StartChar: Eacute
Encoding: 202 201 202
GlifName: E_acute
Width: 700
VWidth: 0
Flags: W
LayerCount: 2
Fore
SplineSet
582 -9 m 1280
184 27 m 1280
221 64 m 1280
619 28 m 1280
221 451 m 1280
619 414 m 1280
582 377 m 1280
184 414 m 1280
221 837 m 1280
619 801 m 1280
582 764 m 1280
184 800 m 1280
155 801 m 1280
118 -9 m 1280
81 27 m 1280
118 837 m 1280
619 27 m 257,16,-1
 618 26 l 257,17,-1
 583 -9 l 257,18,-1
 582 -9 l 257,19,-1
 221 -9 l 257,20,-1
 220 -9 l 257,21,-1
 185 27 l 257,22,-1
 184 27 l 257,23,24
 184 28 184 28 185 29 c 258,25,-1
 221 64 l 257,26,-1
 582 64 l 258,27,28
 583 64 583 64 583 63 c 258,29,-1
 619 28 l 257,30,-1
 619 27 l 257,16,-1
184 414 m 258,31,32
 184 415 184 415 185 415 c 258,33,-1
 221 451 l 257,34,-1
 582 451 l 258,35,36
 583 451 583 451 583 450 c 258,37,-1
 619 415 l 257,38,-1
 619 414 l 258,39,40
 619 413 619 413 618 413 c 258,41,-1
 583 377 l 257,42,-1
 582 377 l 257,43,-1
 221 377 l 257,44,-1
 220 378 l 257,45,-1
 185 413 l 257,46,-1
 184 414 l 258,31,32
184 801 m 257,47,-1
 185 802 l 257,48,-1
 221 837 l 257,49,-1
 582 837 l 257,50,-1
 583 837 l 257,51,-1
 619 801 l 258,52,53
 619 800 619 800 618 799 c 258,54,-1
 583 764 l 257,55,-1
 582 764 l 257,56,-1
 221 764 l 257,57,-1
 220 765 l 257,58,-1
 185 800 l 257,59,-1
 184 800 l 257,60,-1
 184 801 l 257,47,-1
118 837 m 257,61,-1
 119 837 l 257,62,-1
 155 801 l 257,63,-1
 155 27 l 257,64,-1
 154 26 l 257,65,-1
 119 -9 l 257,66,-1
 118 -9 l 257,67,-1
 117 -9 l 257,68,-1
 81 27 l 257,69,-1
 81 801 l 257,70,-1
 82 802 l 257,71,-1
 117 837 l 257,72,-1
 118 837 l 257,61,-1
619 1092 m 257,73,-1
 618 1091 l 257,74,-1
 583 1056 l 257,75,-1
 583 1055 l 257,76,-1
 582 1055 l 257,77,-1
 119 901 l 258,78,79
 118 900 118 900 117 901 c 258,80,-1
 82 936 l 257,81,-1
 81 936 l 257,82,-1
 81 937 l 258,83,84
 81 938 81 938 82 938 c 258,85,-1
 117 974 l 257,86,-1
 118 974 l 257,87,-1
 581 1129 l 258,88,89
 582 1129 582 1129 583 1128 c 258,90,-1
 618 1093 l 257,91,-1
 619 1093 l 257,92,-1
 619 1092 l 257,73,-1
EndSplineSet
Substitution2: "Single Substitution lookup 33 subtable" Emacron
Substitution2: "Single Substitution lookup 16 subtable" Emacron
EndChar

StartChar: Ecircumflex
Encoding: 203 202 203
GlifName: E_circumflex
Width: 700
VWidth: 0
Flags: W
LayerCount: 2
Fore
SplineSet
582 -9 m 1280
184 27 m 1280
221 64 m 1280
619 28 m 1280
221 451 m 1280
619 414 m 1280
582 377 m 1280
184 414 m 1280
221 837 m 1280
619 801 m 1280
582 764 m 1280
184 800 m 1280
155 801 m 1280
118 -9 m 1280
81 27 m 1280
118 837 m 1280
619 27 m 257,16,-1
 618 26 l 257,17,-1
 583 -9 l 257,18,-1
 582 -9 l 257,19,-1
 221 -9 l 257,20,-1
 220 -9 l 257,21,-1
 185 27 l 257,22,-1
 184 27 l 257,23,24
 184 28 184 28 185 29 c 258,25,-1
 221 64 l 257,26,-1
 582 64 l 258,27,28
 583 64 583 64 583 63 c 258,29,-1
 619 28 l 257,30,-1
 619 27 l 257,16,-1
184 414 m 258,31,32
 184 415 184 415 185 415 c 258,33,-1
 221 451 l 257,34,-1
 582 451 l 258,35,36
 583 451 583 451 583 450 c 258,37,-1
 619 415 l 257,38,-1
 619 414 l 258,39,40
 619 413 619 413 618 413 c 258,41,-1
 583 377 l 257,42,-1
 582 377 l 257,43,-1
 221 377 l 257,44,-1
 220 378 l 257,45,-1
 185 413 l 257,46,-1
 184 414 l 258,31,32
184 801 m 257,47,-1
 185 802 l 257,48,-1
 221 837 l 257,49,-1
 582 837 l 257,50,-1
 583 837 l 257,51,-1
 619 801 l 258,52,53
 619 800 619 800 618 799 c 258,54,-1
 583 764 l 257,55,-1
 582 764 l 257,56,-1
 221 764 l 257,57,-1
 220 765 l 257,58,-1
 185 800 l 257,59,-1
 184 800 l 257,60,-1
 184 801 l 257,47,-1
118 837 m 257,61,-1
 119 837 l 257,62,-1
 155 801 l 257,63,-1
 155 27 l 257,64,-1
 154 26 l 257,65,-1
 119 -9 l 257,66,-1
 118 -9 l 257,67,-1
 117 -9 l 257,68,-1
 81 27 l 257,69,-1
 81 801 l 257,70,-1
 82 802 l 257,71,-1
 117 837 l 257,72,-1
 118 837 l 257,61,-1
81 936 m 257,73,-1
 81.5 936.5 l 258,74,75
 82 937 82 937 82 938 c 258,76,-1
 117 973 l 257,77,-1
 349 1128 l 258,78,79
 350 1128 350 1128 351 1128 c 258,80,-1
 583 973 l 257,81,-1
 618 938 l 257,82,-1
 619 937 l 257,83,-1
 619 936 l 257,84,-1
 583 900 l 257,85,-1
 582 900 l 257,86,-1
 581 900 l 257,87,-1
 368 1042 l 258,88,89
 350 1054 350 1054 332 1042 c 258,90,-1
 119 900 l 257,91,-1
 118 900 l 257,92,-1
 117 900 l 257,93,-1
 81 936 l 257,73,-1
EndSplineSet
EndChar

StartChar: Edieresis
Encoding: 204 203 204
GlifName: E_dieresis
Width: 700
VWidth: 0
Flags: W
LayerCount: 2
Fore
SplineSet
582 -9 m 1280
184 27 m 1280
221 64 m 1280
619 28 m 1280
221 451 m 1280
619 414 m 1280
582 377 m 1280
184 414 m 1280
221 837 m 1280
619 801 m 1280
582 764 m 1280
184 800 m 1280
155 801 m 1280
118 -9 m 1280
81 27 m 1280
118 837 m 1280
223 1017 m 1280
259 1106 m 1280
297 1069 m 1280
260 981 m 1280
403 1017 m 1280
440 1106 m 1280
477 1069 m 1280
441 981 m 1280
619 27 m 257,24,-1
 618 26 l 257,25,-1
 583 -9 l 257,26,-1
 582 -9 l 257,27,-1
 221 -9 l 257,28,-1
 220 -9 l 257,29,-1
 185 27 l 257,30,-1
 184 27 l 257,31,32
 184 28 184 28 185 29 c 258,33,-1
 221 64 l 257,34,-1
 582 64 l 258,35,36
 583 64 583 64 583 63 c 258,37,-1
 619 28 l 257,38,-1
 619 27 l 257,24,-1
184 414 m 258,39,40
 184 415 184 415 185 415 c 258,41,-1
 221 451 l 257,42,-1
 582 451 l 258,43,44
 583 451 583 451 583 450 c 258,45,-1
 619 415 l 257,46,-1
 619 414 l 258,47,48
 619 413 619 413 618 413 c 258,49,-1
 583 377 l 257,50,-1
 582 377 l 257,51,-1
 221 377 l 257,52,-1
 220 378 l 257,53,-1
 185 413 l 257,54,-1
 184 414 l 258,39,40
184 801 m 257,55,-1
 185 802 l 257,56,-1
 221 837 l 257,57,-1
 582 837 l 257,58,-1
 583 837 l 257,59,-1
 619 801 l 258,60,61
 619 800 619 800 618 799 c 258,62,-1
 583 764 l 257,63,-1
 582 764 l 257,64,-1
 221 764 l 257,65,-1
 220 765 l 257,66,-1
 185 800 l 257,67,-1
 184 800 l 257,68,-1
 184 801 l 257,55,-1
118 837 m 257,69,-1
 119 837 l 257,70,-1
 155 801 l 257,71,-1
 155 27 l 257,72,-1
 154 26 l 257,73,-1
 119 -9 l 257,74,-1
 118 -9 l 257,75,-1
 117 -9 l 257,76,-1
 81 27 l 257,77,-1
 81 801 l 257,78,-1
 82 802 l 257,79,-1
 117 837 l 257,80,-1
 118 837 l 257,69,-1
260 981 m 257,81,-1
 259 981 l 257,82,-1
 223 1017 l 257,83,-1
 223 1069 l 258,84,85
 223 1070 223 1070 224 1070 c 258,86,-1
 259 1106 l 257,87,-1
 260 1106 l 257,88,-1
 261 1105 l 257,89,-1
 296 1070 l 257,90,-1
 297 1069 l 257,91,-1
 297 1017 l 257,92,-1
 296 1016 l 257,93,-1
 260 981 l 257,81,-1
440 981 m 257,94,-1
 439 981 l 257,95,-1
 404 1017 l 257,96,-1
 403 1017 l 257,97,-1
 403 1069 l 258,98,99
 403 1070 403 1070 404 1070 c 258,100,-1
 440 1106 l 258,101,102
 441 1106 441 1106 441 1105 c 258,103,-1
 477 1070 l 257,104,-1
 477 1069 l 257,105,-1
 477 1017 l 257,106,-1
 476 1016 l 257,107,-1
 441 981 l 257,108,-1
 440 981 l 257,94,-1
EndSplineSet
EndChar

StartChar: Igrave
Encoding: 205 204 205
GlifName: I_grave
Width: 700
VWidth: 0
Flags: W
LayerCount: 2
Fore
SplineSet
118 66 m 1280
619 29 m 1280
582 -8 m 1280
81 29 m 1280
118 839 m 1280
619 802 m 1280
582 765 m 1280
81 802 m 1280
350 736 m 1280
387 699 m 1280
350 95 m 1280
313 132 m 1280
313 699 m 1280
81 1091 m 1280
583 972 m 1280
619 934 m 1280
117 1053 m 1280
81 29 m 258,17,18
 81 30 81 30 82 30 c 258,19,-1
 117 66 l 257,20,-1
 118 66 l 257,21,-1
 582 66 l 258,22,23
 583 66 583 66 583 65 c 258,24,-1
 619 30 l 257,25,-1
 619 29 l 258,26,27
 619 28 619 28 618 28 c 258,28,-1
 583 -8 l 257,29,-1
 582 -8 l 257,30,-1
 118 -8 l 258,31,32
 117 -8 117 -8 117 -7 c 258,33,-1
 81 28 l 257,34,-1
 81 29 l 258,17,18
81 802 m 258,35,36
 81 803 81 803 82 803 c 258,37,-1
 117 839 l 257,38,-1
 118 839 l 257,39,-1
 582 839 l 258,40,41
 583 839 583 839 583 838 c 258,42,-1
 619 803 l 257,43,-1
 619 802 l 258,44,45
 619 801 619 801 618 801 c 258,46,-1
 583 765 l 257,47,-1
 582 765 l 257,48,-1
 118 765 l 258,49,50
 117 765 117 765 117 766 c 258,51,-1
 81 801 l 257,52,-1
 81 802 l 258,35,36
349 736 m 257,53,-1
 350 736 l 258,54,55
 351 736 351 736 351 735 c 258,56,-1
 387 700 l 257,57,-1
 387 699 l 257,58,-1
 387 132 l 258,59,60
 387 131 387 131 386 131 c 258,61,-1
 351 95 l 257,62,-1
 350 95 l 258,63,64
 349 95 349 95 349 96 c 258,65,-1
 313 131 l 257,66,-1
 313 132 l 257,67,-1
 313 699 l 257,68,-1
 313 700 l 257,69,-1
 349 736 l 257,53,-1
117 1053 m 257,70,-1
 117 1054 l 257,71,-1
 82 1089 l 257,72,-1
 81 1090 l 257,73,-1
 81 1091 l 257,74,-1
 82 1091 l 257,75,-1
 117 1126 l 258,76,77
 118 1127 118 1127 119 1127 c 258,78,-1
 582 972 l 257,79,-1
 583 972 l 257,80,-1
 618 936 l 257,81,-1
 619 935 l 257,82,-1
 619 934 l 257,83,-1
 618 934 l 257,84,-1
 583 899 l 258,85,86
 582 898 582 898 581 899 c 258,87,-1
 118 1053 l 257,88,-1
 117 1053 l 257,70,-1
EndSplineSet
EndChar

StartChar: Iacute
Encoding: 206 205 206
GlifName: I_acute
Width: 700
VWidth: 0
Flags: W
LayerCount: 2
Fore
SplineSet
118 66 m 1280
619 29 m 1280
582 -8 m 1280
81 29 m 1280
118 839 m 1280
619 802 m 1280
582 765 m 1280
81 802 m 1280
350 736 m 1280
387 699 m 1280
350 95 m 1280
313 132 m 1280
313 699 m 1280
81 29 m 258,13,14
 81 30 81 30 82 30 c 258,15,-1
 117 66 l 257,16,-1
 118 66 l 257,17,-1
 582 66 l 258,18,19
 583 66 583 66 583 65 c 258,20,-1
 619 30 l 257,21,-1
 619 29 l 258,22,23
 619 28 619 28 618 28 c 258,24,-1
 583 -8 l 257,25,-1
 582 -8 l 257,26,-1
 118 -8 l 258,27,28
 117 -8 117 -8 117 -7 c 258,29,-1
 81 28 l 257,30,-1
 81 29 l 258,13,14
81 802 m 258,31,32
 81 803 81 803 82 803 c 258,33,-1
 117 839 l 257,34,-1
 118 839 l 257,35,-1
 582 839 l 258,36,37
 583 839 583 839 583 838 c 258,38,-1
 619 803 l 257,39,-1
 619 802 l 258,40,41
 619 801 619 801 618 801 c 258,42,-1
 583 765 l 257,43,-1
 582 765 l 257,44,-1
 118 765 l 258,45,46
 117 765 117 765 117 766 c 258,47,-1
 81 801 l 257,48,-1
 81 802 l 258,31,32
349 736 m 257,49,-1
 350 736 l 258,50,51
 351 736 351 736 351 735 c 258,52,-1
 387 700 l 257,53,-1
 387 699 l 257,54,-1
 387 132 l 258,55,56
 387 131 387 131 386 131 c 258,57,-1
 351 95 l 257,58,-1
 350 95 l 258,59,60
 349 95 349 95 349 96 c 258,61,-1
 313 131 l 257,62,-1
 313 132 l 257,63,-1
 313 699 l 257,64,-1
 313 700 l 257,65,-1
 349 736 l 257,49,-1
619 1092 m 257,66,-1
 618 1091 l 257,67,-1
 583 1056 l 257,68,-1
 583 1055 l 257,69,-1
 582 1055 l 257,70,-1
 119 901 l 258,71,72
 118 900 118 900 117 901 c 258,73,-1
 82 936 l 257,74,-1
 81 936 l 257,75,-1
 81 937 l 258,76,77
 81 938 81 938 82 938 c 258,78,-1
 117 974 l 257,79,-1
 118 974 l 257,80,-1
 581 1129 l 258,81,82
 582 1129 582 1129 583 1128 c 258,83,-1
 618 1093 l 257,84,-1
 619 1093 l 257,85,-1
 619 1092 l 257,66,-1
EndSplineSet
EndChar

StartChar: Icircumflex
Encoding: 207 206 207
GlifName: I_circumflex
Width: 700
VWidth: 0
Flags: W
LayerCount: 2
Fore
SplineSet
118 66 m 1280
619 29 m 1280
582 -8 m 1280
81 29 m 1280
118 839 m 1280
619 802 m 1280
582 765 m 1280
81 802 m 1280
350 736 m 1280
387 699 m 1280
350 95 m 1280
313 132 m 1280
313 699 m 1280
81 29 m 258,13,14
 81 30 81 30 82 30 c 258,15,-1
 117 66 l 257,16,-1
 118 66 l 257,17,-1
 582 66 l 258,18,19
 583 66 583 66 583 65 c 258,20,-1
 619 30 l 257,21,-1
 619 29 l 258,22,23
 619 28 619 28 618 28 c 258,24,-1
 583 -8 l 257,25,-1
 582 -8 l 257,26,-1
 118 -8 l 258,27,28
 117 -8 117 -8 117 -7 c 258,29,-1
 81 28 l 257,30,-1
 81 29 l 258,13,14
81 802 m 258,31,32
 81 803 81 803 82 803 c 258,33,-1
 117 839 l 257,34,-1
 118 839 l 257,35,-1
 582 839 l 258,36,37
 583 839 583 839 583 838 c 258,38,-1
 619 803 l 257,39,-1
 619 802 l 258,40,41
 619 801 619 801 618 801 c 258,42,-1
 583 765 l 257,43,-1
 582 765 l 257,44,-1
 118 765 l 258,45,46
 117 765 117 765 117 766 c 258,47,-1
 81 801 l 257,48,-1
 81 802 l 258,31,32
349 736 m 257,49,-1
 350 736 l 258,50,51
 351 736 351 736 351 735 c 258,52,-1
 387 700 l 257,53,-1
 387 699 l 257,54,-1
 387 132 l 258,55,56
 387 131 387 131 386 131 c 258,57,-1
 351 95 l 257,58,-1
 350 95 l 258,59,60
 349 95 349 95 349 96 c 258,61,-1
 313 131 l 257,62,-1
 313 132 l 257,63,-1
 313 699 l 257,64,-1
 313 700 l 257,65,-1
 349 736 l 257,49,-1
81 936 m 257,66,-1
 81.5 936.5 l 258,67,68
 82 937 82 937 82 938 c 258,69,-1
 117 973 l 257,70,-1
 349 1128 l 258,71,72
 350 1128 350 1128 351 1128 c 258,73,-1
 583 973 l 257,74,-1
 618 938 l 257,75,-1
 619 937 l 257,76,-1
 619 936 l 257,77,-1
 583 900 l 257,78,-1
 582 900 l 257,79,-1
 581 900 l 257,80,-1
 368 1042 l 258,81,82
 350 1054 350 1054 332 1042 c 258,83,-1
 119 900 l 257,84,-1
 118 900 l 257,85,-1
 117 900 l 257,86,-1
 81 936 l 257,66,-1
EndSplineSet
EndChar

StartChar: Idieresis
Encoding: 208 207 208
GlifName: I_dieresis
Width: 700
VWidth: 0
Flags: W
LayerCount: 2
Fore
SplineSet
118 66 m 1280
619 29 m 1280
582 -8 m 1280
81 29 m 1280
118 839 m 1280
619 802 m 1280
582 765 m 1280
81 802 m 1280
350 736 m 1280
387 699 m 1280
350 95 m 1280
313 132 m 1280
313 699 m 1280
223 1017 m 1280
259 1106 m 1280
297 1069 m 1280
260 981 m 1280
403 1017 m 1280
440 1106 m 1280
477 1069 m 1280
441 981 m 1280
81 29 m 258,21,22
 81 30 81 30 82 30 c 258,23,-1
 117 66 l 257,24,-1
 118 66 l 257,25,-1
 582 66 l 258,26,27
 583 66 583 66 583 65 c 258,28,-1
 619 30 l 257,29,-1
 619 29 l 258,30,31
 619 28 619 28 618 28 c 258,32,-1
 583 -8 l 257,33,-1
 582 -8 l 257,34,-1
 118 -8 l 258,35,36
 117 -8 117 -8 117 -7 c 258,37,-1
 81 28 l 257,38,-1
 81 29 l 258,21,22
81 802 m 258,39,40
 81 803 81 803 82 803 c 258,41,-1
 117 839 l 257,42,-1
 118 839 l 257,43,-1
 582 839 l 258,44,45
 583 839 583 839 583 838 c 258,46,-1
 619 803 l 257,47,-1
 619 802 l 258,48,49
 619 801 619 801 618 801 c 258,50,-1
 583 765 l 257,51,-1
 582 765 l 257,52,-1
 118 765 l 258,53,54
 117 765 117 765 117 766 c 258,55,-1
 81 801 l 257,56,-1
 81 802 l 258,39,40
349 736 m 257,57,-1
 350 736 l 258,58,59
 351 736 351 736 351 735 c 258,60,-1
 387 700 l 257,61,-1
 387 699 l 257,62,-1
 387 132 l 258,63,64
 387 131 387 131 386 131 c 258,65,-1
 351 95 l 257,66,-1
 350 95 l 258,67,68
 349 95 349 95 349 96 c 258,69,-1
 313 131 l 257,70,-1
 313 132 l 257,71,-1
 313 699 l 257,72,-1
 313 700 l 257,73,-1
 349 736 l 257,57,-1
260 981 m 257,74,-1
 259 981 l 257,75,-1
 223 1017 l 257,76,-1
 223 1069 l 258,77,78
 223 1070 223 1070 224 1070 c 258,79,-1
 259 1106 l 257,80,-1
 260 1106 l 257,81,-1
 261 1105 l 257,82,-1
 296 1070 l 257,83,-1
 297 1069 l 257,84,-1
 297 1017 l 257,85,-1
 296 1016 l 257,86,-1
 260 981 l 257,74,-1
440 981 m 257,87,-1
 439 981 l 257,88,-1
 404 1017 l 257,89,-1
 403 1017 l 257,90,-1
 403 1069 l 258,91,92
 403 1070 403 1070 404 1070 c 258,93,-1
 440 1106 l 258,94,95
 441 1106 441 1106 441 1105 c 258,96,-1
 477 1070 l 257,97,-1
 477 1069 l 257,98,-1
 477 1017 l 257,99,-1
 476 1016 l 257,100,-1
 441 981 l 257,101,-1
 440 981 l 257,87,-1
EndSplineSet
EndChar

StartChar: Ntilde
Encoding: 210 209 210
GlifName: N_tilde
Width: 700
VWidth: 0
Flags: W
LayerCount: 2
Fore
SplineSet
258 801 m 1280
480 -10 m 1280
442 26 m 1280
220 837 m 1280
619 800 m 1280
582 -10 m 1280
545 27 m 1280
582 837 m 1280
155 800 m 1280
118 -10 m 1280
81 27 m 1280
118 837 m 1280
170 977 m 1280
133 1014 m 1280
530 1051 m 1280
567 1014 m 1280
221 837 m 258,16,17
 222 837 222 837 222 836 c 258,18,-1
 257 801 l 257,19,-1
 258 801 l 257,20,21
 494 92 494 92 516 27 c 257,22,-1
 515 26 l 257,23,-1
 480 -9 l 257,24,-1
 480 -10 l 257,25,-1
 479 -10 l 258,26,27
 478 -10 478 -10 478 -9 c 258,28,-1
 443 26 l 257,29,-1
 442 26 l 257,30,-1
 442 27 l 257,31,-1
 184 800 l 257,32,-1
 185 801 l 257,33,-1
 220 836 l 257,34,-1
 220 837 l 257,35,-1
 221 837 l 258,16,17
582 837 m 258,36,37
 583 837 583 837 583 836 c 258,38,-1
 619 801 l 257,39,-1
 619 800 l 257,40,-1
 619 27 l 258,41,42
 619 26 619 26 618 26 c 258,43,-1
 583 -10 l 257,44,-1
 582 -10 l 258,45,46
 581 -10 581 -10 581 -9 c 258,47,-1
 545 26 l 257,48,-1
 545 27 l 257,49,-1
 545 800 l 258,50,51
 545 801 545 801 546 801 c 258,52,-1
 581 837 l 257,53,-1
 582 837 l 258,36,37
118 837 m 258,54,55
 119 837 119 837 119 836 c 258,56,-1
 155 801 l 257,57,-1
 155 800 l 257,58,-1
 155 27 l 258,59,60
 155 26 155 26 154 26 c 258,61,-1
 119 -10 l 257,62,-1
 118 -10 l 258,63,64
 117 -10 117 -10 117 -9 c 258,65,-1
 81 26 l 257,66,-1
 81 27 l 257,67,-1
 81 800 l 258,68,69
 81 801 81 801 82 801 c 258,70,-1
 117 837 l 257,71,-1
 118 837 l 258,54,55
211 1053 m 258,72,73
 206 1052 206 1052 206 1014 c 258,74,-1
 206 1013 l 257,75,-1
 170 977 l 258,76,77
 169 977 169 977 168 978 c 258,78,-1
 133 1013 l 257,79,-1
 133 1014 l 258,80,81
 133 1016 133 1016 133 1018 c 128,-1,82
 133 1020 133 1020 133 1023 c 128,-1,83
 133 1026 133 1026 133 1028 c 256,84,85
 133 1037 133 1037 134 1044 c 256,86,87
 138 1074 138 1074 147 1083 c 258,88,-1
 182 1119 l 258,89,90
 189 1126 189 1126 211 1124 c 257,91,-1
 246 1088 l 257,92,-1
 211 1053 l 258,72,73
396 957 m 258,93,94
 394 958 394 958 340 992 c 256,95,96
 306 1013 306 1013 287 1025 c 257,97,-1
 252 1060 l 257,98,-1
 287 1095 l 257,99,100
 311 1083 311 1083 342 1063 c 256,101,102
 359 1052 359 1052 396 1028 c 257,103,-1
 432 993 l 257,104,-1
 396 957 l 258,93,94
476 983 m 257,105,106
 482 982 482 982 488 981 c 258,107,-1
 492 981 l 257,108,109
 494 991 494 991 494 1014 c 258,110,-1
 494 1015 l 257,111,-1
 530 1051 l 258,112,113
 531 1051 531 1051 532 1050 c 258,114,-1
 567 1015 l 257,115,-1
 567 1014 l 258,116,117
 567 970 567 970 550 953 c 258,118,-1
 515 918 l 258,119,120
 505 908 505 908 489 908 c 256,121,122
 485 909 485 909 476 912 c 257,123,-1
 441 948 l 257,124,-1
 476 983 l 257,105,106
EndSplineSet
EndChar

StartChar: Ograve
Encoding: 211 210 211
GlifName: O_grave
Width: 700
VWidth: 0
Flags: W
LayerCount: 2
Fore
SplineSet
81 567 m 1280
582 324 m 1280
545 360 m 1280
118 530 m 1280
118 501 m 1280
155 464 m 1280
582 295 m 1280
619 258 m 1280
81 464 m 1280
81 1091 m 1280
583 972 m 1280
619 934 m 1280
117 1053 m 1280
118 530 m 258,13,14
 117 530 117 530 117 531 c 258,15,-1
 81 566 l 257,16,-1
 81 567 l 258,17,18
 81 663 81 663 149 732 c 258,19,-1
 185 767 l 257,20,-1
 186 768 l 258,21,22
 254 836 254 836 350 836 c 256,23,24
 447 836 447 836 515 767 c 258,25,-1
 551 732 l 258,26,27
 619 663 619 663 619 567 c 258,28,-1
 619 361 l 258,29,30
 619 360 619 360 618 360 c 258,31,-1
 583 324 l 257,32,-1
 582 324 l 258,33,34
 581 324 581 324 581 325 c 258,35,-1
 545 360 l 257,36,-1
 545 361 l 257,37,-1
 545 567 l 258,38,39
 545 648 545 648 494 711 c 257,40,41
 431 762 431 762 350 762 c 128,-1,42
 269 762 269 762 206 711 c 257,43,44
 155 648 155 648 155 567 c 256,45,46
 155 566 155 566 154 566 c 258,47,-1
 119 530 l 257,48,-1
 118 530 l 258,13,14
117 501 m 257,49,-1
 118 501 l 258,50,51
 119 501 119 501 119 500 c 258,52,-1
 155 465 l 257,53,-1
 155 464 l 257,54,-1
 155 258 l 258,55,56
 155 176 155 176 206 113 c 257,57,58
 269 63 269 63 350 63 c 128,-1,59
 431 63 431 63 494 113 c 257,60,61
 545 177 545 177 545 258 c 257,62,-1
 546 259 l 257,63,-1
 581 294 l 257,64,-1
 582 295 l 258,65,66
 583 295 583 295 583 294 c 258,67,-1
 619 258 l 257,68,69
 619 161 619 161 551 93 c 258,70,-1
 515 58 l 257,71,-1
 514 57 l 258,72,73
 446 -11 446 -11 350 -11 c 128,-1,74
 254 -11 254 -11 185 57 c 258,75,-1
 150 92 l 257,76,-1
 149 93 l 258,77,78
 81 162 81 162 81 258 c 258,79,-1
 81 464 l 257,80,-1
 81 465 l 257,81,-1
 117 501 l 257,49,-1
117 1053 m 257,82,-1
 117 1054 l 257,83,-1
 82 1089 l 257,84,-1
 81 1090 l 257,85,-1
 81 1091 l 257,86,-1
 82 1091 l 257,87,-1
 117 1126 l 258,88,89
 118 1127 118 1127 119 1127 c 258,90,-1
 582 972 l 257,91,-1
 583 972 l 257,92,-1
 618 936 l 257,93,-1
 619 935 l 257,94,-1
 619 934 l 257,95,-1
 618 934 l 257,96,-1
 583 899 l 258,97,98
 582 898 582 898 581 899 c 258,99,-1
 118 1053 l 257,100,-1
 117 1053 l 257,82,-1
EndSplineSet
EndChar

StartChar: Oacute
Encoding: 212 211 212
GlifName: O_acute
Width: 700
VWidth: 0
Flags: W
LayerCount: 2
Fore
SplineSet
81 567 m 1280
582 324 m 1280
545 360 m 1280
118 530 m 1280
118 501 m 1280
155 464 m 1280
582 295 m 1280
619 258 m 1280
81 464 m 1280
118 530 m 258,9,10
 117 530 117 530 117 531 c 258,11,-1
 81 566 l 257,12,-1
 81 567 l 258,13,14
 81 663 81 663 149 732 c 258,15,-1
 185 767 l 257,16,-1
 186 768 l 258,17,18
 254 836 254 836 350 836 c 256,19,20
 447 836 447 836 515 767 c 258,21,-1
 551 732 l 258,22,23
 619 663 619 663 619 567 c 258,24,-1
 619 361 l 258,25,26
 619 360 619 360 618 360 c 258,27,-1
 583 324 l 257,28,-1
 582 324 l 258,29,30
 581 324 581 324 581 325 c 258,31,-1
 545 360 l 257,32,-1
 545 361 l 257,33,-1
 545 567 l 258,34,35
 545 648 545 648 494 711 c 257,36,37
 431 762 431 762 350 762 c 128,-1,38
 269 762 269 762 206 711 c 257,39,40
 155 648 155 648 155 567 c 256,41,42
 155 566 155 566 154 566 c 258,43,-1
 119 530 l 257,44,-1
 118 530 l 258,9,10
117 501 m 257,45,-1
 118 501 l 258,46,47
 119 501 119 501 119 500 c 258,48,-1
 155 465 l 257,49,-1
 155 464 l 257,50,-1
 155 258 l 258,51,52
 155 176 155 176 206 113 c 257,53,54
 269 63 269 63 350 63 c 128,-1,55
 431 63 431 63 494 113 c 257,56,57
 545 177 545 177 545 258 c 257,58,-1
 546 259 l 257,59,-1
 581 294 l 257,60,-1
 582 295 l 258,61,62
 583 295 583 295 583 294 c 258,63,-1
 619 258 l 257,64,65
 619 161 619 161 551 93 c 258,66,-1
 515 58 l 257,67,-1
 514 57 l 258,68,69
 446 -11 446 -11 350 -11 c 128,-1,70
 254 -11 254 -11 185 57 c 258,71,-1
 150 92 l 257,72,-1
 149 93 l 258,73,74
 81 162 81 162 81 258 c 258,75,-1
 81 464 l 257,76,-1
 81 465 l 257,77,-1
 117 501 l 257,45,-1
619 1092 m 257,78,-1
 618 1091 l 257,79,-1
 583 1056 l 257,80,-1
 583 1055 l 257,81,-1
 582 1055 l 257,82,-1
 119 901 l 258,83,84
 118 900 118 900 117 901 c 258,85,-1
 82 936 l 257,86,-1
 81 936 l 257,87,-1
 81 937 l 258,88,89
 81 938 81 938 82 938 c 258,90,-1
 117 974 l 257,91,-1
 118 974 l 257,92,-1
 581 1129 l 258,93,94
 582 1129 582 1129 583 1128 c 258,95,-1
 618 1093 l 257,96,-1
 619 1093 l 257,97,-1
 619 1092 l 257,78,-1
EndSplineSet
EndChar

StartChar: Ocircumflex
Encoding: 213 212 213
GlifName: O_circumflex
Width: 700
VWidth: 0
Flags: W
LayerCount: 2
Fore
SplineSet
81 567 m 1280
582 324 m 1280
545 360 m 1280
118 530 m 1280
118 501 m 1280
155 464 m 1280
582 295 m 1280
619 258 m 1280
81 464 m 1280
118 530 m 258,9,10
 117 530 117 530 117 531 c 258,11,-1
 81 566 l 257,12,-1
 81 567 l 258,13,14
 81 663 81 663 149 732 c 258,15,-1
 185 767 l 257,16,-1
 186 768 l 258,17,18
 254 836 254 836 350 836 c 256,19,20
 447 836 447 836 515 767 c 258,21,-1
 551 732 l 258,22,23
 619 663 619 663 619 567 c 258,24,-1
 619 361 l 258,25,26
 619 360 619 360 618 360 c 258,27,-1
 583 324 l 257,28,-1
 582 324 l 258,29,30
 581 324 581 324 581 325 c 258,31,-1
 545 360 l 257,32,-1
 545 361 l 257,33,-1
 545 567 l 258,34,35
 545 648 545 648 494 711 c 257,36,37
 431 762 431 762 350 762 c 128,-1,38
 269 762 269 762 206 711 c 257,39,40
 155 648 155 648 155 567 c 256,41,42
 155 566 155 566 154 566 c 258,43,-1
 119 530 l 257,44,-1
 118 530 l 258,9,10
117 501 m 257,45,-1
 118 501 l 258,46,47
 119 501 119 501 119 500 c 258,48,-1
 155 465 l 257,49,-1
 155 464 l 257,50,-1
 155 258 l 258,51,52
 155 176 155 176 206 113 c 257,53,54
 269 63 269 63 350 63 c 128,-1,55
 431 63 431 63 494 113 c 257,56,57
 545 177 545 177 545 258 c 257,58,-1
 546 259 l 257,59,-1
 581 294 l 257,60,-1
 582 295 l 258,61,62
 583 295 583 295 583 294 c 258,63,-1
 619 258 l 257,64,65
 619 161 619 161 551 93 c 258,66,-1
 515 58 l 257,67,-1
 514 57 l 258,68,69
 446 -11 446 -11 350 -11 c 128,-1,70
 254 -11 254 -11 185 57 c 258,71,-1
 150 92 l 257,72,-1
 149 93 l 258,73,74
 81 162 81 162 81 258 c 258,75,-1
 81 464 l 257,76,-1
 81 465 l 257,77,-1
 117 501 l 257,45,-1
81 936 m 257,78,-1
 81.5 936.5 l 258,79,80
 82 937 82 937 82 938 c 258,81,-1
 117 973 l 257,82,-1
 349 1128 l 258,83,84
 350 1128 350 1128 351 1128 c 258,85,-1
 583 973 l 257,86,-1
 618 938 l 257,87,-1
 619 937 l 257,88,-1
 619 936 l 257,89,-1
 583 900 l 257,90,-1
 582 900 l 257,91,-1
 581 900 l 257,92,-1
 368 1042 l 258,93,94
 350 1054 350 1054 332 1042 c 258,95,-1
 119 900 l 257,96,-1
 118 900 l 257,97,-1
 117 900 l 257,98,-1
 81 936 l 257,78,-1
EndSplineSet
EndChar

StartChar: Otilde
Encoding: 214 213 214
GlifName: O_tilde
Width: 700
VWidth: 0
Flags: W
LayerCount: 2
Fore
SplineSet
81 567 m 1280
582 324 m 1280
545 360 m 1280
118 530 m 1280
118 501 m 1280
155 464 m 1280
582 295 m 1280
619 258 m 1280
81 464 m 1280
170 977 m 1280
133 1014 m 1280
530 1051 m 1280
567 1014 m 1280
118 530 m 258,13,14
 117 530 117 530 117 531 c 258,15,-1
 81 566 l 257,16,-1
 81 567 l 258,17,18
 81 663 81 663 149 732 c 258,19,-1
 185 767 l 257,20,-1
 186 768 l 258,21,22
 254 836 254 836 350 836 c 256,23,24
 447 836 447 836 515 767 c 258,25,-1
 551 732 l 258,26,27
 619 663 619 663 619 567 c 258,28,-1
 619 361 l 258,29,30
 619 360 619 360 618 360 c 258,31,-1
 583 324 l 257,32,-1
 582 324 l 258,33,34
 581 324 581 324 581 325 c 258,35,-1
 545 360 l 257,36,-1
 545 361 l 257,37,-1
 545 567 l 258,38,39
 545 648 545 648 494 711 c 257,40,41
 431 762 431 762 350 762 c 128,-1,42
 269 762 269 762 206 711 c 257,43,44
 155 648 155 648 155 567 c 256,45,46
 155 566 155 566 154 566 c 258,47,-1
 119 530 l 257,48,-1
 118 530 l 258,13,14
117 501 m 257,49,-1
 118 501 l 258,50,51
 119 501 119 501 119 500 c 258,52,-1
 155 465 l 257,53,-1
 155 464 l 257,54,-1
 155 258 l 258,55,56
 155 176 155 176 206 113 c 257,57,58
 269 63 269 63 350 63 c 128,-1,59
 431 63 431 63 494 113 c 257,60,61
 545 177 545 177 545 258 c 257,62,-1
 546 259 l 257,63,-1
 581 294 l 257,64,-1
 582 295 l 258,65,66
 583 295 583 295 583 294 c 258,67,-1
 619 258 l 257,68,69
 619 161 619 161 551 93 c 258,70,-1
 515 58 l 257,71,-1
 514 57 l 258,72,73
 446 -11 446 -11 350 -11 c 128,-1,74
 254 -11 254 -11 185 57 c 258,75,-1
 150 92 l 257,76,-1
 149 93 l 258,77,78
 81 162 81 162 81 258 c 258,79,-1
 81 464 l 257,80,-1
 81 465 l 257,81,-1
 117 501 l 257,49,-1
211 1053 m 258,82,83
 206 1052 206 1052 206 1014 c 258,84,-1
 206 1013 l 257,85,-1
 170 977 l 258,86,87
 169 977 169 977 168 978 c 258,88,-1
 133 1013 l 257,89,-1
 133 1014 l 258,90,91
 133 1016 133 1016 133 1018 c 128,-1,92
 133 1020 133 1020 133 1023 c 128,-1,93
 133 1026 133 1026 133 1028 c 256,94,95
 133 1037 133 1037 134 1044 c 256,96,97
 138 1074 138 1074 147 1083 c 258,98,-1
 182 1119 l 258,99,100
 189 1126 189 1126 211 1124 c 257,101,-1
 246 1088 l 257,102,-1
 211 1053 l 258,82,83
396 957 m 258,103,104
 394 958 394 958 340 992 c 256,105,106
 306 1013 306 1013 287 1025 c 257,107,-1
 252 1060 l 257,108,-1
 287 1095 l 257,109,110
 311 1083 311 1083 342 1063 c 256,111,112
 359 1052 359 1052 396 1028 c 257,113,-1
 432 993 l 257,114,-1
 396 957 l 258,103,104
476 983 m 257,115,116
 482 982 482 982 488 981 c 258,117,-1
 492 981 l 257,118,119
 494 991 494 991 494 1014 c 258,120,-1
 494 1015 l 257,121,-1
 530 1051 l 258,122,123
 531 1051 531 1051 532 1050 c 258,124,-1
 567 1015 l 257,125,-1
 567 1014 l 258,126,127
 567 970 567 970 550 953 c 258,128,-1
 515 918 l 258,129,130
 505 908 505 908 489 908 c 256,131,132
 485 909 485 909 476 912 c 257,133,-1
 441 948 l 257,134,-1
 476 983 l 257,115,116
EndSplineSet
EndChar

StartChar: Odieresis
Encoding: 215 214 215
GlifName: O_dieresis
Width: 700
VWidth: 0
Flags: W
LayerCount: 2
Fore
SplineSet
81 567 m 1280
582 324 m 1280
545 360 m 1280
118 530 m 1280
118 501 m 1280
155 464 m 1280
582 295 m 1280
619 258 m 1280
81 464 m 1280
223 1017 m 1280
259 1106 m 1280
297 1069 m 1280
260 981 m 1280
403 1017 m 1280
440 1106 m 1280
477 1069 m 1280
441 981 m 1280
118 530 m 258,17,18
 117 530 117 530 117 531 c 258,19,-1
 81 566 l 257,20,-1
 81 567 l 258,21,22
 81 663 81 663 149 732 c 258,23,-1
 185 767 l 257,24,-1
 186 768 l 258,25,26
 254 836 254 836 350 836 c 256,27,28
 447 836 447 836 515 767 c 258,29,-1
 551 732 l 258,30,31
 619 663 619 663 619 567 c 258,32,-1
 619 361 l 258,33,34
 619 360 619 360 618 360 c 258,35,-1
 583 324 l 257,36,-1
 582 324 l 258,37,38
 581 324 581 324 581 325 c 258,39,-1
 545 360 l 257,40,-1
 545 361 l 257,41,-1
 545 567 l 258,42,43
 545 648 545 648 494 711 c 257,44,45
 431 762 431 762 350 762 c 128,-1,46
 269 762 269 762 206 711 c 257,47,48
 155 648 155 648 155 567 c 256,49,50
 155 566 155 566 154 566 c 258,51,-1
 119 530 l 257,52,-1
 118 530 l 258,17,18
117 501 m 257,53,-1
 118 501 l 258,54,55
 119 501 119 501 119 500 c 258,56,-1
 155 465 l 257,57,-1
 155 464 l 257,58,-1
 155 258 l 258,59,60
 155 176 155 176 206 113 c 257,61,62
 269 63 269 63 350 63 c 128,-1,63
 431 63 431 63 494 113 c 257,64,65
 545 177 545 177 545 258 c 257,66,-1
 546 259 l 257,67,-1
 581 294 l 257,68,-1
 582 295 l 258,69,70
 583 295 583 295 583 294 c 258,71,-1
 619 258 l 257,72,73
 619 161 619 161 551 93 c 258,74,-1
 515 58 l 257,75,-1
 514 57 l 258,76,77
 446 -11 446 -11 350 -11 c 128,-1,78
 254 -11 254 -11 185 57 c 258,79,-1
 150 92 l 257,80,-1
 149 93 l 258,81,82
 81 162 81 162 81 258 c 258,83,-1
 81 464 l 257,84,-1
 81 465 l 257,85,-1
 117 501 l 257,53,-1
260 981 m 257,86,-1
 259 981 l 257,87,-1
 223 1017 l 257,88,-1
 223 1069 l 258,89,90
 223 1070 223 1070 224 1070 c 258,91,-1
 259 1106 l 257,92,-1
 260 1106 l 257,93,-1
 261 1105 l 257,94,-1
 296 1070 l 257,95,-1
 297 1069 l 257,96,-1
 297 1017 l 257,97,-1
 296 1016 l 257,98,-1
 260 981 l 257,86,-1
440 981 m 257,99,-1
 439 981 l 257,100,-1
 404 1017 l 257,101,-1
 403 1017 l 257,102,-1
 403 1069 l 258,103,104
 403 1070 403 1070 404 1070 c 258,105,-1
 440 1106 l 258,106,107
 441 1106 441 1106 441 1105 c 258,108,-1
 477 1070 l 257,109,-1
 477 1069 l 257,110,-1
 477 1017 l 257,111,-1
 476 1016 l 257,112,-1
 441 981 l 257,113,-1
 440 981 l 257,99,-1
EndSplineSet
EndChar

StartChar: multiply
Encoding: 216 215 216
GlifName: multiply
Width: 700
VWidth: 0
Flags: W
LayerCount: 2
Fore
SplineSet
478 480 m 1280
514 187 m 257,1,-1
 479 152 l 257,2,-1
 478 152 l 258,3,4
 477 152 477 152 476 152 c 258,5,-1
 350 278 l 257,6,-1
 259 187 l 257,7,-1
 224 152 l 257,8,-1
 222 152 l 257,9,-1
 221 152 l 257,10,-1
 186 187 l 257,11,-1
 186 188 l 258,12,13
 186 189 186 189 186 190 c 258,14,-1
 221 225 l 257,15,-1
 312 316 l 257,16,-1
 221 407 l 257,17,-1
 186 442 l 257,18,-1
 186 444 l 257,19,-1
 186 445 l 257,20,-1
 221 480 l 257,21,-1
 222 480 l 258,22,23
 223 480 223 480 224 480 c 258,24,-1
 350 354 l 257,25,-1
 476 480 l 258,26,27
 477 480 477 480 477.5 480 c 258,28,-1
 478 480 l 257,29,-1
 479 480 l 257,30,-1
 514 445 l 257,31,-1
 514 444 l 258,32,33
 514 443 514 443 514 442 c 258,34,-1
 388 316 l 257,35,-1
 479 225 l 257,36,-1
 514 190 l 257,37,-1
 514 188 l 257,38,-1
 514 187 l 257,1,-1
EndSplineSet
EndChar

StartChar: Oslash
Encoding: 217 216 217
GlifName: O_slash
Width: 700
VWidth: 0
Flags: W
LayerCount: 2
Fore
SplineSet
81 567 m 1280
582 324 m 1280
545 360 m 1280
118 530 m 1280
118 501 m 1280
155 464 m 1280
582 295 m 1280
619 258 m 1280
81 464 m 1280
118 530 m 258,9,10
 117 530 117 530 117 531 c 258,11,-1
 81 566 l 257,12,-1
 81 567 l 258,13,14
 81 663 81 663 149 732 c 258,15,-1
 185 767 l 257,16,-1
 186 768 l 258,17,18
 254 836 254 836 350 836 c 256,19,20
 447 836 447 836 515 767 c 258,21,-1
 518.403 763.691 l 257,22,-1
 545 808 l 257,23,-1
 581 843 l 257,24,-1
 582 844 l 257,25,-1
 583 844 l 257,26,-1
 618 808 l 257,27,-1
 619 807 l 257,28,-1
 619 806 l 257,29,-1
 565.216 716.399 l 257,30,31
 619 652.377 619 652.377 619 567 c 258,32,-1
 619 361 l 258,33,34
 619 360 619 360 618 360 c 258,35,-1
 583 324 l 257,36,-1
 582 324 l 258,37,38
 581 324 581 324 581 325 c 258,39,-1
 545 360 l 257,40,-1
 545 361 l 257,41,-1
 545 567 l 258,42,43
 545 613.721 545 613.721 528.032 654.453 c 257,44,-1
 204.297 115.127 l 258,45,46
 205.141 114.061 205.141 114.061 206 113 c 256,47,48
 269 63 269 63 350 63 c 128,-1,49
 431 63 431 63 494 113 c 257,50,51
 545 177 545 177 545 258 c 257,52,-1
 546 259 l 257,53,-1
 581 294 l 257,54,-1
 582 295 l 258,55,56
 583 295 583 295 583 294 c 258,57,-1
 619 258 l 257,58,59
 619 161 619 161 551 93 c 258,60,-1
 515 58 l 257,61,-1
 514 57 l 258,62,63
 446 -11 446 -11 350 -11 c 128,-1,64
 254 -11 254 -11 185 57 c 258,65,-1
 175.255 66.7445 l 257,66,-1
 155 33 l 257,67,-1
 119 -2 l 257,68,-1
 118 -3 l 257,69,-1
 117 -3 l 257,70,-1
 82 33 l 257,71,-1
 81 34 l 257,72,-1
 81 35 l 257,73,-1
 129.265 115.407 l 257,74,75
 81 177.121 81 177.121 81 258 c 258,76,-1
 81 464 l 257,77,-1
 81 465 l 257,78,-1
 117 501 l 257,79,-1
 118 501 l 258,80,81
 119 501 119 501 119 500 c 258,82,-1
 155 465 l 257,83,-1
 155 464 l 257,84,-1
 155 258 l 258,85,86
 155 216.562 155 216.562 168.024 179.977 c 257,87,-1
 489.098 714.87 l 257,88,89
 427.866 762 427.866 762 350 762 c 256,90,91
 269 762 269 762 206 711 c 257,92,93
 155 648 155 648 155 567 c 256,94,95
 155 566 155 566 154 566 c 258,96,-1
 119 530 l 257,97,-1
 118 530 l 258,9,10
EndSplineSet
EndChar

StartChar: Ugrave
Encoding: 218 217 218
GlifName: U_grave
Width: 700
VWidth: 0
Flags: W
LayerCount: 2
Fore
SplineSet
619 801 m 1280
582 325 m 1280
545 362 m 1280
582 837 m 1280
155 801 m 1280
582 296 m 1280
619 259 m 1280
118 837 m 1280
81 1091 m 1280
583 972 m 1280
619 934 m 1280
117 1053 m 1280
582 837 m 258,12,13
 583 837 583 837 583 836 c 258,14,-1
 619 801 l 257,15,-1
 619 800 l 257,16,-1
 619 362 l 258,17,18
 619 361 619 361 618 361 c 258,19,-1
 583 325 l 257,20,-1
 582 325 l 258,21,22
 581 325 581 325 581 326 c 258,23,-1
 545 361 l 257,24,-1
 545 362 l 257,25,-1
 545 800 l 258,26,27
 545 801 545 801 546 801 c 258,28,-1
 581 837 l 257,29,-1
 582 837 l 258,12,13
118 837 m 258,30,31
 119 837 119 837 119 836 c 258,32,-1
 155 801 l 257,33,-1
 155 800 l 257,34,-1
 155 259 l 258,35,36
 155 178 155 178 206 115 c 257,37,38
 269 64 269 64 350 64 c 128,-1,39
 431 64 431 64 494 115 c 257,40,41
 545 178 545 178 545 259 c 256,42,43
 545 260 545 260 546 260 c 258,44,-1
 581 296 l 257,45,-1
 582 296 l 258,46,47
 583 296 583 296 583 295 c 258,48,-1
 619 260 l 257,49,-1
 619 259 l 258,50,51
 619 163 619 163 551 94 c 258,52,-1
 515 59 l 257,53,-1
 514 58 l 258,54,55
 446 -10 446 -10 350 -10 c 128,-1,56
 254 -10 254 -10 185 58 c 258,57,-1
 150 94 l 257,58,-1
 149 95 l 258,59,60
 81 163 81 163 81 259 c 258,61,-1
 81 800 l 258,62,63
 81 801 81 801 82 801 c 258,64,-1
 117 837 l 257,65,-1
 118 837 l 258,30,31
117 1053 m 257,66,-1
 117 1054 l 257,67,-1
 82 1089 l 257,68,-1
 81 1090 l 257,69,-1
 81 1091 l 257,70,-1
 82 1091 l 257,71,-1
 117 1126 l 258,72,73
 118 1127 118 1127 119 1127 c 258,74,-1
 582 972 l 257,75,-1
 583 972 l 257,76,-1
 618 936 l 257,77,-1
 619 935 l 257,78,-1
 619 934 l 257,79,-1
 618 934 l 257,80,-1
 583 899 l 258,81,82
 582 898 582 898 581 899 c 258,83,-1
 118 1053 l 257,84,-1
 117 1053 l 257,66,-1
EndSplineSet
EndChar

StartChar: Uacute
Encoding: 219 218 219
GlifName: U_acute
Width: 700
VWidth: 0
Flags: W
LayerCount: 2
Fore
SplineSet
619 801 m 1280
582 325 m 1280
545 362 m 1280
582 837 m 1280
155 801 m 1280
582 296 m 1280
619 259 m 1280
118 837 m 1280
582 837 m 258,8,9
 583 837 583 837 583 836 c 258,10,-1
 619 801 l 257,11,-1
 619 800 l 257,12,-1
 619 362 l 258,13,14
 619 361 619 361 618 361 c 258,15,-1
 583 325 l 257,16,-1
 582 325 l 258,17,18
 581 325 581 325 581 326 c 258,19,-1
 545 361 l 257,20,-1
 545 362 l 257,21,-1
 545 800 l 258,22,23
 545 801 545 801 546 801 c 258,24,-1
 581 837 l 257,25,-1
 582 837 l 258,8,9
118 837 m 258,26,27
 119 837 119 837 119 836 c 258,28,-1
 155 801 l 257,29,-1
 155 800 l 257,30,-1
 155 259 l 258,31,32
 155 178 155 178 206 115 c 257,33,34
 269 64 269 64 350 64 c 128,-1,35
 431 64 431 64 494 115 c 257,36,37
 545 178 545 178 545 259 c 256,38,39
 545 260 545 260 546 260 c 258,40,-1
 581 296 l 257,41,-1
 582 296 l 258,42,43
 583 296 583 296 583 295 c 258,44,-1
 619 260 l 257,45,-1
 619 259 l 258,46,47
 619 163 619 163 551 94 c 258,48,-1
 515 59 l 257,49,-1
 514 58 l 258,50,51
 446 -10 446 -10 350 -10 c 128,-1,52
 254 -10 254 -10 185 58 c 258,53,-1
 150 94 l 257,54,-1
 149 95 l 258,55,56
 81 163 81 163 81 259 c 258,57,-1
 81 800 l 258,58,59
 81 801 81 801 82 801 c 258,60,-1
 117 837 l 257,61,-1
 118 837 l 258,26,27
619 1092 m 257,62,-1
 618 1091 l 257,63,-1
 583 1056 l 257,64,-1
 583 1055 l 257,65,-1
 582 1055 l 257,66,-1
 119 901 l 258,67,68
 118 900 118 900 117 901 c 258,69,-1
 82 936 l 257,70,-1
 81 936 l 257,71,-1
 81 937 l 258,72,73
 81 938 81 938 82 938 c 258,74,-1
 117 974 l 257,75,-1
 118 974 l 257,76,-1
 581 1129 l 258,77,78
 582 1129 582 1129 583 1128 c 258,79,-1
 618 1093 l 257,80,-1
 619 1093 l 257,81,-1
 619 1092 l 257,62,-1
EndSplineSet
EndChar

StartChar: Ucircumflex
Encoding: 220 219 220
GlifName: U_circumflex
Width: 700
VWidth: 0
Flags: W
LayerCount: 2
Fore
SplineSet
619 801 m 1280
582 325 m 1280
545 362 m 1280
582 837 m 1280
155 801 m 1280
582 296 m 1280
619 259 m 1280
118 837 m 1280
582 837 m 258,8,9
 583 837 583 837 583 836 c 258,10,-1
 619 801 l 257,11,-1
 619 800 l 257,12,-1
 619 362 l 258,13,14
 619 361 619 361 618 361 c 258,15,-1
 583 325 l 257,16,-1
 582 325 l 258,17,18
 581 325 581 325 581 326 c 258,19,-1
 545 361 l 257,20,-1
 545 362 l 257,21,-1
 545 800 l 258,22,23
 545 801 545 801 546 801 c 258,24,-1
 581 837 l 257,25,-1
 582 837 l 258,8,9
118 837 m 258,26,27
 119 837 119 837 119 836 c 258,28,-1
 155 801 l 257,29,-1
 155 800 l 257,30,-1
 155 259 l 258,31,32
 155 178 155 178 206 115 c 257,33,34
 269 64 269 64 350 64 c 128,-1,35
 431 64 431 64 494 115 c 257,36,37
 545 178 545 178 545 259 c 256,38,39
 545 260 545 260 546 260 c 258,40,-1
 581 296 l 257,41,-1
 582 296 l 258,42,43
 583 296 583 296 583 295 c 258,44,-1
 619 260 l 257,45,-1
 619 259 l 258,46,47
 619 163 619 163 551 94 c 258,48,-1
 515 59 l 257,49,-1
 514 58 l 258,50,51
 446 -10 446 -10 350 -10 c 128,-1,52
 254 -10 254 -10 185 58 c 258,53,-1
 150 94 l 257,54,-1
 149 95 l 258,55,56
 81 163 81 163 81 259 c 258,57,-1
 81 800 l 258,58,59
 81 801 81 801 82 801 c 258,60,-1
 117 837 l 257,61,-1
 118 837 l 258,26,27
81 936 m 257,62,-1
 81.5 936.5 l 258,63,64
 82 937 82 937 82 938 c 258,65,-1
 117 973 l 257,66,-1
 349 1128 l 258,67,68
 350 1128 350 1128 351 1128 c 258,69,-1
 583 973 l 257,70,-1
 618 938 l 257,71,-1
 619 937 l 257,72,-1
 619 936 l 257,73,-1
 583 900 l 257,74,-1
 582 900 l 257,75,-1
 581 900 l 257,76,-1
 368 1042 l 258,77,78
 350 1054 350 1054 332 1042 c 258,79,-1
 119 900 l 257,80,-1
 118 900 l 257,81,-1
 117 900 l 257,82,-1
 81 936 l 257,62,-1
EndSplineSet
EndChar

StartChar: Udieresis
Encoding: 221 220 221
GlifName: U_dieresis
Width: 700
VWidth: 0
Flags: W
LayerCount: 2
Fore
SplineSet
619 801 m 1280
582 325 m 1280
545 362 m 1280
582 837 m 1280
155 801 m 1280
582 296 m 1280
619 259 m 1280
118 837 m 1280
223 1017 m 1280
259 1106 m 1280
297 1069 m 1280
260 981 m 1280
403 1017 m 1280
440 1106 m 1280
477 1069 m 1280
441 981 m 1280
582 837 m 258,16,17
 583 837 583 837 583 836 c 258,18,-1
 619 801 l 257,19,-1
 619 800 l 257,20,-1
 619 362 l 258,21,22
 619 361 619 361 618 361 c 258,23,-1
 583 325 l 257,24,-1
 582 325 l 258,25,26
 581 325 581 325 581 326 c 258,27,-1
 545 361 l 257,28,-1
 545 362 l 257,29,-1
 545 800 l 258,30,31
 545 801 545 801 546 801 c 258,32,-1
 581 837 l 257,33,-1
 582 837 l 258,16,17
118 837 m 258,34,35
 119 837 119 837 119 836 c 258,36,-1
 155 801 l 257,37,-1
 155 800 l 257,38,-1
 155 259 l 258,39,40
 155 178 155 178 206 115 c 257,41,42
 269 64 269 64 350 64 c 128,-1,43
 431 64 431 64 494 115 c 257,44,45
 545 178 545 178 545 259 c 256,46,47
 545 260 545 260 546 260 c 258,48,-1
 581 296 l 257,49,-1
 582 296 l 258,50,51
 583 296 583 296 583 295 c 258,52,-1
 619 260 l 257,53,-1
 619 259 l 258,54,55
 619 163 619 163 551 94 c 258,56,-1
 515 59 l 257,57,-1
 514 58 l 258,58,59
 446 -10 446 -10 350 -10 c 128,-1,60
 254 -10 254 -10 185 58 c 258,61,-1
 150 94 l 257,62,-1
 149 95 l 258,63,64
 81 163 81 163 81 259 c 258,65,-1
 81 800 l 258,66,67
 81 801 81 801 82 801 c 258,68,-1
 117 837 l 257,69,-1
 118 837 l 258,34,35
260 981 m 257,70,-1
 259 981 l 257,71,-1
 223 1017 l 257,72,-1
 223 1069 l 258,73,74
 223 1070 223 1070 224 1070 c 258,75,-1
 259 1106 l 257,76,-1
 260 1106 l 257,77,-1
 261 1105 l 257,78,-1
 296 1070 l 257,79,-1
 297 1069 l 257,80,-1
 297 1017 l 257,81,-1
 296 1016 l 257,82,-1
 260 981 l 257,70,-1
440 981 m 257,83,-1
 439 981 l 257,84,-1
 404 1017 l 257,85,-1
 403 1017 l 257,86,-1
 403 1069 l 258,87,88
 403 1070 403 1070 404 1070 c 258,89,-1
 440 1106 l 258,90,91
 441 1106 441 1106 441 1105 c 258,92,-1
 477 1070 l 257,93,-1
 477 1069 l 257,94,-1
 477 1017 l 257,95,-1
 476 1016 l 257,96,-1
 441 981 l 257,97,-1
 440 981 l 257,83,-1
EndSplineSet
EndChar

StartChar: Yacute
Encoding: 222 221 222
GlifName: Y_acute
Width: 700
VWidth: 0
Flags: W
LayerCount: 2
Fore
SplineSet
350 -6 m 1280
313 30 m 1280
117 840 m 258,2,3
 119 841 119 841 119 840 c 258,4,-1
 155 804 l 257,5,-1
 360.158 393.683 l 257,6,-1
 545 804 l 257,7,-1
 581 840 l 258,8,9
 582 841 582 841 583 840 c 258,10,-1
 618 805 l 257,11,-1
 619 804 l 257,12,-1
 619 803 l 257,13,-1
 390 294 l 258,14,15
 387 288 387 288 387 281 c 258,16,-1
 387 31 l 258,17,18
 387 30 387 30 386 29 c 258,19,-1
 351 -6 l 257,20,-1
 350 -6 l 258,21,22
 349 -6 349 -6 349 -5 c 258,23,-1
 313 30 l 257,24,-1
 313 31 l 257,25,-1
 313 289 l 257,26,-1
 357.269 387.269 l 257,27,-1
 325 355 l 258,28,29
 324 354 324 354 323 355 c 258,30,-1
 288 391 l 257,31,-1
 81 803 l 258,32,33
 81 804 81 804 82 805 c 258,34,-1
 117 840 l 258,2,3
619 1092 m 257,35,-1
 618 1091 l 257,36,-1
 583 1056 l 257,37,-1
 583 1055 l 257,38,-1
 582 1055 l 257,39,-1
 119 901 l 258,40,41
 118 900 118 900 117 901 c 258,42,-1
 82 936 l 257,43,-1
 81 936 l 257,44,-1
 81 937 l 258,45,46
 81 938 81 938 82 938 c 258,47,-1
 117 974 l 257,48,-1
 118 974 l 257,49,-1
 581 1129 l 258,50,51
 582 1129 582 1129 583 1128 c 258,52,-1
 618 1093 l 257,53,-1
 619 1093 l 257,54,-1
 619 1092 l 257,35,-1
EndSplineSet
EndChar

StartChar: agrave
Encoding: 225 224 225
GlifName: agrave
Width: 700
VWidth: 0
Flags: W
LayerCount: 2
Fore
SplineSet
647 23 m 1280
146 576 m 1280
110 539 m 1280
81 829 m 1280
583 710 m 1280
619 672 m 1280
117 791 m 1280
171 152 m 256,7,8
 170 114 170 114 192 82 c 257,9,10
 224 60 224 60 262.5 60.5 c 128,-1,11
 301 61 301 61 333 82 c 257,12,13
 354 114 354 114 354 152 c 256,14,15
 355 191 355 191 333 224 c 257,16,17
 307 242 307 242 275 244 c 256,18,19
 269 245 269 245 264 245 c 256,20,21
 225 245 225 245 192 223 c 257,22,23
 171 191 171 191 171 152 c 256,7,8
97 152 m 256,24,25
 97 207 97 207 135 245 c 258,26,-1
 171 280 l 257,27,-1
 171 281 l 257,28,29
 210 319 210 319 264 319 c 256,30,31
 270 319 270 319 276 318 c 256,32,33
 322 314 322 314 355 281 c 258,34,-1
 378.139 257.861 l 257,35,36
 371.751 273.094 371.751 273.094 363 294 c 256,37,38
 345 337 345 337 334.5 360.5 c 128,-1,39
 324 384 324 384 306 415.5 c 256,40,41
 290.515 442.599 290.515 442.599 275.029 461.928 c 257,42,43
 219.402 502 219.402 502 147 502 c 256,44,45
 146 502 146 502 145 503 c 258,46,-1
 110 538 l 257,47,-1
 110 539 l 258,48,49
 110 540 110 540 111 540 c 258,50,-1
 146 576 l 257,51,-1
 147 576 l 258,52,53
 225 576 225 576 279 530 c 256,54,55
 292 520 292 520 304 508 c 258,56,-1
 305 507 l 257,57,-1
 340 472 l 258,58,59
 363 449 363 449 384 417 c 128,-1,60
 405 385 405 385 421 352.5 c 128,-1,61
 437 320 437 320 454 282.5 c 128,-1,62
 471 245 471 245 485.5 212.5 c 128,-1,63
 500 180 500 180 520 146 c 128,-1,64
 540 112 540 112 560 87 c 256,65,66
 570 79 570 79 580 73 c 256,67,68
 595 65 595 65 612 60 c 257,69,-1
 647 25 l 258,70,71
 647 24 647 24 647 23 c 258,72,-1
 612 -13 l 257,73,-1
 611 -13 l 257,74,75
 595 -7 595 -7 580 2 c 256,76,77
 546 19 546 19 517 48 c 258,78,-1
 482 83 l 258,79,80
 454.52 110.48 454.52 110.48 428.024 155.33 c 257,81,82
 428.03 153.672 428.03 153.672 428 152 c 256,83,84
 428 98 428 98 390 60 c 258,85,-1
 354 25 l 257,86,-1
 353 24 l 258,87,88
 315 -13 315 -13 262 -13 c 256,89,90
 208 -13 208 -13 170 25 c 258,91,-1
 135 60 l 258,92,93
 97 99 97 99 97 152 c 256,24,25
117 791 m 257,94,-1
 117 792 l 257,95,-1
 82 827 l 257,96,-1
 81 828 l 257,97,-1
 81 829 l 257,98,-1
 82 829 l 257,99,-1
 117 864 l 258,100,101
 118 865 118 865 119 865 c 258,102,-1
 582 710 l 257,103,-1
 583 710 l 257,104,-1
 618 674 l 257,105,-1
 619 673 l 257,106,-1
 619 672 l 257,107,-1
 618 672 l 257,108,-1
 583 637 l 258,109,110
 582 636 582 636 581 637 c 258,111,-1
 118 791 l 257,112,-1
 117 791 l 257,94,-1
EndSplineSet
EndChar

